<?xml version="1.0" encoding="iso-8859-1"?>
<!-- Generator: Adobe Illustrator 19.0.0, SVG Export Plug-In . SVG Version: 6.00 Build 0)  -->
<svg version="1.1" id="Layer_1" xmlns="http://www.w3.org/2000/svg" xmlns:xlink="http://www.w3.org/1999/xlink" x="0px" y="0px"
	 viewBox="0 0 512 512" style="enable-background:new 0 0 512 512;" xml:space="preserve">
<path style="fill:#314E55;" d="M316.331,153.968c41.982,0,76.137-34.529,76.137-76.972C392.468,34.539,358.313,0,316.331,0
	c-41.963,0-76.099,34.539-76.099,76.996C240.232,119.438,274.368,153.968,316.331,153.968z"/>
<path style="fill:#D8D8D8;" d="M316.331,19.643c31.153,0,56.494,25.729,56.494,57.352c0,31.609-25.341,57.329-56.494,57.329
	c-31.134,0-56.456-25.72-56.456-57.329C259.875,45.373,285.197,19.643,316.331,19.643z"/>
<path style="fill:#314E55;" d="M450.814,450.998c-30.904-81.063-128.076-139.197-132.526-141.811
	c-8.805-4.772-16.891-11.491-20.862-15.006c-0.413-6.604,0.748-10.013,2.033-10.953c2.283-1.674,9.064-0.216,12.92,1.573
	l0.719,0.307c14.742,5.558,39.057,4.719,41.378,4.623c55.669,0,90.247-34.357,91.695-35.82l4.94-5.002l-30.405-60.892l-8.987,5.021
	c-75.284,42.083-97.412,18.094-99.474,15.524c-4.259-8.589-15.951-31.834-15.951-31.834l-1.304-1.966
	c-16.756-19.596-43.584-11.188-55.19-4.124c-56.532,32.415-56.657,124.858-56.619,128.052
	c-6.819,99.728-112.71,128.191-117.218,129.351l-7.376,1.909v7.606c0,2.091,0,6.992,25.907,67.232L87.602,512l7.712-1.439
	c90.055-16.747,151.584-96.553,169.002-121.721c92.98,47.334,118.733,106.744,118.983,107.324l4.882,11.898l65.232-50.245
	L450.814,450.998z"/>
<path style="fill:#D8D8D8;" d="M395.682,477.49c-12.671-21.701-48.476-70.56-130.493-110.139l-7.961-3.846l-4.662,7.52
	c-0.614,0.993-60.964,96.942-153.186,118.613c-7.481-17.567-14.886-35.594-18.684-45.718
	c29.523-10.508,115.606-49.19,122.11-144.616c-0.01-0.844,0.067-84.847,46.941-111.732c0.192-0.11,19.289-11.332,29.599-0.825
	c2.513,5.002,12.239,24.353,15.96,31.81c1.093,1.846,26.923,43.296,116.949-3.486l14.742,29.537
	c-10.522,8.369-36.515,25.48-72.934,25.49c-6.215,0.278-24.266,0.173-33.724-3.256c-3.453-1.549-20.19-8.354-32.381,0.465
	c-8.412,6.086-11.673,17.121-9.687,32.803l0.432,3.41l2.465,2.398c0.518,0.508,12.939,12.517,27.451,20.363
	c0.921,0.547,89.748,53.655,121.083,125.006L395.682,477.49z"/>
<g>
</g>
<g>
</g>
<g>
</g>
<g>
</g>
<g>
</g>
<g>
</g>
<g>
</g>
<g>
</g>
<g>
</g>
<g>
</g>
<g>
</g>
<g>
</g>
<g>
</g>
<g>
</g>
<g>
</g>
</svg>
