<?xml version="1.0" encoding="iso-8859-1"?>
<!-- Generator: Adobe Illustrator 19.0.0, SVG Export Plug-In . SVG Version: 6.00 Build 0)  -->
<svg version="1.1" id="Layer_1" xmlns="http://www.w3.org/2000/svg" xmlns:xlink="http://www.w3.org/1999/xlink" x="0px" y="0px"
	 viewBox="0 0 512 512" style="enable-background:new 0 0 512 512;" xml:space="preserve">
<path style="fill:#314E55;" d="M360.795,10.34L360.249,0l-10.292,1.11c-1.005,0.105-100.51,12.101-107.332,123.339l-0.685,11.134
	l11.134-0.756C254.215,134.751,366.903,125.756,360.795,10.34z"/>
<path style="fill:#D8D8D8;" d="M341.37,22.766c-1.876,67.04-54.025,85.685-77.964,90.716
	C272.52,48.328,319.767,28.482,341.37,22.766z"/>
<path style="fill:#314E55;" d="M456.691,367.8l-6.266-2.025c-37.907-12.254-63.373-46.983-63.373-86.413
	c0-35.078,19.837-66.452,51.77-81.88l9.526-4.6l-5.314-9.148c-2.279-3.925-23.542-38.659-68.457-50.152
	c-35.629-9.119-75.685-1.053-119.107,23.987c-18.377-11.158-79.438-43.316-128.011-11.082
	c-9.507,5.256-110.295,65.633-57.84,228.554c1.541,3.648,38.118,89.342,81.401,121.434c11.675,11.158,41.541,25.098,75.661,1.833
	c5.912-2.436,45.47-17.664,70.568,0.163C306.512,504.815,322.691,512,339.78,512c12.958,0,26.443-4.131,37.831-15.893
	c5.314-4.6,53.848-47.921,79.079-116.541l0.737-2.001L456.691,367.8z"/>
<path style="fill:#D8D8D8;" d="M364.519,481.503l-0.756,0.713c-21.503,22.58-54.092,0.981-55.303,0.177
	c-12.819-9.114-27.678-12.087-41.608-12.087c-25.284,0-47.515,9.789-48.936,10.431l-1.599,0.905
	c-29.592,20.655-49.86,2.484-52.009,0.412l-1.154-0.991c-39.147-28.549-75.121-112.812-75.173-112.841
	c-49.099-152.62,44.954-202.538,48.951-204.572l1.082-0.632c45.557-30.588,111.041,13.681,111.692,14.131l5.223,3.585l5.409-3.269
	c40.784-24.652,77.586-33.034,109.376-24.887c25.897,6.625,42.412,22.809,50.487,32.761c-32.809,20.11-52.756,55.193-52.756,94.024
	c0,44.662,26.816,84.35,67.667,101.616C409.971,442.356,364.993,481.101,364.519,481.503z"/>
<g>
</g>
<g>
</g>
<g>
</g>
<g>
</g>
<g>
</g>
<g>
</g>
<g>
</g>
<g>
</g>
<g>
</g>
<g>
</g>
<g>
</g>
<g>
</g>
<g>
</g>
<g>
</g>
<g>
</g>
</svg>
