<?xml version="1.0" encoding="iso-8859-1"?>
<!-- Generator: Adobe Illustrator 19.0.0, SVG Export Plug-In . SVG Version: 6.00 Build 0)  -->
<svg version="1.1" id="Layer_1" xmlns="http://www.w3.org/2000/svg" xmlns:xlink="http://www.w3.org/1999/xlink" x="0px" y="0px"
	 viewBox="0 0 512 512" style="enable-background:new 0 0 512 512;" xml:space="preserve">
<g>
	<path style="fill:#314E55;" d="M505.682,230.818c-3.022-35.332-40.435-47.941-59.805-49.675c-4.294-0.386-12.5-0.375-19.37-0.283
		v-11.152C426.507,79.305,350.604,0,264.082,0H164.037C77.83,0,4.992,77.718,4.992,169.708v178.98
		c0,89.762,71.349,162.784,159.045,162.784l84.99-0.043L248.821,512l118.382-0.006c0.043,0,0.228,0.006,0.543,0.006
		c9.261,0,129.567-2.881,137.98-144.284C505.834,363.531,508.584,264.84,505.682,230.818z M168.331,322.786h162.252
		c10.728,0,19.457,9.962,19.457,22.212c0,12.239-8.728,22.201-19.457,22.201H168.331c-10.739,0-19.468-9.962-19.468-22.201
		 M148.863,344.998c0-12.25,8.728-22.212,19.468-22.212 M148.863,177.654c0-12.544,11.522-19.103,22.902-19.103h88.588
		c11.38,0,22.903,6.56,22.903,19.103c0,11.565-10.272,20.973-22.903,20.973h-88.588
		C159.135,198.627,148.863,189.219,148.863,177.654z"/>
	<path style="fill:#314E55;" d="M168.331,322.786h162.252"/>
</g>
<path style="fill:#F28544;" d="M483.508,232.709c-2.207-25.75-39.229-29.359-39.598-29.392c-5.489-0.494-22.229-0.136-28.207,0.038
	l-11.457,0.337v-33.984c0-78.544-65.501-147.447-140.164-147.447H164.037c-74.142,0-136.784,67.522-136.784,147.447v178.98
	c0,77.485,61.359,140.523,136.784,140.523h115.86l-0.163,0.527h87.784c4.707,0.174,108.588,1.076,115.969-123.001
	C483.497,366.075,486.302,265.476,483.508,232.709z M171.766,158.551h88.588c11.38,0,22.903,6.56,22.903,19.103
	c0,11.565-10.272,20.973-22.903,20.973h-88.588c-12.631,0-22.903-9.408-22.903-20.973
	C148.863,165.11,160.385,158.551,171.766,158.551z M330.582,367.2H168.331c-10.739,0-19.468-9.962-19.468-22.201
	c0-12.25,8.728-22.212,19.468-22.212h162.252c10.728,0,19.457,9.962,19.457,22.212C350.039,357.238,341.311,367.2,330.582,367.2z"/>
<g>
	<path style="fill:#314E55;" d="M330.582,300.525H168.331c-23.011,0-41.729,19.951-41.729,44.473
		c0,24.516,18.718,44.462,41.729,44.462h162.252c23,0,41.718-19.946,41.718-44.462C372.3,320.476,353.583,300.525,330.582,300.525z
		 M330.582,367.2H168.331c-10.739,0-19.468-9.962-19.468-22.201c0-12.25,8.728-22.212,19.468-22.212h162.252
		c10.728,0,19.457,9.962,19.457,22.212C350.039,357.238,341.311,367.2,330.582,367.2z"/>
	<path style="fill:#314E55;" d="M260.353,136.289h-88.588c-25.75,0-45.164,17.783-45.164,41.364
		c0,23.837,20.261,43.234,45.164,43.234h88.588c24.902,0,45.164-19.397,45.164-43.234
		C305.517,154.072,286.104,136.289,260.353,136.289z M260.353,198.627h-88.588c-12.631,0-22.903-9.408-22.903-20.973
		c0-12.544,11.522-19.103,22.903-19.103h88.588c11.38,0,22.903,6.56,22.903,19.103C283.256,189.219,272.984,198.627,260.353,198.627
		z"/>
</g>
<g>
</g>
<g>
</g>
<g>
</g>
<g>
</g>
<g>
</g>
<g>
</g>
<g>
</g>
<g>
</g>
<g>
</g>
<g>
</g>
<g>
</g>
<g>
</g>
<g>
</g>
<g>
</g>
<g>
</g>
</svg>
