<?xml version="1.0" encoding="iso-8859-1"?>
<!-- Generator: Adobe Illustrator 19.0.0, SVG Export Plug-In . SVG Version: 6.00 Build 0)  -->
<svg version="1.1" id="Layer_1" xmlns="http://www.w3.org/2000/svg" xmlns:xlink="http://www.w3.org/1999/xlink" x="0px" y="0px"
	 viewBox="0 0 512 512" style="enable-background:new 0 0 512 512;" xml:space="preserve">
<g>
	<path style="fill:#314E55;" d="M347.829,489.739C218.948,489.739,114.09,384.88,114.09,256S218.948,22.261,347.829,22.261
		c6.152,0,11.13-4.978,11.13-11.13S353.981,0,347.829,0c-141.163,0-256,114.837-256,256s114.837,256,256,256
		c6.152,0,11.13-4.978,11.13-11.13C358.959,494.717,353.981,489.739,347.829,489.739z"/>
	<path style="fill:#314E55;" d="M347.829,400.696c-79.783,0-144.696-64.913-144.696-144.696s64.913-144.696,144.696-144.696
		c6.152,0,11.13-4.978,11.13-11.13c0-6.152-4.978-11.13-11.13-11.13c-92.065,0-166.957,74.891-166.957,166.957
		s74.891,166.957,166.957,166.957c6.152,0,11.13-4.978,11.13-11.13C358.959,405.674,353.981,400.696,347.829,400.696z"/>
	<path style="fill:#314E55;" d="M405.535,323.348c-0.587,0.196-60.098,19.467-94.228-5.217
		c-16.391-11.837-24.696-32.739-24.696-62.13s8.304-50.293,24.696-62.13c34.13-24.674,93.641-5.413,94.228-5.217
		c5.87,1.924,12.141-1.239,14.065-7.054c1.935-5.837-1.207-12.13-7.032-14.065c-2.891-0.968-70.793-23.098-114.228,8.239
		c-22.554,16.261-33.989,43.25-33.989,80.228s11.435,63.967,33.989,80.228c17.848,12.87,39.837,16.717,59.739,16.717
		c28.533-0.011,52.794-7.913,54.489-8.478c5.826-1.935,8.968-8.228,7.032-14.065C417.677,324.587,411.416,321.424,405.535,323.348z"
		/>
</g>
<g>
</g>
<g>
</g>
<g>
</g>
<g>
</g>
<g>
</g>
<g>
</g>
<g>
</g>
<g>
</g>
<g>
</g>
<g>
</g>
<g>
</g>
<g>
</g>
<g>
</g>
<g>
</g>
<g>
</g>
</svg>
