<?xml version="1.0" encoding="iso-8859-1"?>
<!-- Generator: Adobe Illustrator 19.0.0, SVG Export Plug-In . SVG Version: 6.00 Build 0)  -->
<svg version="1.1" id="Layer_1" xmlns="http://www.w3.org/2000/svg" xmlns:xlink="http://www.w3.org/1999/xlink" x="0px" y="0px"
	 viewBox="0 0 512 512" style="enable-background:new 0 0 512 512;" xml:space="preserve">
<path style="fill:#314E55;" d="M263.046,7.046C125.77,7.046,14.091,118.725,14.091,256c0,38.596,8.569,75.532,25.477,109.835
	l-38.844,93.23c-1.312,3.147-0.817,6.752,1.289,9.431c2.106,2.661,5.44,4,8.867,3.459l103.152-16.505
	c43.262,32.404,94.698,49.505,149.014,49.505C400.321,504.955,512,393.276,512,256S400.321,7.046,263.046,7.046z"/>
<path style="fill:#D26CBA;" d="M263.046,486.166c-51.486,0-100.165-16.615-140.771-48.055c-1.66-1.284-3.684-1.963-5.752-1.963
	c-0.495,0-0.991,0.037-1.486,0.119l-90.491,14.477l34.028-81.661c1.064-2.56,0.945-5.449-0.321-7.908
	C41.417,328.441,32.88,293.055,32.88,256c0-126.918,103.252-230.166,230.166-230.166S493.211,129.082,493.211,256
	S389.959,486.166,263.046,486.166z"/>
<path style="fill:#314E55;" d="M281.835,129.174H164.403c-5.188,0-9.395,4.202-9.395,9.395v244.257c0,5.193,4.206,9.395,9.395,9.395
	h117.431c69.931,0,126.826-56.918,126.826-126.872v-9.303C408.66,186.092,351.766,129.174,281.835,129.174z"/>
<path style="fill:#FFFFFF;" d="M389.871,265.349c0,59.596-48.463,108.083-108.037,108.083H173.798V147.963h108.037
	c59.573,0,108.037,48.486,108.037,108.083V265.349z"/>
<path style="fill:#314E55;" d="M267.757,194.936h-28.197c-5.188,0-9.395,4.202-9.395,9.395v112.734c0,5.193,4.206,9.395,9.395,9.395
	h28.197c36.252,0,65.748-29.505,65.748-65.762S304.009,194.936,267.757,194.936z"/>
<path style="fill:#D26CBA;" d="M267.757,307.67h-18.803v-93.945h18.803c25.895,0,46.959,21.074,46.959,46.973
	S293.651,307.67,267.757,307.67z"/>
<g>
</g>
<g>
</g>
<g>
</g>
<g>
</g>
<g>
</g>
<g>
</g>
<g>
</g>
<g>
</g>
<g>
</g>
<g>
</g>
<g>
</g>
<g>
</g>
<g>
</g>
<g>
</g>
<g>
</g>
</svg>
