<?xml version="1.0" encoding="iso-8859-1"?>
<!-- Generator: Adobe Illustrator 19.0.0, SVG Export Plug-In . SVG Version: 6.00 Build 0)  -->
<svg version="1.1" id="Layer_1" xmlns="http://www.w3.org/2000/svg" xmlns:xlink="http://www.w3.org/1999/xlink" x="0px" y="0px"
	 viewBox="0 0 512 512" style="enable-background:new 0 0 512 512;" xml:space="preserve">
<path style="fill:#314E55;" d="M431.896,70.304l-9.979-9.455l-0.341,0.577C375.212,21.87,317.035,0,255.995,0
	c-33.192,0-65.555,6.456-96.368,19.032l-0.146-0.148l-6.915,3.059C77.174,55.314,22.17,123.207,5.426,203.544l-1.776,8.52
	l0.212,0.098c-2.514,14.528-3.859,29.229-3.859,43.846c0,75.43,32.824,145.88,90.234,194.735l-0.099,0.226l6.594,5.252
	C142.559,492.71,197.627,512,255.995,512c30.81,0,61.384-5.685,90.873-16.905l7.059-2.685v-0.318
	c85.318-34.21,143.614-110.381,155.392-202.606l0.614,0.214l1.091-14.177c0.455-5.931,0.973-12.653,0.973-19.515
	C511.998,185.211,483.552,119.26,431.896,70.304z"/>
<g>
	<path style="fill:#EA86A5;" d="M490.092,256.008c0,1.305-0.021,2.605-0.059,3.899c-30.74-9.231-62.529-13.899-94.713-13.899
		c-27.78,0-55.441,3.52-82.372,10.475l-0.056-0.159l-0.06,0.017c-5.561-14.977-11.58-29.58-17.969-43.614l0.097-0.044l-0.084-0.175
		c53.824-26.382,98.916-66.409,131.516-116.721C467.572,139.406,490.092,195.795,490.092,256.008z"/>
	<path style="fill:#EA86A5;" d="M410.009,80.341c-30.582,48.557-73.434,87.078-124.879,112.302
		c-28.506-57.167-65.122-109.695-109.09-156.499c25.716-9.413,52.533-14.239,79.956-14.239
		C312.948,21.905,367.2,42.727,410.009,80.341z"/>
	<path style="fill:#EA86A5;" d="M154.559,45.147c44.859,46.56,82.07,99.162,110.784,156.6
		c-36.751,14.942-75.546,22.504-115.479,22.504c-42.008,0-82.685-8.343-121.036-24.809C45.541,132.186,91.795,75.396,154.559,45.147
		z"/>
	<path style="fill:#EA86A5;" d="M21.908,256.008c0-11.55,0.899-23.17,2.62-34.695c39.824,16.442,81.904,24.843,125.336,24.843
		c43.154,0,85.04-8.353,124.723-24.637c6.075,13.312,11.779,27.116,17.091,41.331c-83.984,27.781-152.856,87.8-191.934,167.228
		C50.115,385.597,21.908,322.918,21.908,256.008z"/>
	<path style="fill:#EA86A5;" d="M117.129,444.273c36.152-76.61,101.729-134.566,182.003-160.937
		c20.996,62.539,32.029,127.667,32.842,193.865c-24.777,8.557-50.303,12.894-75.979,12.894
		C205.472,490.095,157.645,474.281,117.129,444.273z"/>
	<path style="fill:#EA86A5;" d="M353.578,468.604c-1.621-65.221-12.848-129.365-33.456-191.104
		c55.286-13.918,113.685-12.181,167.95,4.957C478.873,365.787,428.472,435.4,353.578,468.604z"/>
</g>
<g>
</g>
<g>
</g>
<g>
</g>
<g>
</g>
<g>
</g>
<g>
</g>
<g>
</g>
<g>
</g>
<g>
</g>
<g>
</g>
<g>
</g>
<g>
</g>
<g>
</g>
<g>
</g>
<g>
</g>
</svg>
