<?xml version="1.0" encoding="iso-8859-1"?>
<!-- Generator: Adobe Illustrator 19.0.0, SVG Export Plug-In . SVG Version: 6.00 Build 0)  -->
<svg version="1.1" id="Layer_1" xmlns="http://www.w3.org/2000/svg" xmlns:xlink="http://www.w3.org/1999/xlink" x="0px" y="0px"
	 viewBox="0 0 512 512" style="enable-background:new 0 0 512 512;" xml:space="preserve">
<path style="fill:#314E55;" d="M510.697,343.099c-1.73-2.991-4.92-4.83-8.374-4.83l-317.797,0.057c-3.483,0-6.697,1.871-8.417,4.901
	l-65.927,118.484l-4.027,7.018c-1.749,3.048-1.711,6.805,0.104,9.811c1.815,3.006,5.161,4.844,8.63,4.679l315.315,0.232
	c3.478,0,6.687-1.867,8.407-4.887l72.104-125.8C512.436,349.772,512.426,346.086,510.697,343.099z"/>
<polygon style="fill:#81A4E3;" points="424.59,464.088 131.245,463.663 190.192,357.683 485.611,357.627 "/>
<path style="fill:#314E55;" d="M346.404,311.771l1.333,2.306c1.73,2.991,4.925,4.835,8.379,4.835c0.009,0,0.024,0,0.033,0
	l2.703-0.009l133.206,0.01l8.119-0.033c3.455-0.014,6.645-1.871,8.36-4.868c1.716-2.996,1.706-6.682-0.028-9.674L349.646,33.342
	c-1.739-2.968-4.92-4.792-8.355-4.792l-145.337,0.581c-3.455,0.019-6.635,1.881-8.346,4.877c-1.716,3.001-1.701,6.687,0.038,9.669
	L346.404,311.771z"/>
<polygon style="fill:#DBCF56;" points="335.747,47.916 483.3,299.554 361.659,299.545 212.872,48.408 "/>
<path style="fill:#314E55;" d="M238.69,193.844c1.753-3.025,1.739-6.763-0.038-9.773L176.799,63.167l-4.083-6.99
	c-1.734-2.977-4.579-4.721-8.374-4.797c-3.445,0.005-6.63,1.843-8.355,4.825L2.662,326.157l-1.361,2.354
	c-1.739,3.006-1.734,6.716,0.014,9.716l73.153,125.262c1.734,2.972,4.92,4.801,8.36,4.801c0.005,0,0.014,0,0.019,0
	c3.45-0.005,6.635-1.848,8.36-4.835l146.112-267.248L238.69,193.844z"/>
<polygon style="fill:#5ECB66;" points="82.663,439.13 20.857,333.312 164.138,80.908 219.248,188.915 "/>
<g>
</g>
<g>
</g>
<g>
</g>
<g>
</g>
<g>
</g>
<g>
</g>
<g>
</g>
<g>
</g>
<g>
</g>
<g>
</g>
<g>
</g>
<g>
</g>
<g>
</g>
<g>
</g>
<g>
</g>
</svg>
