<?xml version="1.0" encoding="iso-8859-1"?>
<!-- Generator: Adobe Illustrator 19.0.0, SVG Export Plug-In . SVG Version: 6.00 Build 0)  -->
<svg version="1.1" id="Layer_1" xmlns="http://www.w3.org/2000/svg" xmlns:xlink="http://www.w3.org/1999/xlink" x="0px" y="0px"
	 viewBox="0 0 512 512" style="enable-background:new 0 0 512 512;" xml:space="preserve">
<g>
	<path style="fill:#314E55;" d="M417.485,196.65l94.389-78.243L354.163,18.171l-96.767,80.725l-94.689-80.803L0.469,123.211
		l101.293,76.647L0,276.879l162.615,95.811l94.715-72.291l94.711,72.317L512,277.236L417.485,196.65z M256.248,274.497
		l-120.97-75.812l122.461-73.599l120.609,68.926L256.248,274.497z"/>
	<polygon style="fill:#314E55;" points="257.33,312.407 161.919,385.228 107.106,352.926 107.106,395.01 255.974,493.908 
		408.155,395.714 408.155,352.126 352.702,385.228 	"/>
</g>
<g>
	<polygon style="fill:#81A4E3;" points="390.347,386.011 256.113,472.622 124.913,385.463 124.913,384.089 163.189,406.635 
		257.33,334.805 351.502,406.688 390.347,383.498 	"/>
	<polygon style="fill:#81A4E3;" points="481.55,274.679 353.267,351.239 269.36,287.183 397.304,202.845 	"/>
	<polygon style="fill:#81A4E3;" points="355.589,40.178 481.676,120.311 401.525,186.746 269.995,111.577 	"/>
	<polygon style="fill:#81A4E3;" points="31.476,124.341 161.246,40.256 245.162,111.868 116.879,188.967 	"/>
	<polygon style="fill:#81A4E3;" points="118.744,209.34 244.244,287.991 161.337,351.265 31.946,275.036 	"/>
</g>
<g>
</g>
<g>
</g>
<g>
</g>
<g>
</g>
<g>
</g>
<g>
</g>
<g>
</g>
<g>
</g>
<g>
</g>
<g>
</g>
<g>
</g>
<g>
</g>
<g>
</g>
<g>
</g>
<g>
</g>
</svg>
