<?xml version="1.0" encoding="iso-8859-1"?>
<!-- Generator: Adobe Illustrator 19.0.0, SVG Export Plug-In . SVG Version: 6.00 Build 0)  -->
<svg version="1.1" id="Layer_1" xmlns="http://www.w3.org/2000/svg" xmlns:xlink="http://www.w3.org/1999/xlink" x="0px" y="0px"
	 viewBox="0 0 512 512" style="enable-background:new 0 0 512 512;" xml:space="preserve">
<path style="fill:#314E55;" d="M256,0C114.846,0,0,114.841,0,256c0,141.154,114.846,256,256,256s256-114.846,256-256
	C512,114.841,397.154,0,256,0z"/>
<path style="fill:#D8D8D8;" d="M256,493.382C125.109,493.382,18.618,386.891,18.618,256S125.109,18.618,256,18.618
	S493.382,125.109,493.382,256S386.891,493.382,256,493.382z"/>
<path style="fill:#314E55;" d="M399.454,260.418c-5.009-0.864-9.918,2.4-10.864,7.445
	c-12.327,65.946-70.045,113.809-137.245,113.809c-69.736,0-129.246-52.046-138.418-121.064c-0.673-5.1-5.327-8.655-10.455-8
	c-5.1,0.673-8.682,5.355-8,10.455c10.4,78.236,77.837,137.227,156.873,137.227c76.164,0,141.582-54.255,155.554-129.009
	C407.836,266.227,404.509,261.364,399.454,260.418z"/>
<g>
</g>
<g>
</g>
<g>
</g>
<g>
</g>
<g>
</g>
<g>
</g>
<g>
</g>
<g>
</g>
<g>
</g>
<g>
</g>
<g>
</g>
<g>
</g>
<g>
</g>
<g>
</g>
<g>
</g>
</svg>
