<?xml version="1.0" encoding="iso-8859-1"?>
<!-- Generator: Adobe Illustrator 19.0.0, SVG Export Plug-In . SVG Version: 6.00 Build 0)  -->
<svg version="1.1" id="Layer_1" xmlns="http://www.w3.org/2000/svg" xmlns:xlink="http://www.w3.org/1999/xlink" x="0px" y="0px"
	 viewBox="0 0 512 512" style="enable-background:new 0 0 512 512;" xml:space="preserve">
<path style="fill:#314E55;" d="M232.9,100.028c-2.864-3.059-7.292-4.043-11.205-2.534c-4.398,1.724-108.351,43.2-163.605,132.07
	c-56.539,90.933,2.219,204.941,4.748,209.759c1.774,3.368,5.268,5.467,9.061,5.467c0.075,0,0.155,0,0.235,0
	c3.883-0.09,7.382-2.369,9.031-5.887l153.53-327.535C236.473,107.575,235.763,103.082,232.9,100.028z"/>
<path style="fill:#5ECB66;" d="M72.228,409.737c-13.464-35.044-34.054-109.37,3.244-169.368
	c35.698-57.409,95.091-94.457,128.636-111.974L72.228,409.737z"/>
<path style="fill:#314E55;" d="M472.8,45.658c-0.965-11.875-1.724-21.255-1.724-25.633c0-13.814-8.766-18.067-12.534-19.251
	c-32.39-10.25-131.745,83.237-190.323,166.914C197.151,269.211,89.72,453.137,88.646,454.986
	c-2.694,4.618-1.379,10.535,3.019,13.574c0.905,0.63,64.141,43.44,146.808,43.44c36.738,0,77.33-8.466,117.966-32.845
	c57.179-34.304,99.989-111.629,114.523-206.815C484.165,185.844,476.488,91.157,472.8,45.658z"/>
<path style="fill:#5ECB66;" d="M450.72,269.241c-13.619,89.239-52.806,161.156-104.817,192.362
	c-102.638,61.572-205.441,11.765-234.513-4.928c22.115-37.603,111.809-188.984,173.601-277.253
	c68.464-97.8,147.927-156.463,165.614-159.067c0.03,5.262,0.775,14.403,1.789,26.958C456.023,92.042,463.569,185.115,450.72,269.241
	z"/>
<g>
</g>
<g>
</g>
<g>
</g>
<g>
</g>
<g>
</g>
<g>
</g>
<g>
</g>
<g>
</g>
<g>
</g>
<g>
</g>
<g>
</g>
<g>
</g>
<g>
</g>
<g>
</g>
<g>
</g>
</svg>
