<?xml version="1.0" encoding="iso-8859-1"?>
<!-- Generator: Adobe Illustrator 19.0.0, SVG Export Plug-In . SVG Version: 6.00 Build 0)  -->
<svg version="1.1" id="Layer_1" xmlns="http://www.w3.org/2000/svg" xmlns:xlink="http://www.w3.org/1999/xlink" x="0px" y="0px"
	 viewBox="0 0 512 512" style="enable-background:new 0 0 512 512;" xml:space="preserve">
<path style="fill:#314E55;" d="M359.137,91.523h50.103V0.056h-91.045c-7.592-0.319-100.175-2.088-124.174,89.42
	c-0.35,0.962-8.014,22.719-8.014,73.557l-83.248,0.247v95.937l83.356-0.247V512h127.323V259.186h84.271v-96.183h-84.271v-30.264
	C313.437,113.934,321.364,91.523,359.137,91.523z"/>
<path style="fill:#81A4E3;" d="M376.641,184.07v54.048H292.37v252.814h-85.187V237.841l-83.356,0.247v-53.801l83.572-0.247
	l-0.216-10.714c-1.091-53.847,6.584-76.499,6.928-77.58c20.708-78.819,99.784-74.848,103.179-74.642l70.883,0.021v49.331h-29.035
	c-49.228,0-66.768,32.173-66.768,62.283v51.332H376.641z"/>
<g>
</g>
<g>
</g>
<g>
</g>
<g>
</g>
<g>
</g>
<g>
</g>
<g>
</g>
<g>
</g>
<g>
</g>
<g>
</g>
<g>
</g>
<g>
</g>
<g>
</g>
<g>
</g>
<g>
</g>
</svg>
