<?xml version="1.0" encoding="iso-8859-1"?>
<!-- Generator: Adobe Illustrator 19.0.0, SVG Export Plug-In . SVG Version: 6.00 Build 0)  -->
<svg version="1.1" id="Layer_1" xmlns="http://www.w3.org/2000/svg" xmlns:xlink="http://www.w3.org/1999/xlink" x="0px" y="0px"
	 viewBox="0 0 512 512" style="enable-background:new 0 0 512 512;" xml:space="preserve">
<path style="fill:#314E55;" d="M256,0C114.836,0,0,114.841,0,256s114.836,256,256,256s256-114.841,256-256S397.164,0,256,0z"/>
<path style="fill:#D8D8D8;" d="M256,492.308c-130.298,0-236.308-106.01-236.308-236.308S125.702,19.692,256,19.692
	S492.308,125.702,492.308,256S386.298,492.308,256,492.308z"/>
<path style="fill:#314E55;" d="M344.615,177.231c-43.433,0-78.769,35.337-78.769,78.769s35.337,78.769,78.769,78.769
	s78.769-35.337,78.769-78.769S388.048,177.231,344.615,177.231z"/>
<path style="fill:#EA86A5;" d="M344.615,315.077c-32.577,0-59.077-26.5-59.077-59.077s26.5-59.077,59.077-59.077
	s59.077,26.5,59.077,59.077S377.192,315.077,344.615,315.077z"/>
<path style="fill:#314E55;" d="M157.538,177.231c-43.433,0-78.769,35.337-78.769,78.769s35.337,78.769,78.769,78.769
	s78.769-35.337,78.769-78.769S200.971,177.231,157.538,177.231z"/>
<path style="fill:#FFFFFF;" d="M157.538,315.077c-32.577,0-59.077-26.5-59.077-59.077s26.5-59.077,59.077-59.077
	s59.077,26.5,59.077,59.077S190.115,315.077,157.538,315.077z"/>
<g>
</g>
<g>
</g>
<g>
</g>
<g>
</g>
<g>
</g>
<g>
</g>
<g>
</g>
<g>
</g>
<g>
</g>
<g>
</g>
<g>
</g>
<g>
</g>
<g>
</g>
<g>
</g>
<g>
</g>
</svg>
