<?xml version="1.0" encoding="iso-8859-1"?>
<!-- Generator: Adobe Illustrator 19.0.0, SVG Export Plug-In . SVG Version: 6.00 Build 0)  -->
<svg version="1.1" id="Layer_1" xmlns="http://www.w3.org/2000/svg" xmlns:xlink="http://www.w3.org/1999/xlink" x="0px" y="0px"
	 viewBox="0 0 512 512" style="enable-background:new 0 0 512 512;" xml:space="preserve">
<path style="fill:#314E55;" d="M428.499,399.176L268.079,6.158c-1.513-3.702-5.104-6.134-9.102-6.158c-0.019,0-0.044,0-0.063,0
	c-3.973,0-7.569,2.378-9.116,6.042L83.55,399.06c-1.295,3.06-0.967,6.559,0.865,9.324c1.832,2.77,4.93,4.432,8.251,4.432h118.789
	v89.285c0,2.629,1.049,5.152,2.91,7.009c1.856,1.851,4.369,2.891,6.989,2.891c0.01,0,0.019,0,0.029,0l70.009-0.193
	c5.457-0.015,9.87-4.442,9.87-9.899v-89.091h118.073c3.296,0,6.375-1.643,8.217-4.379
	C429.388,405.701,429.746,402.231,428.499,399.176z"/>
<g>
	<polygon style="fill:#5ECB66;" points="231.252,492.173 231.252,407.867 231.252,402.917 231.252,284.129 280.748,284.129 
		280.748,407.867 281.463,407.867 281.463,492.038 	"/>
	<path style="fill:#5ECB66;" d="M300.546,393.018V369.44l53.923-26.961l-8.855-17.71l-45.068,22.534v-27.358l34.125-17.062
		l-8.855-17.71l-25.27,12.635V274.23c0-5.467-4.432-9.899-9.899-9.899h-69.293c-5.467,0-9.899,4.432-9.899,9.899v41.91
		l-34.502-20.701l-10.189,16.975l44.691,26.815v53.789H107.601L258.75,35.695l145.851,357.323H300.546z"/>
</g>
<g>
</g>
<g>
</g>
<g>
</g>
<g>
</g>
<g>
</g>
<g>
</g>
<g>
</g>
<g>
</g>
<g>
</g>
<g>
</g>
<g>
</g>
<g>
</g>
<g>
</g>
<g>
</g>
<g>
</g>
</svg>
