<?xml version="1.0" encoding="iso-8859-1"?>
<!-- Generator: Adobe Illustrator 19.0.0, SVG Export Plug-In . SVG Version: 6.00 Build 0)  -->
<svg version="1.1" id="Layer_1" xmlns="http://www.w3.org/2000/svg" xmlns:xlink="http://www.w3.org/1999/xlink" x="0px" y="0px"
	 viewBox="0 0 512 512" style="enable-background:new 0 0 512 512;" xml:space="preserve">
<path style="fill:#314E55;" d="M256,0C114.846,0,0,114.846,0,256s114.846,256,256,256s256-114.846,256-256S397.154,0,256,0z"/>
<path style="fill:#D8D8D8;" d="M256,493.382C125.109,493.382,18.618,386.891,18.618,256S125.109,18.618,256,18.618
	S493.382,125.109,493.382,256S386.891,493.382,256,493.382z"/>
<path style="fill:#314E55;" d="M256,46.545C140.509,46.545,46.545,140.509,46.545,256c0,40.291,13.154,53.046,23.045,59.127
	c10.564,6.5,20.746,9.764,30.418,9.764c5.046,0,9.945-0.891,14.7-2.664c30.218-11.291,44.118-55.609,52.427-82.091
	c1.718-5.473,3.146-10.091,4.418-13.264c8.045-20.118,9.609-76.936,9.9-100.682c16.9,2.6,59.118,15.773,118.918,80.282
	c24.036,25.936,41.246,46.018,55.073,62.164c34.491,40.264,46.073,53.809,74.745,47.664c13.127-2.846,24.218-13.745,32.964-32.409
	l0.636-1.364l0.182-1.491c0.982-8.246,1.482-16.673,1.482-25.037C465.455,140.509,371.491,46.545,256,46.545z"/>
<path style="fill:#C59981;" d="M445.655,277.327c-4.273,8.754-10.936,18.945-19.4,20.773c-16.782,3.636-22.164-1.291-56.673-41.582
	c-13.927-16.264-31.264-36.5-55.555-62.7c-86.064-92.845-140.755-86.982-143-86.691l-8.118,1.054v8.182
	c0,22.809-1.555,85.873-8.645,103.6c-1.391,3.482-3,8.564-4.9,14.609c-6.809,21.7-19.482,62.109-41.173,70.218
	c-8.336,3.082-17.764,1.309-28.836-5.518c-3.882-2.391-14.191-8.727-14.191-43.273c0-105.227,85.609-190.836,190.836-190.836
	S446.836,150.773,446.836,256C446.836,263.118,446.436,270.291,445.655,277.327z"/>
<g>
</g>
<g>
</g>
<g>
</g>
<g>
</g>
<g>
</g>
<g>
</g>
<g>
</g>
<g>
</g>
<g>
</g>
<g>
</g>
<g>
</g>
<g>
</g>
<g>
</g>
<g>
</g>
<g>
</g>
</svg>
