<?xml version="1.0" encoding="iso-8859-1"?>
<!-- Generator: Adobe Illustrator 19.0.0, SVG Export Plug-In . SVG Version: 6.00 Build 0)  -->
<svg version="1.1" id="Layer_1" xmlns="http://www.w3.org/2000/svg" xmlns:xlink="http://www.w3.org/1999/xlink" x="0px" y="0px"
	 viewBox="0 0 512 512" style="enable-background:new 0 0 512 512;" xml:space="preserve">
<path style="fill:#314E55;" d="M495.338,372.289l-7.253-37.725c-2.402-12.468-9.436-22.708-19.813-28.828
	c-10.404-6.147-22.818-7.344-34.921-3.416l-144.57,46.978L193.537,36.179c-4.43-14.542-14.085-25.841-27.211-31.806
	c-13.108-5.965-27.979-5.828-41.836,0.411L51.013,37.76C23.144,50.264,8.858,83.888,19.161,112.698l129.197,361.129
	c8.34,23.329,30.81,38.173,54.496,38.173c5.8,0,11.674-0.886,17.419-2.759l240.217-78.054
	C484.45,423.405,500.079,396.98,495.338,372.289z"/>
<path style="fill:#81A4E3;" d="M454.717,413.394l-240.217,78.054c-19.776,6.394-41.525-4.321-48.531-23.923L36.772,106.395
	c-7.088-19.831,2.731-42.968,21.895-51.573l73.477-32.975c4.622-2.073,9.381-3.115,14.021-3.115c4.302,0,8.504,0.886,12.423,2.667
	c8.157,3.718,14.213,10.897,17.045,20.224l98.021,322.235c0.731,2.402,2.402,4.412,4.631,5.572c2.21,1.151,4.814,1.361,7.207,0.603
	l153.641-49.92c6.961-2.265,13.921-1.644,19.63,1.726c5.691,3.361,9.582,9.134,10.943,16.25l7.253,37.725
	C479.938,391.298,469.753,408.507,454.717,413.394z"/>
<g>
</g>
<g>
</g>
<g>
</g>
<g>
</g>
<g>
</g>
<g>
</g>
<g>
</g>
<g>
</g>
<g>
</g>
<g>
</g>
<g>
</g>
<g>
</g>
<g>
</g>
<g>
</g>
<g>
</g>
</svg>
