<?xml version="1.0" encoding="iso-8859-1"?>
<!-- Generator: Adobe Illustrator 19.0.0, SVG Export Plug-In . SVG Version: 6.00 Build 0)  -->
<svg version="1.1" id="Layer_1" xmlns="http://www.w3.org/2000/svg" xmlns:xlink="http://www.w3.org/1999/xlink" x="0px" y="0px"
	 viewBox="0 0 512 512" style="enable-background:new 0 0 512 512;" xml:space="preserve">
<path style="fill:#314E55;" d="M75.034,180.966C33.664,180.966,0,214.625,0,256s33.664,75.034,75.034,75.034
	s75.034-33.66,75.034-75.034S116.405,180.966,75.034,180.966z"/>
<path style="fill:#81A4E3;" d="M75.034,313.379c-31.638,0-57.379-25.741-57.379-57.379s25.741-57.379,57.379-57.379
	s57.379,25.741,57.379,57.379S106.672,313.379,75.034,313.379z"/>
<path style="fill:#314E55;" d="M291.31,198.621c-34.069,0-61.793,27.72-61.793,61.793s27.724,61.793,61.793,61.793
	s61.793-27.72,61.793-61.793S325.379,198.621,291.31,198.621z"/>
<path style="fill:#81A4E3;" d="M291.31,304.552c-24.336,0-44.138-19.802-44.138-44.138s19.802-44.138,44.138-44.138
	c24.336,0,44.138,19.802,44.138,44.138S315.646,304.552,291.31,304.552z"/>
<path style="fill:#314E55;" d="M467.862,216.276c-24.336,0-44.138,19.802-44.138,44.138s19.802,44.138,44.138,44.138
	c24.336,0,44.138-19.802,44.138-44.138S492.198,216.276,467.862,216.276z"/>
<path style="fill:#81A4E3;" d="M467.862,286.897c-14.603,0-26.483-11.879-26.483-26.483c0-14.603,11.879-26.483,26.483-26.483
	s26.483,11.879,26.483,26.483C494.345,275.017,482.466,286.897,467.862,286.897z"/>
<g>
</g>
<g>
</g>
<g>
</g>
<g>
</g>
<g>
</g>
<g>
</g>
<g>
</g>
<g>
</g>
<g>
</g>
<g>
</g>
<g>
</g>
<g>
</g>
<g>
</g>
<g>
</g>
<g>
</g>
</svg>
