<?xml version="1.0" encoding="iso-8859-1"?>
<!-- Generator: Adobe Illustrator 19.0.0, SVG Export Plug-In . SVG Version: 6.00 Build 0)  -->
<svg version="1.1" id="Layer_1" xmlns="http://www.w3.org/2000/svg" xmlns:xlink="http://www.w3.org/1999/xlink" x="0px" y="0px"
	 viewBox="0 0 512 512" style="enable-background:new 0 0 512 512;" xml:space="preserve">
<path style="fill:#314E55;" d="M256,0C114.845,0,0,114.84,0,256s114.845,256,256,256s256-114.841,256-256S397.155,0,256,0z"/>
<path style="fill:#E65F58;" d="M256,494.345C124.578,494.345,17.655,387.422,17.655,256S124.578,17.655,256,17.655
	S494.345,124.578,494.345,256S387.422,494.345,256,494.345z"/>
<path style="fill:#314E55;" d="M388.362,169.509c0.026-26.241,0.052-51.03-0.388-75.491c-0.138-7.155-4.578-11.698-11.595-11.853
	c-4.216-0.129-8.414,0.177-12.621,0.474l-2.147,0.147c-22.879,1.5-45.259,3.116-67.595,6.379
	c-40.362,5.897-76.241,15.25-109.707,28.603c-4.216,1.69-6.828,5.095-7.353,9.569c-0.371,3.129-0.388,6.254-0.388,9.595
	c-0.017,59.862-0.034,119.724,0.017,179.789c-19.836-3.763-38.423,0.487-55.414,12.647c-10.388,7.431-17.5,16.849-21.138,27.974
	c-5.733,17.457-3.138,33.09,7.698,46.47c5.336,6.578,12.284,9.94,18.379,12.569c9.724,4.198,19.362,6.297,28.871,6.297
	c14.285,0,28.276-4.733,41.828-14.177c15.052-10.483,23.233-25.651,23.664-43.866c0.207-8.715,0.216-17.427,0.224-26.142
	l0.017-7.487c0.043-13.711,0-27.422-0.034-41.134c-0.078-24.914-0.155-50.672,0.319-76.039c0-0.151,0.009-0.298,0.009-0.44
	c0.138-0.039,0.284-0.082,0.44-0.125c26.164-7.629,52.448-13.612,78.112-17.78c17.121-2.78,31.465-4.453,44.595-5.185
	c-0.052,30.241-0.06,60.474,0.009,90.711c-3.052-0.616-6.31-1.065-9.724-1.164c-23.034-0.677-41.647,7.06-55.871,22.948
	c-10.741,12.004-15.259,26.19-13.06,41.022c2.681,18.177,13.604,31.116,32.448,38.457c19.698,7.672,39.836,5.828,59.879-5.509
	v-0.004c20.009-11.319,30.578-29.349,30.578-52.138V221.496C388.328,202.996,388.345,185.836,388.362,169.509z"/>
<path style="fill:#FFFFFF;" d="M370.759,324.625c0,16.513-7.069,28.543-21.612,36.776c-15.414,8.707-30.052,10.172-44.776,4.427
	c-12.862-5.009-19.655-12.823-21.397-24.591c-1.44-9.75,1.422-18.47,8.75-26.664c10.741-12.004,24.474-17.608,42.198-17.078
	c4.802,0.142,9.604,1.392,13.664,2.595c1.474,0.435,5.965,1.767,10.086-1.297c1.905-1.422,4.172-4.19,4.172-9.319
	c-0.104-35.155-0.095-70.306-0.017-105.444c0.017-3.625-1.086-6.534-3.276-8.659c-2.181-2.108-5.164-3.03-8.664-2.996
	c-15.586,0.521-32.474,2.328-53.155,5.685c-26.379,4.284-53.371,10.427-80.302,18.28c-10.319,3-12.888,6.371-13.086,17.246
	c-0.474,25.474-0.397,51.332-0.319,76.336c0.034,13.677,0.078,27.349,0.034,41.026l-0.017,7.522
	c-0.009,8.582-0.017,17.16-0.224,25.746c-0.293,12.535-5.707,22.565-16.095,29.802c-17.474,12.168-35.017,14.185-53.612,6.155
	c-5.457-2.358-9.112-4.336-11.655-7.483c-7.017-8.651-8.491-18.134-4.647-29.853c2.483-7.591,7.276-13.841,14.638-19.112
	c9.957-7.125,20.336-10.664,31.397-10.664c5.543,0,11.25,0.884,17.164,2.651c1.491,0.448,6.06,1.802,10.147-1.241
	c4.095-3.056,4.095-7.832,4.095-9.41c-0.06-62.707-0.043-125.414-0.026-188.337c0-1.302-0.009-2.599,0.034-3.901
	c31.19-12.121,64.707-20.698,102.31-26.19c21.69-3.168,43.69-4.754,66.207-6.233l2.207-0.151c1.81-0.125,3.621-0.254,5.431-0.345
	c0.336,22.5,0.319,45.422,0.293,69.586c-0.017,16.358-0.034,33.552,0.052,52.047L370.759,324.625L370.759,324.625z"/>
<g>
</g>
<g>
</g>
<g>
</g>
<g>
</g>
<g>
</g>
<g>
</g>
<g>
</g>
<g>
</g>
<g>
</g>
<g>
</g>
<g>
</g>
<g>
</g>
<g>
</g>
<g>
</g>
<g>
</g>
</svg>
