<?xml version="1.0" encoding="iso-8859-1"?>
<!-- Generator: Adobe Illustrator 19.0.0, SVG Export Plug-In . SVG Version: 6.00 Build 0)  -->
<svg version="1.1" id="Layer_1" xmlns="http://www.w3.org/2000/svg" xmlns:xlink="http://www.w3.org/1999/xlink" x="0px" y="0px"
	 viewBox="0 0 512 512" style="enable-background:new 0 0 512 512;" xml:space="preserve">
<path style="fill:#314E55;" d="M464.397,45.287L318.111,0.403c-2.013-0.616-4.183-0.527-6.129,0.277L46.84,108.563
	c-3.442,1.393-5.696,4.741-5.696,8.464v286.589c0,3.813,2.366,7.223,5.938,8.562l265.142,99.241c1.031,0.384,2.116,0.58,3.205,0.58
	c0.732,0,1.464-0.089,2.178-0.268l146.285-35.911c4.089-1,6.964-4.661,6.964-8.875V54.028
	C470.857,50.01,468.236,46.465,464.397,45.287z M297.143,428.196l-195.611-30.089l34.643-14.848c3.362-1.438,5.54-4.741,5.54-8.402
	v-248.58l155.428-32.723V428.196z"/>
<path style="fill:#E65F58;" d="M452.571,459.777l-136.58,33.527L117.73,419.098l187.168,28.795c0.46,0.071,0.924,0.107,1.388,0.107
	c2.17,0,4.286-0.768,5.955-2.205c2.022-1.732,3.187-4.268,3.187-6.938V82.287c0-2.759-1.241-5.366-3.384-7.098
	c-2.138-1.75-4.955-2.411-7.643-1.848l-173.714,36.571c-4.232,0.893-7.259,4.625-7.259,8.946v249.973l-58.46,25.053
	c-1.871,0.801-3.362,2.173-4.324,3.848l-1.216-0.455V123.179L315.857,18.84l136.714,41.946V459.777z"/>
<g>
</g>
<g>
</g>
<g>
</g>
<g>
</g>
<g>
</g>
<g>
</g>
<g>
</g>
<g>
</g>
<g>
</g>
<g>
</g>
<g>
</g>
<g>
</g>
<g>
</g>
<g>
</g>
<g>
</g>
</svg>
