<?xml version="1.0" encoding="iso-8859-1"?>
<!-- Generator: Adobe Illustrator 19.0.0, SVG Export Plug-In . SVG Version: 6.00 Build 0)  -->
<svg version="1.1" id="Layer_1" xmlns="http://www.w3.org/2000/svg" xmlns:xlink="http://www.w3.org/1999/xlink" x="0px" y="0px"
	 viewBox="0 0 512 512" style="enable-background:new 0 0 512 512;" xml:space="preserve">
<path style="fill:#314E55;" d="M429.152,163.149c-0.356-0.277-0.782-0.359-1.162-0.577c0.546-5.141,0.857-10.35,0.857-15.633
	C428.846,65.915,362.922,0,281.889,0h-175.36c-4.721,0-8.73,3.481-9.387,8.156L35.845,444.279c-0.38,2.722,0.435,5.471,2.231,7.545
	c1.805,2.074,4.416,3.259,7.156,3.259h97.893c-4.023,26.256-7.921,45.314-7.963,45.53c-0.574,2.787,0.139,5.693,1.935,7.897
	c1.805,2.213,4.499,3.49,7.351,3.49h97.836c4.712,0,8.712-3.462,9.387-8.128l17.803-123.619h82.172
	c68.702,0,124.6-54.584,124.6-121.674C476.246,221.186,459.082,186.405,429.152,163.149z"/>
<path style="fill:#81A4E3;" d="M114.768,18.96h167.121c70.581,0,127.998,57.407,127.998,128.007
	c0,70.553-57.417,127.951-127.998,127.951H176.906c-4.721,0-8.73,3.481-9.387,8.165l-21.506,153.04H56.138L114.768,18.96z"/>
<path style="fill:#FFFFFF;" d="M351.646,361.293h-90.383c-4.712,0-8.712,3.462-9.387,8.128L234.073,493.04h-78.145
	c1.889-10.119,4.703-26.162,7.388-44.752c0.016-0.114-0.031-0.217-0.019-0.33c0.093-0.355,0.291-0.66,0.343-1.03l21.506-153.049
	h96.743c68.299,0,125.695-46.887,142.101-110.122c21.192,19.393,33.296,46.168,33.296,74.822
	C457.286,315.217,409.896,361.293,351.646,361.293z"/>
<g>
</g>
<g>
</g>
<g>
</g>
<g>
</g>
<g>
</g>
<g>
</g>
<g>
</g>
<g>
</g>
<g>
</g>
<g>
</g>
<g>
</g>
<g>
</g>
<g>
</g>
<g>
</g>
<g>
</g>
</svg>
