<?xml version="1.0" encoding="iso-8859-1"?>
<!-- Generator: Adobe Illustrator 19.0.0, SVG Export Plug-In . SVG Version: 6.00 Build 0)  -->
<svg version="1.1" id="Layer_1" xmlns="http://www.w3.org/2000/svg" xmlns:xlink="http://www.w3.org/1999/xlink" x="0px" y="0px"
	 viewBox="0 0 511.999 511.999" style="enable-background:new 0 0 511.999 511.999;" xml:space="preserve">
<path style="fill:#314E55;" d="M450.232,127.481c-7.758-26.211-20.223-48.279-38.112-67.454
	c-17.491-18.757-37.614-32.982-61.536-43.487C323.34,4.603,291.759-1.196,261.585,0.206c-11.009,0.504-21.758,1.082-32.299,2.608
	c-29.696,4.248-55.842,13.098-79.934,27.063c-30.743,17.835-54.745,42.101-71.338,72.126c-8.616,15.626-17.102,43.178-20.712,61.167
	c-4.268,21.215-0.509,58.011,8.057,78.762c10.7,25.867,19.505,37.329,40.974,53.329c0.13,0.095,13.402,9.653,22.247,9.508
	c16.105-0.309,19.305-15.711,20.841-23.115c0.289-1.396,0.568-2.782,0.908-4.079c0.299-1.147,0.688-2.373,1.077-3.65
	c2.274-7.354,5.375-17.421,0.229-26.346c-1.935-3.345-4.218-5.948-6.232-8.237c-1.097-1.247-2.194-2.448-3.081-3.774
	c-7.638-11.343-11.507-25.538-11.507-42.186c0-21.843,4.946-41.627,15.117-60.479c18.458-34.193,49.091-55.777,88.6-62.429
	c22.486-3.764,48.682-2.189,68.347,4.108c17.959,5.759,33.246,15.945,44.215,29.472c11.607,14.315,18.248,32.473,19.714,53.977
	c0.957,13.726-0.289,27.547-1.316,36.731c-3.969,35.34-14.26,63.79-30.574,84.571c-13.362,17.052-27.772,25.603-44.065,26.151
	c-10.49,0.409-18.328-1.735-25.418-6.811c-6.691-4.771-10.67-10.65-12.545-18.483c-2.124-8.945,0.439-18.219,3.161-28.036
	l0.439-1.57c2.383-8.641,4.866-16.533,7.309-24.301c3.839-12.24,7.818-24.9,11.099-39.578c3.709-16.573,4.198-29.955,1.516-40.9
	c-3.311-13.582-10.61-23.753-21.699-30.245c-11.737-6.846-28.36-8.162-42.31-3.356c-20.801,7.1-36.666,25.987-43.537,51.819
	c-3.48,13.123-4.497,26.894-2.992,40.909c1.157,10.989,3.61,20.971,8.157,33.032c-0.15,0.524-0.319,1.072-0.479,1.605
	c-0.329,1.077-0.628,2.114-0.848,3.006c-4.896,20.417-9.653,40.555-14.399,60.659c-4.507,19.086-9.014,38.142-13.621,57.388
	l-1.037,4.313c-4.717,19.609-9.583,39.887-10.71,64.094l-0.509,10.111c-0.997,18.807-2.014,38.257,0.509,56.251
	c0.499,3.51,1.605,11.383,9.354,14.135c2.313,1.74,4.547,2.468,6.711,2.468c6.482,0,12.255-6.586,17.162-12.171
	c16.025-18.219,29.646-41.219,41.652-70.306c5.375-13.008,8.935-27.004,12.375-40.545l2.074-8.067
	c2.513-9.643,4.976-19.415,7.409-29.083l0.16-0.643c4.527,3.959,9.752,7.534,15.805,10.849c12.814,7.095,27.273,11.228,42.959,12.28
	c14.708,0.997,30.185-0.888,47.266-5.789c12.973-3.7,25.398-9.319,36.936-16.708c41.393-26.505,69.613-72.874,79.456-130.556
	c2.952-17.236,4.208-31.092,4.208-46.329C456.464,157.352,454.37,141.382,450.232,127.481z"/>
<path style="fill:#E65F58;" d="M432.133,217.821c-8.875,51.953-33.854,93.431-70.341,116.795
	c-9.862,6.317-20.472,11.114-31.551,14.275c-14.768,4.243-27.961,5.893-40.256,5.051c-12.874-0.867-24.142-4.064-34.502-9.802
	c-10.361-5.669-17.082-11.827-21.799-19.959l-12.524-21.624l-11.288,44.285c-2.423,9.613-4.866,19.325-7.369,28.918l-2.094,8.187
	c-3.42,13.432-6.641,26.121-11.468,37.778c-10.75,26.061-22.756,46.673-36.647,62.927c-1.087-13.836-0.269-29.352,0.529-44.434
	l0.518-10.231c1.027-22.277,5.674-41.593,10.161-60.27l1.047-4.338c4.607-19.261,9.114-38.342,13.631-57.443
	c4.746-20.083,9.493-40.196,14.379-60.569c0.14-0.573,0.349-1.247,0.559-1.95c1.227-4.118,2.503-8.371,0.778-12.694
	c-4.378-11.223-6.691-20.173-7.718-29.94c-1.227-11.537-0.419-22.81,2.433-33.51c5.086-19.121,16.164-32.877,30.414-37.744
	c3.53-1.212,7.23-1.73,10.78-1.73c5.794,0,11.159,1.386,14.609,3.4c6.203,3.63,10.181,9.334,12.156,17.461
	c1.895,7.723,1.356,18.353-1.595,31.591c-3.101,13.836-6.771,25.533-10.66,37.918c-2.513,7.983-5.056,16.095-7.509,24.98
	l-0.429,1.551c-3.141,11.328-6.701,24.162-3.351,38.232c3.041,12.739,9.762,22.671,20.532,30.364
	c10.7,7.648,23.264,11.069,37.983,10.605c22.377-0.753,42.37-12.181,59.442-33.954c18.697-23.808,30.404-55.732,34.812-94.912
	c1.107-9.987,2.463-25.039,1.396-40.406c-1.775-25.777-9.922-47.79-24.232-65.435C349.487,74.58,330.87,62.11,309.111,55.14
	c-22.576-7.245-52.452-9.094-77.96-4.806c-45.95,7.738-81.63,32.932-103.189,72.869c-11.827,21.908-17.57,44.863-17.57,70.182
	c0,20.786,5.036,38.81,14.978,53.579c1.366,2.039,3.002,3.944,4.697,5.863c1.526,1.735,2.962,3.37,3.839,4.891
	c0.618,1.665-1.157,7.424-2.014,10.191c-0.479,1.561-0.937,3.061-1.306,4.462c-0.429,1.63-0.798,3.376-1.167,5.135
	c-0.399,1.925-1.007,4.891-1.655,6.522c-2.423-0.947-6.841-3.376-9.234-5.151c-18.348-13.666-25.079-22.452-34.293-44.744
	c-6.91-16.753-10.341-49.909-6.91-66.941c3.829-19.086,11.986-43.382,18.567-55.314c14.778-26.739,36.208-48.388,63.71-64.338
	c21.778-12.624,45.511-20.642,72.595-24.516c9.633-1.396,19.844-1.94,30.334-2.418c27.064-1.271,55.433,3.929,79.844,14.634
	c21.32,9.364,39.249,22.023,54.805,38.716c15.686,16.808,26.625,36.213,33.466,59.332c3.58,12.021,5.395,26.036,5.395,41.642
	C436.042,188.952,434.876,201.781,432.133,217.821z"/>
<g>
</g>
<g>
</g>
<g>
</g>
<g>
</g>
<g>
</g>
<g>
</g>
<g>
</g>
<g>
</g>
<g>
</g>
<g>
</g>
<g>
</g>
<g>
</g>
<g>
</g>
<g>
</g>
<g>
</g>
</svg>
