<?xml version="1.0" encoding="iso-8859-1"?>
<!-- Generator: Adobe Illustrator 19.0.0, SVG Export Plug-In . SVG Version: 6.00 Build 0)  -->
<svg version="1.1" id="Layer_1" xmlns="http://www.w3.org/2000/svg" xmlns:xlink="http://www.w3.org/1999/xlink" x="0px" y="0px"
	 viewBox="0 0 512 512" style="enable-background:new 0 0 512 512;" xml:space="preserve">
<path style="fill:#314E55;" d="M477.869,225.467L67.331,5.969C53.516-1.413,39.508-1.973,28.883,4.428
	c-10.636,6.368-16.734,18.965-16.734,34.536v434.115c0,15.528,6.11,28.103,16.767,34.493C33.851,510.524,39.497,512,45.51,512
	c6.972,0,14.429-1.994,21.821-5.937l410.538-219.498c19.127-10.215,21.982-23.523,21.982-30.538
	C499.851,249.001,496.996,235.693,477.869,225.467z"/>
<path style="fill:#E4AD40;" d="M467.46,267.104L56.922,486.602c-6.735,3.599-12.823,4.343-16.659,2.037
	c-3.847-2.306-6.045-7.974-6.045-15.56V38.964c0-7.629,2.188-13.319,6.013-15.614c1.455-0.873,3.243-1.304,5.269-1.304
	c3.297,0,7.23,1.142,11.422,3.384L467.46,244.928c6.368,3.405,10.323,7.651,10.323,11.099
	C477.783,259.453,473.828,263.699,467.46,267.104z"/>
<g>
</g>
<g>
</g>
<g>
</g>
<g>
</g>
<g>
</g>
<g>
</g>
<g>
</g>
<g>
</g>
<g>
</g>
<g>
</g>
<g>
</g>
<g>
</g>
<g>
</g>
<g>
</g>
<g>
</g>
</svg>
