<?xml version="1.0" encoding="iso-8859-1"?>
<!-- Generator: Adobe Illustrator 19.0.0, SVG Export Plug-In . SVG Version: 6.00 Build 0)  -->
<svg version="1.1" id="Layer_1" xmlns="http://www.w3.org/2000/svg" xmlns:xlink="http://www.w3.org/1999/xlink" x="0px" y="0px"
	 viewBox="0 0 512 512" style="enable-background:new 0 0 512 512;" xml:space="preserve">
<path style="fill:#314E55;" d="M511.733,171.114c0.052-0.232,0.139-0.445,0.173-0.68c0.148-1.025,0.123-2.061-0.083-3.087
	c-0.048-0.243-0.156-0.464-0.224-0.704c-0.143-0.499-0.243-1.007-0.474-1.485c-0.152-0.316-0.39-0.564-0.574-0.857
	c-0.096-0.153-0.109-0.333-0.216-0.483l-68.581-96.013c-0.966-1.35-2.28-2.222-3.691-2.866c-0.909-2.095-2.524-3.846-4.694-4.787
	l-84.583-36.576c-1.147-0.491-2.38-0.75-3.63-0.75h-178.31c-1.25,0-2.482,0.259-3.63,0.75L78.632,60.152
	c-2.17,0.94-3.784,2.692-4.693,4.785c-1.411,0.644-2.727,1.516-3.692,2.868L1.666,163.818c-0.107,0.15-0.119,0.329-0.216,0.483
	c-0.184,0.292-0.422,0.541-0.574,0.857c-0.231,0.478-0.331,0.986-0.474,1.485c-0.068,0.24-0.176,0.462-0.224,0.704
	c-0.206,1.026-0.231,2.062-0.083,3.087c0.034,0.235,0.12,0.448,0.173,0.68c0.18,0.805,0.467,1.572,0.863,2.311
	c0.147,0.274,0.288,0.533,0.464,0.793c0.131,0.194,0.205,0.415,0.352,0.601l246.891,310.9c0.072,0.09,0.189,0.123,0.263,0.21
	c0.782,0.914,1.701,1.663,2.757,2.202c0.168,0.086,0.339,0.136,0.512,0.211c1.137,0.496,2.349,0.832,3.629,0.832
	c1.28,0,2.492-0.335,3.629-0.832c0.173-0.075,0.344-0.126,0.512-0.211c1.056-0.54,1.975-1.289,2.757-2.202
	c0.075-0.087,0.191-0.12,0.263-0.21l246.891-310.9c0.147-0.186,0.221-0.407,0.352-0.601c0.176-0.26,0.318-0.519,0.464-0.793
	C511.266,172.686,511.553,171.919,511.733,171.114z"/>
<g>
	<polygon style="fill:#DBCF56;" points="168.738,41.113 343.262,41.113 408.816,69.456 342.842,105.122 169.158,105.122 
		103.184,69.456 	"/>
	<polygon style="fill:#DBCF56;" points="143.904,269.716 368.096,269.716 256,461.886 	"/>
</g>
<g>
	<polygon style="fill:#E4AD40;" points="144.266,251.428 176.27,123.41 336,123.41 373.166,251.428 	"/>
	<path style="fill:#E4AD40;" d="M25.611,161.762L84.07,79.92l74.196,40.106l-31.091,124.366L26.107,162.041
		C25.957,161.919,25.766,161.873,25.611,161.762z"/>
</g>
<g>
	<path style="fill:#DBCF56;" d="M118.927,261.266c0.104,1.356,0.448,2.698,1.157,3.914l63.713,109.221L48.159,203.6L118.927,261.266
		z"/>
	<path style="fill:#DBCF56;" d="M328.199,374.409l63.717-109.229c0.709-1.215,1.054-2.559,1.157-3.914l70.772-57.666
		L328.199,374.409z"/>
</g>
<path style="fill:#E4AD40;" d="M389.149,240.869L354.02,119.871l73.91-39.951l58.457,81.841c-0.157,0.112-0.349,0.158-0.499,0.281
	L389.149,240.869z"/>
<g>
</g>
<g>
</g>
<g>
</g>
<g>
</g>
<g>
</g>
<g>
</g>
<g>
</g>
<g>
</g>
<g>
</g>
<g>
</g>
<g>
</g>
<g>
</g>
<g>
</g>
<g>
</g>
<g>
</g>
</svg>
