<?xml version="1.0" encoding="iso-8859-1"?>
<!-- Generator: Adobe Illustrator 19.0.0, SVG Export Plug-In . SVG Version: 6.00 Build 0)  -->
<svg version="1.1" id="Layer_1" xmlns="http://www.w3.org/2000/svg" xmlns:xlink="http://www.w3.org/1999/xlink" x="0px" y="0px"
	 viewBox="0 0 512 512" style="enable-background:new 0 0 512 512;" xml:space="preserve">
<path style="fill:#314E55;" d="M499.249,300.555c3.649-20.159,18.93-129.902-62.751-210.174
	c-6.54-7.648-80.862-90.37-218.021-71.684C200.214,9.204,113.101-29.82,39.526,44.624C38.845,45.34-27.61,116.298,17.385,207.7
	c-3.247,14.555-11.546,65.169,12.176,127.259c1.281,4.599,32.712,113.04,151.581,148.476c2.155,0.823,52.79,19.814,118.29,13.95
	c8.721,3.883,35.868,14.615,69.072,14.615c31.543,0,68.549-9.681,100.442-44.126C473.398,463.346,534.7,398.568,499.249,300.555z"/>
<path style="fill:#81A4E3;" d="M454.046,453.34l-0.264,0.274c-61.648,66.73-144.293,25.673-147.775,23.885l-2.744-1.403
	l-3.044,0.305c-61.755,6.149-111.17-12.232-112.385-12.664C79.52,431.422,49.898,330.38,49.314,328.459
	c-25.313-66.369-11.043-118.641-10.901-119.139l1.154-3.999l-1.926-3.689C-3.863,121.995,52.17,61.541,54.447,59.142
	C124.855-12.13,207.659,36.3,211.14,38.383l3.202,1.946l3.71-0.549c130.938-19.326,199.95,60.926,202.811,64.341l0.727,0.788
	c80.394,78.651,56.957,193.176,56.713,194.324l-0.645,3.008l1.082,2.866C512.081,393.278,456.435,450.926,454.046,453.34z"/>
<path style="fill:#314E55;" d="M320.104,219.662l-1.037-0.239c-59.732-10.672-94.756-26.69-94.842-26.69c0,0,0,0.005,0.005,0.005
	c-5.814-3.298-12.852-8.476-13.391-14.402c-0.488-5.387,4.421-11.226,6.952-13.624c58.101-29.591,83.845,6.647,84.928,8.227
	c16.308,24.108,32.981,37.306,49.553,39.232c14.402,1.667,23.112-5.91,23.869-6.611c11.968-10.499,18.051-22.787,18.071-36.513
	c0.046-26.609-23.732-47.927-24.535-48.633c-69.611-64.885-177.905-27.661-182.321-26.085
	c-87.707,29.464-69.453,111.805-69.26,112.634l0.346,1.159c25.963,71.842,135.345,81.172,139.979,81.533
	c52.267,4.132,54.477,29.124,54.564,30.527c1.88,26.309-44.324,34.109-50.829,35.075c-45.62-2.536-56.342-20.312-56.358-20.312
	v0.005l-1.062-1.738c-23.854-31.558-33.144-42.499-53.512-43.023c-17.07-0.564-27.04,6.393-32.437,12.217
	c-13.65,14.707-11.887,36.421-11.642,38.85l0.234,1.367c20.094,84.064,130.598,83.169,134.526,83.103
	c6.449,0.391,12.649,0.579,18.61,0.579c138.368-0.005,147.851-100.549,147.917-101.418
	C414.393,263.381,353.263,229.165,320.104,219.662z"/>
<path style="fill:#FFFFFF;" d="M387.698,323.073c-0.285,3.684-8.654,90.126-145.33,81.858c-1.001-0.03-97.749,0.681-114.544-66.333
	c-0.122-2.744-0.279-15.027,6.22-22.035c3.659-3.943,9.132-5.824,16.638-5.57c9.462,0.244,13.426,3.024,37.006,34.18
	c3.425,5.885,19.931,28.184,74.378,30.918l0.854,0.046l0.844-0.096c27.294-3.1,72.751-18.661,70.012-56.769
	c-0.03-1.819-1.54-44.664-73.727-50.371c-1.001-0.076-99.899-8.451-121.807-67.248c-1.418-6.744-11.531-64.992,55.895-87.646
	c1.006-0.351,100.884-34.74,161.531,21.801c4.955,4.426,17.796,19.032,17.731,33.271c-0.03,7.567-3.628,14.381-11.175,21.008
	c-0.025,0.015-2.897,1.931-7.547,1.413c-5.788-0.671-17.99-5.493-34.663-30.145c-0.361-0.539-37.001-54.005-112.944-14.534
	l-1.773,1.169c-1.713,1.397-16.704,14.168-15.205,32.036c1.016,12.039,9.046,22.406,24.586,31.192
	c1.504,0.701,37.428,17.324,100.127,28.59C321.207,241.804,393.262,265.653,387.698,323.073z"/>
<g>
</g>
<g>
</g>
<g>
</g>
<g>
</g>
<g>
</g>
<g>
</g>
<g>
</g>
<g>
</g>
<g>
</g>
<g>
</g>
<g>
</g>
<g>
</g>
<g>
</g>
<g>
</g>
<g>
</g>
</svg>
