<?xml version="1.0" encoding="iso-8859-1"?>
<!-- Generator: Adobe Illustrator 19.0.0, SVG Export Plug-In . SVG Version: 6.00 Build 0)  -->
<svg version="1.1" id="Layer_1" xmlns="http://www.w3.org/2000/svg" xmlns:xlink="http://www.w3.org/1999/xlink" x="0px" y="0px"
	 viewBox="0 0 512 512" style="enable-background:new 0 0 512 512;" xml:space="preserve">
<path style="fill:#314E55;" d="M440.336,235.739c-1.191-0.119-2.272-0.234-3.243-0.344
	c-7.183-62.694-60.285-110.739-124.143-110.739c-22.602,0-57.619,10.806-73.826,20.472l-4.746,2.826l7.183,238.858l208.762,0.531
	c38.608,0,61.678-39.332,61.678-77.358C512,270.467,482.536,239.935,440.336,235.739z"/>
<path style="fill:#D8D8D8;" d="M450.359,368.581l-130.941-0.531h-59.644l-6.294-209.353c15.2-7.439,42.419-15.277,59.47-15.277
	c56.492,0,103.08,44.252,106.048,100.743l0.421,7.325l7.201,1.397c0,0,3.701,0.719,11.865,1.525
	c32.231,3.207,54.751,26.061,54.751,55.576C493.237,338.168,476.828,368.581,450.359,368.581z"/>
<g>
	<rect x="187.634" y="180.946" style="fill:#314E55;" width="18.763" height="206.398"/>
	<rect x="140.726" y="199.71" style="fill:#314E55;" width="18.763" height="187.634"/>
	<rect x="93.817" y="209.091" style="fill:#314E55;" width="18.763" height="178.253"/>
	<rect x="46.909" y="246.618" style="fill:#314E55;" width="18.763" height="140.726"/>
	<rect y="274.763" style="fill:#314E55;" width="18.763" height="84.435"/>
</g>
<g>
</g>
<g>
</g>
<g>
</g>
<g>
</g>
<g>
</g>
<g>
</g>
<g>
</g>
<g>
</g>
<g>
</g>
<g>
</g>
<g>
</g>
<g>
</g>
<g>
</g>
<g>
</g>
<g>
</g>
</svg>
