<?xml version="1.0" encoding="iso-8859-1"?>
<!-- Generator: Adobe Illustrator 19.0.0, SVG Export Plug-In . SVG Version: 6.00 Build 0)  -->
<svg version="1.1" id="Layer_1" xmlns="http://www.w3.org/2000/svg" xmlns:xlink="http://www.w3.org/1999/xlink" x="0px" y="0px"
	 viewBox="0 0 512 512" style="enable-background:new 0 0 512 512;" xml:space="preserve">
<path style="fill:#314E55;" d="M512,256C512,115.461,398.163,1.058,257.864,0.048C257.701,0.046,257.548,0,257.385,0h-2.769
	c-0.164,0-0.318,0.046-0.482,0.048C113.835,1.059,0,115.463,0,256c0,45.641,12.062,88.493,33.079,125.638
	c0.201,0.376,0.307,0.78,0.522,1.151l1.39,2.414c0.209,0.362,0.497,0.647,0.716,0.999C80.342,461.435,162.358,512,256,512
	c93.639,0,175.654-50.562,220.29-125.793c0.225-0.361,0.52-0.654,0.734-1.024l1.365-2.385c0.21-0.364,0.314-0.758,0.511-1.126
	C499.93,344.519,512,301.655,512,256z"/>
<g>
	<path style="fill:#81A4E3;" d="M492.308,256c0,30.472-5.861,59.583-16.412,86.353c-3.279-4.284-7.43-7.912-12.449-10.497h0.005
		l-158.831-81.892c-1.678-13.505-8.731-25.261-19.082-33.096l8.499-178.445c0.269-5.666-0.823-11.102-2.932-16.109
		C404.814,39.325,492.308,137.631,492.308,256z"/>
	<path style="fill:#81A4E3;" d="M459.267,376.322c-2.404,3.605-5.881,6.163-10.002,7.159c-4.5,1.096-9.187,0.279-13.202-2.308
		l-142.582-91.635l10.303-17.846l150.639,77.664c0.005,0,0.005,0,0.005,0c4.274,2.202,7.346,5.856,8.644,10.269
		c1.183,4.037,0.697,8.322-1.241,12.243C460.988,373.36,460.141,374.85,459.267,376.322z"/>
	<path style="fill:#81A4E3;" d="M75.937,381.164c-4.048,2.606-8.75,3.442-13.212,2.346c-4.11-0.989-7.59-3.572-10.002-7.203
		c-0.876-1.475-1.725-2.968-2.57-4.463c-1.904-3.88-2.384-8.159-1.193-12.208c1.303-4.442,4.361-8.087,8.615-10.279l150.64-77.664
		l10.303,17.846L75.937,381.164z"/>
	<path style="fill:#81A4E3;" d="M226.462,256c0-16.288,13.25-29.538,29.538-29.538c16.289,0,29.538,13.25,29.538,29.538
		c0,16.289-13.25,29.538-29.538,29.538C239.712,285.538,226.462,272.289,226.462,256z"/>
	<path style="fill:#81A4E3;" d="M245.697,206.769l-8.063-169.288c-0.231-4.808,1.399-9.288,4.577-12.625
		c3.061-3.21,7.284-4.991,11.907-5.115c0.63-0.005,1.25-0.048,1.881-0.048c0.629,0,1.247,0.043,1.875,0.048
		c4.598,0.124,8.814,1.915,11.894,5.145c3.192,3.346,4.827,7.817,4.596,12.596l-8.063,169.288H245.697z"/>
	<path style="fill:#81A4E3;" d="M220.87,22.317c-2.094,4.998-3.177,10.429-2.909,16.097c0,0.01,0,0.01,0,0.01l8.499,178.445
		c-10.35,7.835-17.404,19.591-19.082,33.096L48.553,331.856c-5.017,2.585-9.164,6.222-12.439,10.521
		C25.557,315.6,19.692,286.481,19.692,256C19.692,137.639,107.174,39.338,220.87,22.317z"/>
	<path style="fill:#81A4E3;" d="M256,492.308c-74.611,0-141.213-34.798-184.552-88.974c5.289-0.713,10.436-2.577,15.134-5.594v-0.01
		l150.111-96.464c5.934,2.542,12.455,3.964,19.308,3.964c6.853,0,13.374-1.423,19.308-3.964l150.111,96.464
		c4.697,3.021,9.85,4.877,15.152,5.581C397.231,457.5,330.621,492.308,256,492.308z"/>
</g>
<g>
</g>
<g>
</g>
<g>
</g>
<g>
</g>
<g>
</g>
<g>
</g>
<g>
</g>
<g>
</g>
<g>
</g>
<g>
</g>
<g>
</g>
<g>
</g>
<g>
</g>
<g>
</g>
<g>
</g>
</svg>
