<?xml version="1.0" encoding="iso-8859-1"?>
<!-- Generator: Adobe Illustrator 19.0.0, SVG Export Plug-In . SVG Version: 6.00 Build 0)  -->
<svg version="1.1" id="Layer_1" xmlns="http://www.w3.org/2000/svg" xmlns:xlink="http://www.w3.org/1999/xlink" x="0px" y="0px"
	 viewBox="0 0 512 512" style="enable-background:new 0 0 512 512;" xml:space="preserve">
<path style="fill:#314E55;" d="M283.279,512c-12.013,0-23.545-0.493-32.339-1.626c-67.94-8.739-100.969-53.852-100.969-137.907
	V235.491h-45.228c-6.198,0-11.214-5.021-11.214-11.214V145.78c0-6.05,4.796-11.011,10.842-11.208
	c3.876-0.153,95.69-5.175,95.69-123.358C200.062,5.021,205.078,0,211.276,0h73.46c6.198,0,11.214,5.021,11.214,11.214v123.353
	h111.306c6.198,0,11.214,5.021,11.214,11.214v78.497c0,6.193-5.016,11.214-11.214,11.214H295.949v130.203
	c0,0.394-0.022,0.788-0.066,1.183c-0.011,0.104-1.478,17.013,8.618,27.137c6.702,6.735,17.664,9.478,32.514,8.098
	c14.324-1.303,41.351-7.365,61.359-33.297c2.946-3.789,7.973-5.311,12.495-3.762c4.545,1.544,7.6,5.815,7.6,10.612v89.711
	c0,2.678-0.953,5.267-2.705,7.299c-0.953,1.117-24.081,27.433-80.764,36.171C322.615,510.751,302.345,512,283.279,512z"/>
<path style="fill:#81A4E3;" d="M115.958,213.064h45.228c6.198,0,11.214,5.021,11.214,11.214v148.19
	c0,93.232,43.508,110.786,81.41,115.665c20.632,2.65,59.431,1.369,77.774-1.451c37.672-5.81,57.614-20.161,64.458-26.074v-58.035
	c-21.026,16.043-43.497,20.648-56.989,21.88c-22.012,1.988-38.975-2.979-50.627-14.795c-16.131-16.372-15.233-39.944-14.904-44.429
	V224.277c0-6.193,5.016-11.214,11.214-11.214h111.306v-56.069H284.736c-6.198,0-11.214-5.021-11.214-11.214V22.428h-51.284
	c-4.884,104.949-78.179,128.149-106.28,133.192V213.064z"/>
<g>
</g>
<g>
</g>
<g>
</g>
<g>
</g>
<g>
</g>
<g>
</g>
<g>
</g>
<g>
</g>
<g>
</g>
<g>
</g>
<g>
</g>
<g>
</g>
<g>
</g>
<g>
</g>
<g>
</g>
</svg>
