<?xml version="1.0" encoding="iso-8859-1"?>
<!-- Generator: Adobe Illustrator 19.0.0, SVG Export Plug-In . SVG Version: 6.00 Build 0)  -->
<svg version="1.1" id="Layer_1" xmlns="http://www.w3.org/2000/svg" xmlns:xlink="http://www.w3.org/1999/xlink" x="0px" y="0px"
	 viewBox="0 0 512 512" style="enable-background:new 0 0 512 512;" xml:space="preserve">
<path style="fill:#314E55;" d="M507.743,93.544c-3.429-2.323-7.97-2.204-11.282,0.298c-4.347,3.297-11.424,5.913-19.039,7.928
	c19.834-22.223,20.26-37.061,20.047-40.477c-0.222-3.524-2.346-6.651-5.544-8.155c-3.207-1.514-6.963-1.145-9.82,0.927
	c-22.308,16.215-44.531,19.64-57.747,19.985c-20.283-19.408-46.631-30.046-74.662-30.046c-60.022,0-108.853,49.483-108.853,110.305
	c0,5.227,0.364,10.454,1.093,15.624C137.912,168.755,53.439,69.084,52.569,68.044c-2.029-2.427-5.118-3.723-8.273-3.444
	c-3.155,0.274-5.979,2.067-7.559,4.811c-29.938,51.934-9.905,97.547,8.406,123.663c-3.24-1.727-5.866-3.429-7.431-4.584
	c-2.909-2.166-6.793-2.526-10.061-0.923c-3.264,1.608-5.35,4.9-5.411,8.538c-0.809,49.483,23.013,77.832,45.406,93.503
	c-2.985-0.284-6.017,0.828-8.089,3.079c-2.327,2.531-3.146,6.102-2.143,9.39c15.468,50.637,53.457,67.841,77.628,73.679
	C85.34,414.445,12.205,401.995,11.397,401.853c-4.413-0.781-8.779,1.542-10.577,5.638c-1.798,4.092-0.568,8.888,2.99,11.599
	c52.459,40.037,115.201,48.906,160.526,48.906c34.28-0.005,58.608-5.08,60.935-5.586c229.573-54.403,236.035-264.691,235.51-299.156
	c43.097-40.079,49.833-55.344,50.874-59.119C512.752,100.129,511.181,95.872,507.743,93.544z"/>
<path style="fill:#73C9C9;" d="M444.404,152.01c-2.157,1.987-3.297,4.849-3.103,7.776c0.61,9.304,12.351,228.594-220.316,283.73
	c-1.055,0.222-93.541,19.522-173.719-20.198c33.873-0.941,82.448-9.815,116.289-47.809c2.554-2.862,3.174-6.963,1.585-10.454
	c-1.57-3.458-5.023-5.676-8.817-5.676c-0.033,0-0.066,0-0.099,0c-0.482,0.308-51.356-0.057-74.643-48.452
	c9.38,0.53,20.945-0.047,30.155-4.29c3.794-1.75,6.036-5.733,5.567-9.886c-0.468-4.148-3.543-7.531-7.63-8.391
	c-2.606-0.549-59.237-13.212-67.16-74.993c8.595,3.756,19.583,6.83,30.463,5.17c3.737-0.563,6.797-3.25,7.852-6.878
	s-0.099-7.545-2.952-10.023c-2.422-2.11-55.609-49.379-30.392-110.338c27.374,28.722,108.465,103.37,206.703,97.727
	c2.881-0.166,5.539-1.613,7.251-3.94c1.708-2.327,2.289-5.293,1.585-8.093c-1.859-7.408-2.805-15.042-2.805-22.681
	c0-50.141,40.141-90.93,89.478-90.93c24.134,0,46.773,9.631,63.735,27.123c1.783,1.84,4.229,2.9,6.788,2.942
	c10.265,0.142,27.147-1.064,46.21-8.708c-5.501,6.845-13.581,15.056-25.468,24.389c-3.358,2.639-4.593,7.171-3.037,11.149
	c1.561,3.988,5.586,6.504,9.796,6.126c2.256-0.18,13.77-1.197,26.778-4.011C467.412,130.033,457.696,139.783,444.404,152.01z"/>
<g>
</g>
<g>
</g>
<g>
</g>
<g>
</g>
<g>
</g>
<g>
</g>
<g>
</g>
<g>
</g>
<g>
</g>
<g>
</g>
<g>
</g>
<g>
</g>
<g>
</g>
<g>
</g>
<g>
</g>
</svg>
