<?xml version="1.0" encoding="iso-8859-1"?>
<!-- Generator: Adobe Illustrator 19.0.0, SVG Export Plug-In . SVG Version: 6.00 Build 0)  -->
<svg version="1.1" id="Layer_1" xmlns="http://www.w3.org/2000/svg" xmlns:xlink="http://www.w3.org/1999/xlink" x="0px" y="0px"
	 viewBox="0 0 512 512" style="enable-background:new 0 0 512 512;" xml:space="preserve">
<path style="fill:#314E55;" d="M497.231,0h-448c-3.5,0-6.74,1.856-8.505,4.885L6.264,63.962c-0.88,1.51-1.341,3.221-1.341,4.961
	v364.308c0,5.442,4.409,9.846,9.846,9.846h108.308v59.077c0,5.442,4.409,9.846,9.846,9.846h68.923c2.433,0,4.779-0.904,6.587-2.529
	l73.774-66.394h91.947c2.471,0,4.851-0.933,6.668-2.596L503.899,327.25c2.024-1.865,3.178-4.5,3.178-7.25V9.846
	C507.077,4.404,502.668,0,497.231,0z M428.308,286.385l-58.231,58.231H260.923c-2.61,0-5.115,1.039-6.961,2.885l-42.269,42.269
	v-35.308c0-5.442-4.409-9.846-9.846-9.846h-98.462V68.923h324.923V286.385z"/>
<path style="fill:#73C9C9;" d="M54.885,19.692L24.615,71.586v351.798h108.308c5.438,0,9.846,4.404,9.846,9.846v59.077h55.298
	l73.774-66.394c1.808-1.625,4.154-2.529,6.587-2.529h91.885l117.072-107.702V19.692H54.885z M428.308,286.385l-58.231,58.231
	H260.923c-2.61,0-5.115,1.039-6.961,2.885l-42.269,42.269v-35.308c0-5.442-4.409-9.846-9.846-9.846h-98.462V68.923h324.923V286.385z
	"/>
<g>
	<path style="fill:#314E55;" d="M438.154,49.231H93.538c-5.438,0-9.846,4.404-9.846,9.846v295.385c0,5.442,4.409,9.846,9.846,9.846
		H192v49.231c0,3.981,2.399,7.577,6.077,9.096c1.221,0.51,2.5,0.75,3.769,0.75c2.562,0,5.077-1,6.961-2.885L265,364.308h109.154
		c2.61,0,5.115-1.039,6.961-2.885l64-64c1.846-1.846,2.885-4.346,2.885-6.961V59.077C448,53.635,443.591,49.231,438.154,49.231z
		 M428.308,286.385l-58.231,58.231H260.923c-2.61,0-5.115,1.039-6.961,2.885l-42.269,42.269v-35.308
		c0-5.442-4.409-9.846-9.846-9.846h-98.462V68.923h324.923V286.385z"/>
	<path style="fill:#314E55;" d="M211.692,275.692h39.385c5.438,0,9.846-4.404,9.846-9.846v-128c0-5.442-4.409-9.846-9.846-9.846
		h-39.385c-5.438,0-9.846,4.404-9.846,9.846v128C201.846,271.288,206.255,275.692,211.692,275.692z"/>
</g>
<rect x="221.538" y="147.692" style="fill:#73C9C9;" width="19.692" height="108.308"/>
<path style="fill:#314E55;" d="M310.154,275.692h39.385c5.438,0,9.846-4.404,9.846-9.846v-128c0-5.442-4.409-9.846-9.846-9.846
	h-39.385c-5.438,0-9.846,4.404-9.846,9.846v128C300.308,271.288,304.716,275.692,310.154,275.692z"/>
<rect x="320" y="147.692" style="fill:#73C9C9;" width="19.692" height="108.308"/>
<g>
</g>
<g>
</g>
<g>
</g>
<g>
</g>
<g>
</g>
<g>
</g>
<g>
</g>
<g>
</g>
<g>
</g>
<g>
</g>
<g>
</g>
<g>
</g>
<g>
</g>
<g>
</g>
<g>
</g>
</svg>
