<?xml version="1.0" encoding="iso-8859-1"?>
<!-- Generator: Adobe Illustrator 19.0.0, SVG Export Plug-In . SVG Version: 6.00 Build 0)  -->
<svg version="1.1" id="Layer_1" xmlns="http://www.w3.org/2000/svg" xmlns:xlink="http://www.w3.org/1999/xlink" x="0px" y="0px"
	 viewBox="0 0 512 512" style="enable-background:new 0 0 512 512;" xml:space="preserve">
<path style="fill:#314E55;" d="M293.236,0.009v31.14c0,28.581,22.572,51.831,50.308,51.831h70.708v265.945
	c0,44.917-32.427,80.103-73.817,80.103H171.02c-41.09,0-73.271-34.94-73.271-79.544V82.98h117.571V44.899
	C215.319,20.141,195.747,0,171.692,0H13.968v348.916c-0.009,43.327,16.391,84.194,46.163,115.066
	C89.985,494.946,129.557,512,171.556,512h168.161c87.298,0,158.315-73.494,158.315-163.829V0.009H293.236z"/>
<path style="fill:#D8D8D8;" d="M479.414,348.171c0,80.071-62.672,145.211-139.697,145.211H171.556
	c-36.89,0-71.708-15.032-98.026-42.322c-26.408-27.386-40.945-63.663-40.945-102.144V18.618h139.107
	c13.791,0,25.009,11.791,25.009,26.281v19.463H79.131v285.122c0,55.044,40.363,98.162,91.889,98.162h169.415
	c51.835,0,92.435-43.363,92.435-98.721V64.362h-89.326c-17.473,0-31.691-14.899-31.691-33.213V18.627h167.561V348.171z"/>
<g>
</g>
<g>
</g>
<g>
</g>
<g>
</g>
<g>
</g>
<g>
</g>
<g>
</g>
<g>
</g>
<g>
</g>
<g>
</g>
<g>
</g>
<g>
</g>
<g>
</g>
<g>
</g>
<g>
</g>
</svg>
