<?xml version="1.0" encoding="iso-8859-1"?>
<!-- Generator: Adobe Illustrator 19.0.0, SVG Export Plug-In . SVG Version: 6.00 Build 0)  -->
<svg version="1.1" id="Layer_1" xmlns="http://www.w3.org/2000/svg" xmlns:xlink="http://www.w3.org/1999/xlink" x="0px" y="0px"
	 viewBox="0 0 512 512" style="enable-background:new 0 0 512 512;" xml:space="preserve">
<path style="fill:#314E55;" d="M429.714,45.71c-33.824,0-62.926,20.527-75.559,49.769L238.786,32.558
	c-15.987-8.723-40.991-8.741-56.942-0.036L28.83,115.986C12.665,124.799,0,146.165,0,164.638v182.714
	c0,18.464,12.661,39.83,28.826,48.652l153.022,83.464c7.973,4.348,18.21,6.527,28.442,6.527c10.232,0,20.464-2.178,28.437-6.527
	l153.013-83.464c16.165-8.813,28.83-30.161,28.83-48.598V209.741c3.006,0.334,6.049,0.54,9.143,0.54
	c45.371,0,82.286-36.911,82.286-82.286S475.085,45.71,429.714,45.71z"/>
<path style="fill:#D8D8D8;" d="M402.286,206.603v140.804c0,11.732-9.018,26.938-19.299,32.545l-153.018,83.464
	c-10.487,5.714-28.888,5.714-39.366,0L37.585,379.951c-10.281-5.607-19.299-20.839-19.299-32.598V164.638
	c0-11.759,9.018-26.991,19.299-32.598l153.018-83.464c10.482-5.732,28.906-5.705,39.424,0.036l118.777,64.78
	c-0.855,4.749-1.375,9.613-1.375,14.604c0,35.825,23.052,66.29,55.068,77.562C402.454,205.917,402.286,206.232,402.286,206.603z"/>
<path style="fill:#81A4E3;" d="M429.714,191.995c-35.29,0-64-28.714-64-64s28.71-64,64-64s64,28.714,64,64
	S465.005,191.995,429.714,191.995z"/>
<g>
	<path style="fill:#314E55;" d="M429.714,82.281c-15.125,0-27.429,12.304-27.429,27.429c0,7.05,2.748,13.422,7.134,18.286
		c-4.386,4.864-7.134,11.235-7.134,18.286c0,15.125,12.304,27.429,27.429,27.429c15.125,0,27.429-12.304,27.429-27.429
		c0-7.05-2.748-13.422-7.134-18.286c4.386-4.864,7.134-11.235,7.134-18.286C457.143,94.585,444.839,82.281,429.714,82.281z
		 M429.714,100.567c5.04,0,9.143,4.098,9.143,9.143s-4.103,9.143-9.143,9.143c-5.04,0-9.143-4.098-9.143-9.143
		S424.674,100.567,429.714,100.567z M429.714,155.424c-5.04,0-9.143-4.098-9.143-9.143s4.103-9.143,9.143-9.143
		c5.04,0,9.143,4.098,9.143,9.143S434.755,155.424,429.714,155.424z"/>
	<path style="fill:#314E55;" d="M210.286,277.701c0,15.223-14.955,28.58-32,28.58s-32-13.357-32-28.58v-85.705h-45.714v85.705
		c0,40.964,34.862,74.295,77.714,74.295S256,318.665,256,277.701v-85.705h-45.714V277.701z"/>
</g>
<path style="fill:#FFFFFF;" d="M228.571,277.701v-67.42h9.143v67.42c0,30.884-26.661,56.009-59.429,56.009
	s-59.429-25.125-59.429-56.009v-67.42H128v67.42c0,25.402,23.027,46.866,50.286,46.866S228.571,303.103,228.571,277.701z"/>
<rect x="274.286" y="191.993" style="fill:#314E55;" width="45.714" height="155.429"/>
<rect x="292.571" y="210.279" style="fill:#FFFFFF;" width="9.143" height="118.857"/>
<g>
</g>
<g>
</g>
<g>
</g>
<g>
</g>
<g>
</g>
<g>
</g>
<g>
</g>
<g>
</g>
<g>
</g>
<g>
</g>
<g>
</g>
<g>
</g>
<g>
</g>
<g>
</g>
<g>
</g>
</svg>
