<?xml version="1.0" encoding="iso-8859-1"?>
<!-- Generator: Adobe Illustrator 19.0.0, SVG Export Plug-In . SVG Version: 6.00 Build 0)  -->
<svg version="1.1" id="Layer_1" xmlns="http://www.w3.org/2000/svg" xmlns:xlink="http://www.w3.org/1999/xlink" x="0px" y="0px"
	 viewBox="0 0 512 512" style="enable-background:new 0 0 512 512;" xml:space="preserve">
<path style="fill:#314E55;" d="M256,0C114.836,0,0,114.836,0,256c0,48.154,13.385,94.904,38.76,135.5
	c-10.106,35.433-28.375,102.442-28.567,103.144c-0.942,3.461,0.067,7.164,2.654,9.663c2.587,2.49,6.327,3.375,9.74,2.337
	l101.471-31.221C163.808,499.365,209.327,512,256,512c141.164,0,256-114.836,256-256S397.164,0,256,0z"/>
<path style="fill:#81A4E3;" d="M256,492.308c-44.49,0-87.837-12.433-125.356-35.952c-1.586-0.99-3.404-1.5-5.231-1.5
	c-0.971,0-1.952,0.144-2.894,0.433l-88.606,27.269c6.51-23.76,18.202-66.26,24.99-89.894c0.788-2.74,0.346-5.692-1.202-8.087
	C32.836,346.317,19.692,301.856,19.692,256c0-130.298,106.01-236.308,236.308-236.308S492.308,125.702,492.308,256
	S386.298,492.308,256,492.308z"/>
<path style="fill:#314E55;" d="M423.24,316.317c-18.173-10.096-33.654-20.211-44.952-27.596c-8.625-5.635-14.856-9.702-19.423-11.99
	c-12.769-6.375-22.452-1.865-26.135,1.846c-0.462,0.462-0.875,0.961-1.231,1.5c-13.26,19.894-30.587,38.933-35.654,39.952
	c-5.856-0.913-33.279-16.5-60.539-39.202c-27.827-23.192-45.327-45.394-47.904-60.51c17.856-18.375,24.288-29.933,24.288-43.087
	c0-13.558-31.625-70.163-37.346-75.885c-5.74-5.731-18.663-6.625-38.433-2.692c-1.904,0.384-3.654,1.317-5.029,2.692
	C128.49,103.74,72.51,160.817,99.115,230c29.202,75.923,104.163,164.173,199.731,178.51c10.856,1.625,21.039,2.433,30.577,2.433
	c56.221,0,89.404-28.289,98.75-84.404C428.856,322.433,426.885,318.337,423.24,316.317z"/>
<path style="fill:#D8D8D8;" d="M301.769,389.029C200.712,373.875,137.048,273.75,117.5,222.923
	c-19.394-50.414,16.375-95.356,25.356-105.519c7.308-1.24,14.99-1.76,18.202-1.26c6.702,9.327,29.923,53.192,30.942,61.087
	c0,5.173-1.683,12.365-21.731,32.423c-1.846,1.846-2.885,4.346-2.885,6.961c0,51.558,108.74,123.077,128,123.077
	c16.75,0,38.587-28.154,51.019-46.49c0.721,0.029,1.933,0.279,3.654,1.144c3.548,1.779,9.692,5.789,17.462,10.865
	c10.26,6.702,23.885,15.606,39.971,24.827C400.183,365.192,379.769,400.75,301.769,389.029z"/>
<g>
</g>
<g>
</g>
<g>
</g>
<g>
</g>
<g>
</g>
<g>
</g>
<g>
</g>
<g>
</g>
<g>
</g>
<g>
</g>
<g>
</g>
<g>
</g>
<g>
</g>
<g>
</g>
<g>
</g>
</svg>
