<?xml version="1.0" encoding="iso-8859-1"?>
<!-- Generator: Adobe Illustrator 19.0.0, SVG Export Plug-In . SVG Version: 6.00 Build 0)  -->
<svg version="1.1" id="Layer_1" xmlns="http://www.w3.org/2000/svg" xmlns:xlink="http://www.w3.org/1999/xlink" x="0px" y="0px"
	 viewBox="0 0 512 512" style="enable-background:new 0 0 512 512;" xml:space="preserve">
<path style="fill:#314E55;" d="M234.667,0h-224C4.771,0,0,4.771,0,10.667v224c0,5.896,4.771,10.667,10.667,10.667h224
	c5.896,0,10.667-4.771,10.667-10.667v-224C245.333,4.771,240.562,0,234.667,0z"/>
<rect x="21.333" y="21.333" style="fill:#E65F58;" width="202.667" height="202.667"/>
<path style="fill:#314E55;" d="M234.667,266.667h-224C4.771,266.667,0,271.438,0,277.333v224C0,507.229,4.771,512,10.667,512h224
	c5.896,0,10.667-4.771,10.667-10.667v-224C245.333,271.438,240.562,266.667,234.667,266.667z"/>
<rect x="21.333" y="288" style="fill:#81A4E3;" width="202.667" height="202.667"/>
<path style="fill:#314E55;" d="M501.333,266.667h-224c-5.896,0-10.667,4.771-10.667,10.667v224c0,5.896,4.771,10.667,10.667,10.667
	h224c5.896,0,10.667-4.771,10.667-10.667v-224C512,271.438,507.229,266.667,501.333,266.667z"/>
<rect x="288" y="288" style="fill:#E4AD40;" width="202.667" height="202.667"/>
<path style="fill:#314E55;" d="M501.333,0h-224c-5.896,0-10.667,4.771-10.667,10.667v224c0,5.896,4.771,10.667,10.667,10.667h224
	c5.896,0,10.667-4.771,10.667-10.667v-224C512,4.771,507.229,0,501.333,0z"/>
<rect x="288" y="21.333" style="fill:#5ECB66;" width="202.667" height="202.667"/>
<g>
</g>
<g>
</g>
<g>
</g>
<g>
</g>
<g>
</g>
<g>
</g>
<g>
</g>
<g>
</g>
<g>
</g>
<g>
</g>
<g>
</g>
<g>
</g>
<g>
</g>
<g>
</g>
<g>
</g>
</svg>
