<?xml version="1.0" encoding="iso-8859-1"?>
<!-- Generator: Adobe Illustrator 19.0.0, SVG Export Plug-In . SVG Version: 6.00 Build 0)  -->
<svg version="1.1" id="Layer_1" xmlns="http://www.w3.org/2000/svg" xmlns:xlink="http://www.w3.org/1999/xlink" x="0px" y="0px"
	 viewBox="0 0 512 512" style="enable-background:new 0 0 512 512;" xml:space="preserve">
<path style="fill:#314E55;" d="M487.145,4.545C485.506,1.732,482.497,0,479.243,0H372.471c-3.29,0-6.326,1.768-7.951,4.625
	L182.136,325.911c-1.634,2.875-1.585,6.42,0.134,9.25l104.509,172.438c1.656,2.732,4.621,4.402,7.817,4.402h108.973
	c3.268,0,6.281-1.741,7.915-4.571c1.634-2.822,1.638-6.312,0.005-9.143l-100.491-174.25L487.194,13.661
	C488.801,10.83,488.783,7.357,487.145,4.545z"/>
<path style="fill:#E4AD40;" d="M292.511,319.554c-1.598,2.822-1.589,6.277,0.031,9.089l95.201,165.071h-87.996l-99.062-163.446
	L377.792,18.286h85.746L292.511,319.554z"/>
<path style="fill:#314E55;" d="M212.189,235.527l-51.46-120.268c-1.442-3.366-4.746-5.545-8.406-5.545H55.457
	c-3.072,0-5.938,1.545-7.629,4.107s-1.987,5.804-0.777,8.634l47.437,110.866L24.729,361.339c-1.545,2.83-1.482,6.268,0.165,9.045
	c1.647,2.777,4.634,4.473,7.861,4.473h96.866c3.245,0,6.25-1.723,7.888-4.518l74.161-126.589
	C213.136,241.241,213.328,238.196,212.189,235.527z"/>
<path style="fill:#73C9C9;" d="M124.381,356.571H48.149l64.518-118.393c1.339-2.455,1.482-5.393,0.379-7.973L69.314,128h76.978
	l47.272,110.482L124.381,356.571z"/>
<g>
</g>
<g>
</g>
<g>
</g>
<g>
</g>
<g>
</g>
<g>
</g>
<g>
</g>
<g>
</g>
<g>
</g>
<g>
</g>
<g>
</g>
<g>
</g>
<g>
</g>
<g>
</g>
<g>
</g>
</svg>
