<?xml version="1.0" encoding="iso-8859-1"?>
<!-- Generator: Adobe Illustrator 19.0.0, SVG Export Plug-In . SVG Version: 6.00 Build 0)  -->
<svg version="1.1" id="Layer_1" xmlns="http://www.w3.org/2000/svg" xmlns:xlink="http://www.w3.org/1999/xlink" x="0px" y="0px"
	 viewBox="0 0 512 512" style="enable-background:new 0 0 512 512;" xml:space="preserve">
<path style="fill:#314E55;" d="M102.516,85.392c1.435,2.17,3.01,4.258,4.59,6.338l102.612,136.441
	c0.858,1.121,1.775,2.224,2.86,3.187c4.912,4.304,10.301,7.159,16.003,8.485c2.969,0.695,5.702,1.003,8.217,1.003
	c10.042,0,16.575-4.894,20.51-9.534c6.315-7.459,9.629-16.366,9.583-25.749c-0.145-33.73-0.345-67.465-0.549-101.195l-0.35-59.52
	c-0.023-4.812-0.54-9.256-1.584-13.587v-0.005c-1.099-4.54-2.796-10.464-6.219-16.003c-1.412-2.283-3.741-5.602-7.681-8.09
	c-4.208-2.647-8.308-4.558-12.548-5.852l-3.309-0.953L224.449,0l-1.267,1.026c-4.944,1.326-9.597,3.055-14.119,4.735L205.437,7.1
	c-28.859,10.437-57.718,20.896-86.559,31.361c-6.487,2.342-12.039,5.974-16.493,10.782c-5.747,6.192-7.786,13.905-5.897,22.313
	C97.55,76.295,99.579,80.952,102.516,85.392z"/>
<path style="fill:#E65F58;" d="M116.018,61.886c2.456-2.651,5.461-4.594,9.193-5.942c28.846-10.469,57.696-20.919,86.564-31.361
	l3.768-1.389c4.816-1.789,9.37-3.482,13.978-4.599l3.046,0.513c2.62,0.799,5.248,2.038,8.031,3.791
	c0.504,0.318,1.085,1.017,1.775,2.129c2.025,3.282,3.137,7.195,3.959,10.591c0.704,2.914,1.053,5.961,1.067,9.325l0.35,59.539
	c0.204,33.721,0.409,67.438,0.549,101.168c0.023,4.966-1.716,9.556-5.175,13.642c-1.789,2.102-4.263,3.854-10.319,2.442
	c-2.737-0.635-5.348-2.066-8.321-4.867l-101.39-134.83l-1.171-1.548c-1.339-1.761-2.678-3.518-3.895-5.357
	c-1.707-2.583-2.819-5.084-3.396-7.654C114.011,64.732,114.701,63.306,116.018,61.886z"/>
<path style="fill:#314E55;" d="M216.586,321.531c2.91-2.206,5.125-5.194,6.764-9.143c1.439-3.45,1.929-6.819,2.324-9.515
	c1.276-8.625-1.294-16.724-7.441-23.443c-3.8-4.14-8.335-7.527-13.487-10.078l-15.935-7.863
	c-29.976-14.79-59.952-29.581-89.968-44.29c-6.433-3.151-13.583-4.821-21.251-4.966h-0.005c-4.758-0.014-8.662,0.844-12.103,2.842
	c-5.266,3.083-9.488,7.114-12.561,11.989c-2.147,3.414-3.382,7.018-3.673,10.723c-0.386,4.966-0.804,9.924-1.221,14.886
	l-5.534,65.336l-0.635,13.156l1.462,7.318c0.404,1.916,0.826,3.822,1.444,5.666c2.048,6.156,6.828,10.514,13.456,12.248
	c2.406,0.635,4.876,0.953,7.459,0.953c2.184,0,4.449-0.227,6.819-0.681c1.816-0.345,3.614-0.808,5.407-1.271
	c1.04-0.272,2.075-0.545,3.092-0.772l40.967-8.843c26.843-5.784,53.682-11.567,80.521-17.387
	C207.284,327.36,211.906,325.108,216.586,321.531z"/>
<path style="fill:#E65F58;" d="M118.047,327.605l-27.906,6.011c-4.39,0.944-8.784,1.879-13.188,2.86
	c-1.253,0.281-2.492,0.599-3.732,0.926c-1.394,0.363-2.787,0.726-4.204,0.999c-2.402,0.463-4.372,0.454-6.61-0.127
	c-0.395-1.18-0.631-2.406-0.89-3.623l-1.062-4.603v-7.209c0.241-0.835,0.531-1.961,0.649-3.296l5.457-65.309
	c0.422-5.003,0.844-10.001,1.23-15.004c0.032-0.427,0.159-1.13,0.872-2.265c1.48-2.352,3.514-4.263,6.192-5.829
	c0.218-0.132,0.749-0.381,2.392-0.309c4.93,0.091,9.447,1.126,13.419,3.069c29.998,14.7,59.956,29.481,89.918,44.262l15.921,7.863
	c3.078,1.525,5.784,3.541,8.022,5.974c2.388,2.615,3.21,5.048,2.746,8.171c-0.281,1.943-0.549,3.777-1.09,5.075
	c-0.499,1.198-0.826,1.471-0.858,1.489c-2.52,1.925-4.671,3.033-6.778,3.487C171.716,316.038,144.886,321.822,118.047,327.605z"/>
<path style="fill:#314E55;" d="M469.817,366.91c-2.874-10.641-12.012-14.609-15.04-15.916c-1.621-0.708-3.323-1.262-5.021-1.798
	l-1.026-0.327c-0.767-0.245-1.548-0.445-2.329-0.645l-118.369-37.053c-5.788-1.789-11.762-1.988-17.755-0.554
	c-10.528,2.488-18.136,10.505-19.389,20.429c-1.044,8.317,0.635,16.361,4.857,23.262l29.549,48.194
	c10.596,17.26,21.191,34.52,31.76,51.798c3.346,5.475,7.645,10.269,13.129,14.645c1.829,1.462,3.84,2.724,5.865,3.85
	c3.464,1.925,7.141,2.896,10.986,2.896c1.335,0,2.687-0.118,4.054-0.354c5.942-1.017,11.654-3.459,17.492-7.482
	c1.825-1.262,3.491-2.896,4.862-4.776l48.021-66.87c3.473-4.821,6.006-10.423,7.749-17.088c0.245-0.944,0.422-1.907,0.754-3.75
	l0.172-6.038L469.817,366.91z"/>
<path style="fill:#E65F58;" d="M451.486,373.066c-0.077,0.445-0.145,0.89-0.263,1.344c-1.171,4.485-2.71,7.963-4.848,10.932
	l-48.366,67.224c-3.596,2.47-6.792,3.886-10.051,4.44c-1.112,0.191-1.929,0.063-2.887-0.472c-1.139-0.626-2.27-1.307-3.287-2.116
	c-3.763-3.005-6.664-6.219-8.866-9.815c-10.573-17.287-21.173-34.556-31.774-51.826l-29.535-48.167
	c-2.057-3.368-2.796-7.036-2.27-11.24c0.277-2.206,2.233-3.95,5.239-4.667c1.235-0.291,2.442-0.445,3.627-0.445
	c1.448,0,2.869,0.227,4.281,0.663l117.202,36.736c0.699,0.218,1.403,0.4,2.106,0.581l2.374,0.699
	c1.076,0.336,2.165,0.663,3.191,1.108l0.018,0.009c2.742,1.189,3.745,2.152,4.168,2.878L451.486,373.066z"/>
<path style="fill:#314E55;" d="M239.744,332.862c-9.075,0.744-17.097,4.576-23.203,11.095
	c-27.288,29.118-54.45,58.336-81.584,87.571c-5.243,5.647-9.007,12.575-11.186,20.601c-1.162,4.286-1.171,8.162-0.032,11.83
	c1.335,4.358,3.137,7.981,5.511,11.059c3.886,5.057,8.771,8.517,14.5,10.278c25.522,7.899,51.045,15.753,76.576,23.579
	c2.447,0.754,4.939,1.38,7.432,2.007l3.155,0.808L243.552,512l2.088-0.2l1.044-0.345c8.199-1.326,14.218-6.464,16.983-14.491
	c1.221-3.523,1.839-7.218,1.839-10.995l-0.023-3.259c-0.018-1.507-0.036-3.005-0.014-4.503l0.994-63.302
	c0.286-17.887,0.572-35.773,0.785-53.66c0.095-7.808-2.746-14.981-8.212-20.71C253.708,334.923,246.989,332.236,239.744,332.862z"/>
<path style="fill:#E65F58;" d="M248.655,361.027c-0.213,17.859-0.499,35.719-0.781,53.578l-0.999,63.338
	c-0.023,1.652-0.005,3.314,0.014,4.966l0.023,3.06c0,1.698-0.272,3.35-0.817,4.921c-0.622,1.807-1.189,2.043-2.374,2.215
	c-0.59,0.073-1.117,0.182-1.58,0.3h-7.69l-2.152-0.554c-2.179-0.545-4.363-1.09-6.514-1.752
	c-25.522-7.827-51.036-15.68-76.553-23.57c-2.011-0.617-3.727-1.879-5.243-3.841c-1.003-1.307-1.789-2.951-2.479-5.203
	c0,0-0.095-0.372,0.204-1.471c1.385-5.094,3.695-9.415,6.873-12.829c27.116-29.218,54.259-58.417,81.52-87.517
	c2.937-3.133,6.692-4.903,11.15-5.266c1.09-0.136,2.524,0.054,4.313,1.952c2.116,2.215,3.123,4.721,3.087,7.663L248.655,361.027
	L248.655,361.027z"/>
<path style="fill:#314E55;" d="M306.192,287.374h0.009c1.92,0.427,3.881,0.672,5.915,0.908l3.782,0.49l3.328-0.499
	c2.043-0.263,4.118-0.563,6.156-1.135c27.642-7.845,55.271-15.726,82.905-23.616l32.604-9.297c6.86-1.952,13.315-5.429,19.73-10.623
	c6.633-5.366,9.724-12.897,8.934-21.8c-0.436-4.771-1.553-9.334-3.305-13.537c-0.781-1.889-1.87-3.664-3.155-5.157l-44.839-51.567
	c-2.933-3.378-5.834-6.782-8.73-10.187l-4.122-4.844c-3.573-4.177-7.876-7.191-12.798-8.952c-8.812-3.173-17.319-1.857-24.601,3.759
	c-3.005,2.315-5.647,5.112-7.854,8.326c-0.654,0.953-1.271,1.934-1.884,2.915l-66.825,102.616
	c-3.228,4.957-4.985,10.514-5.225,16.543C285.745,274.5,293.585,284.569,306.192,287.374z"/>
<path style="fill:#E65F58;" d="M307.018,255.324l50.2-77.044l16.806-25.849c0.477-0.767,0.953-1.53,1.457-2.265
	c1.117-1.625,2.383-2.974,3.872-4.122c2.229-1.702,4.177-1.979,6.982-0.981c1.857,0.663,3.468,1.82,4.93,3.532l4.095,4.808
	c2.942,3.455,5.883,6.91,8.857,10.332l44.862,51.667c1.049,2.515,1.689,5.162,1.952,8.067c0.277,3.087-0.604,4.462-2.111,5.679
	c-4.426,3.586-8.721,5.938-13.129,7.191l-32.609,9.306c-27.624,7.881-55.244,15.762-82.837,23.597
	c-1.144,0.318-2.338,0.436-3.505,0.59l-1.121,0.154l-1.462-0.182c-1.385-0.163-2.728-0.3-4.036-0.59
	c-3.841-0.854-5.561-3.023-5.425-6.792C304.902,259.782,305.633,257.457,307.018,255.324z"/>
<g>
</g>
<g>
</g>
<g>
</g>
<g>
</g>
<g>
</g>
<g>
</g>
<g>
</g>
<g>
</g>
<g>
</g>
<g>
</g>
<g>
</g>
<g>
</g>
<g>
</g>
<g>
</g>
<g>
</g>
</svg>
