<?xml version="1.0" encoding="iso-8859-1"?>
<!-- Generator: Adobe Illustrator 19.0.0, SVG Export Plug-In . SVG Version: 6.00 Build 0)  -->
<svg version="1.1" id="Layer_1" xmlns="http://www.w3.org/2000/svg" xmlns:xlink="http://www.w3.org/1999/xlink" x="0px" y="0px"
	 viewBox="0 0 512 512" style="enable-background:new 0 0 512 512;" xml:space="preserve">
<path style="fill:#314E55;" d="M410.184,67.918H101.816C45.674,67.918,0,113.735,0,170.051v171.898
	c0,56.316,45.674,102.133,101.816,102.133h308.367c56.143,0,101.816-45.816,101.816-102.133V170.051
	C512,113.735,466.326,67.918,410.184,67.918z"/>
<path style="fill:#E65F58;" d="M491.102,341.949c0,44.791-36.301,81.235-80.918,81.235H101.816
	c-44.617,0-80.918-36.444-80.918-81.235V170.051c0-44.791,36.301-81.235,80.918-81.235h308.367
	c44.617,0,80.918,36.444,80.918,81.235V341.949z"/>
<path style="fill:#314E55;" d="M348.582,252.219l-144.77-84.796c-3.214-1.883-7.224-1.913-10.475-0.051
	c-3.25,1.862-5.255,5.321-5.255,9.066V346.01c0,3.745,2.005,7.204,5.25,9.066c1.612,0.923,3.408,1.383,5.199,1.383
	c1.826,0,3.648-0.48,5.281-1.434l144.77-84.775c3.199-1.872,5.168-5.306,5.168-9.015S351.786,254.092,348.582,252.219z"/>
<polygon style="fill:#EBEBEB;" points="208.98,327.781 208.98,194.668 322.622,261.235 "/>
<g>
</g>
<g>
</g>
<g>
</g>
<g>
</g>
<g>
</g>
<g>
</g>
<g>
</g>
<g>
</g>
<g>
</g>
<g>
</g>
<g>
</g>
<g>
</g>
<g>
</g>
<g>
</g>
<g>
</g>
</svg>
