<?xml version="1.0" encoding="iso-8859-1"?>
<!-- Generator: Adobe Illustrator 19.0.0, SVG Export Plug-In . SVG Version: 6.00 Build 0)  -->
<svg version="1.1" id="Layer_1" xmlns="http://www.w3.org/2000/svg" xmlns:xlink="http://www.w3.org/1999/xlink" x="0px" y="0px"
	 viewBox="0 0 512 512" style="enable-background:new 0 0 512 512;" xml:space="preserve">
<path style="fill:#314E55;" d="M449.301,391.826c-0.828-3.283-3.213-5.947-6.386-7.114c-3.183-1.172-6.735-0.684-9.479,1.277
	c-48.662,34.823-98.891,7.209-152.074-22.006c-29.086-15.98-58.989-32.408-89.732-38.994c25.134-27.863,52.095-56.58,78.297-84.478
	c30.662-32.648,62.362-66.413,92.026-99.705c4.34-4.874,8.9-9.689,13.49-14.533c26.442-27.913,56.405-59.553,50.039-110.032
	c-0.349-2.779-1.826-5.288-4.071-6.95c-2.255-1.656-5.089-2.32-7.843-1.836c-74.864,13.226-182.097,19.472-237.984-6.501
	c-3.991-1.856-8.711-0.953-11.724,2.24c-21.692,22.899-45.629,52.758-38.176,80.667c8.641,32.214,65.316,30.687,120.144,29.265
	c2.464-0.065,4.899-0.13,7.304-0.19c-36.539,48.338-80.232,100.797-130.132,156.21c-4.61,5.124-9.439,10.088-14.268,15.052
	c-27.12,27.918-57.862,59.558-47.365,119.152c0.948,5.418,6.027,9.135,11.475,8.347c54.46-7.623,105.617,3.487,152.114,33.067
	c9.729,6.201,19.128,13.136,29.076,20.485c23.059,17.012,46.906,34.608,75.324,42.636c9.778,2.764,19.607,4.116,29.225,4.116
	c25.075,0,48.762-9.19,66.653-26.541C449.5,461.921,458.271,427.796,449.301,391.826z"/>
<path style="fill:#D26CBA;" d="M411.005,470.786c-19.457,18.873-47.894,25.399-76.102,17.431
	c-24.825-7.014-47.146-23.488-68.738-39.413c-9.788-7.224-19.916-14.697-30.233-21.278c-40.381-25.688-83.984-38.615-130.053-38.615
	c-8.491,0-17.062,0.439-25.713,1.317c-4.201-42.975,17.9-65.725,43.224-91.787c5.009-5.149,10.008-10.302,14.797-15.62
	c56.116-62.317,104.489-120.983,143.782-174.369c2.285-3.103,2.624-7.229,0.888-10.666s-5.268-5.608-9.12-5.608
	c-8.731,0-18.389,0.254-28.447,0.519c-35.641,0.943-95.399,2.529-99.869-14.114c-4.71-17.661,16.394-43.03,28.407-56.131
	c71.123,28.642,189.331,13.775,232.077,6.999c0.11,34.833-22.001,58.181-45.3,82.772c-4.73,4.994-9.429,9.958-13.919,14.992
	c-29.475,33.087-61.085,66.752-91.657,99.31c-30.772,32.773-62.602,66.658-91.408,99.111c-2.594,2.923-3.293,7.069-1.806,10.681
	c1.497,3.612,4.919,6.061,8.82,6.301c33.137,2.056,67.58,20.974,100.887,39.273c52.135,28.642,105.876,58.151,160.385,29.086
	C434.054,434.252,426.75,455.52,411.005,470.786z"/>
<g>
</g>
<g>
</g>
<g>
</g>
<g>
</g>
<g>
</g>
<g>
</g>
<g>
</g>
<g>
</g>
<g>
</g>
<g>
</g>
<g>
</g>
<g>
</g>
<g>
</g>
<g>
</g>
<g>
</g>
</svg>
