<?xml version="1.0" encoding="iso-8859-1"?>
<!-- Generator: Adobe Illustrator 19.0.0, SVG Export Plug-In . SVG Version: 6.00 Build 0)  -->
<svg version="1.1" id="Layer_1" xmlns="http://www.w3.org/2000/svg" xmlns:xlink="http://www.w3.org/1999/xlink" x="0px" y="0px"
	 viewBox="0 0 512 512" style="enable-background:new 0 0 512 512;" xml:space="preserve">
<path style="fill:#314E55;" d="M509.3,186.307L388.771,65.769c-3.456-3.456-9.577-3.456-13.033,0L255.982,185.524l-119.71-119.71
	c-3.6-3.6-9.433-3.6-13.033,0L2.7,186.343c-1.728,1.728-2.7,4.068-2.7,6.517s0.972,4.788,2.7,6.516l246.81,246.81
	c1.728,1.728,4.068,2.7,6.516,2.7c2.448,0,4.788-0.972,6.517-2.7l120.529-120.538c0.243-0.243,0.468-0.495,0.675-0.756L509.3,199.34
	C512.9,195.74,512.9,189.907,509.3,186.307z"/>
<path style="fill:#D8D8D8;" d="M369.995,312.579c-0.243,0.243-0.468,0.495-0.675,0.756L256.027,426.637L22.25,192.86L129.755,85.363
	l119.71,119.71c3.6,3.6,9.433,3.6,13.033,0L382.254,85.318L489.75,192.823L369.995,312.579z"/>
<g>
</g>
<g>
</g>
<g>
</g>
<g>
</g>
<g>
</g>
<g>
</g>
<g>
</g>
<g>
</g>
<g>
</g>
<g>
</g>
<g>
</g>
<g>
</g>
<g>
</g>
<g>
</g>
<g>
</g>
</svg>
