<?xml version="1.0" encoding="iso-8859-1"?>
<!-- Generator: Adobe Illustrator 19.0.0, SVG Export Plug-In . SVG Version: 6.00 Build 0)  -->
<svg version="1.1" id="Layer_1" xmlns="http://www.w3.org/2000/svg" xmlns:xlink="http://www.w3.org/1999/xlink" x="0px" y="0px"
	 viewBox="0 0 512 512" style="enable-background:new 0 0 512 512;" xml:space="preserve">
<path style="fill:#314E55;" d="M361.404,324.813l0.009-28.41l-0.009-40.339c-0.009-26.098-0.022-52.201,0.031-78.299
	c0.054-25.356-9.29-47.357-27.771-65.4c-19.376-18.919-44.052-30.906-77.651-37.718c-44.128-8.946-90.129-9.214-136.712-0.774
	c-23.88,4.321-43.837,11.933-61.016,23.262C27.262,117.602,9.868,148.491,6.58,188.951c-0.385,4.746,1.382,7.742,2.934,9.415
	c3.395,3.677,8.033,3.623,9.862,3.663l3.162-0.014c11.137-0.054,22.278-0.094,33.424,0.058c5.202-0.027,11.499-1.82,13.534-11.132
	c1.731-7.912,3.994-16.97,8.972-24.349c7.648-11.32,19.465-19.103,37.199-24.484c31.403-9.531,63.673-9.357,93.868-7.756
	c16.907,0.899,32.06,3.506,46.315,7.966c10.766,3.377,22.945,8.064,31.685,17.247c8.069,8.48,7.738,15.238,6.785,19.582
	c-1.449,6.624-5.944,11.289-16.021,16.638c-22.453,11.902-47.965,15.856-72.176,18.884c-8.847,1.105-17.721,1.977-26.599,2.849
	c-16.146,1.588-32.843,3.229-49.294,6.293c-32.396,6.043-56.249,13.771-77.337,25.056c-24.967,13.369-41.95,33.425-49.115,58.007
	c-7.295,25.025-3.905,53.744,9.066,76.819c12.805,22.793,34.198,38.425,65.4,47.782c28.375,8.512,57.38,12.779,86.663,12.779
	c14.55,0,29.175-1.055,43.815-3.167c35.267-5.085,66.008-14.594,93.882-29.095c0.501,1.216,1.011,2.429,1.516,3.641
	c1.396,3.337,2.795,6.669,4.07,10.068c3.207,8.494,9.925,10.077,14.76,9.974c6.906-0.192,15.086-0.349,23.321,0.018
	c2.004,0.085,7.268,0.318,11.28-3.538c4.008-3.855,3.981-9.138,3.972-11.119C361.377,388.957,361.391,356.883,361.404,324.813z
	 M292.994,336.071c-9.066,8.131-20.194,14.903-36.09,21.97c-36.484,16.258-76.68,21.335-122.937,15.484
	c-13.785-1.74-29.878-4.513-44.718-11.893c-10.484-5.211-16.866-11.289-20.087-19.125c-5.385-13.114-1.704-26.179,9.844-34.945
	c11.495-8.722,25.284-13.338,42.455-17.582c23.24-5.743,47.715-8.082,71.384-10.341c5.001-0.479,10.005-0.957,15.001-1.463
	c30.276-3.073,59.845-6.843,88.193-18.24l-0.049,42.173c-0.054,8.977-0.107,17.958,0.161,26.921
	C296.237,332.055,295.414,333.898,292.994,336.071z"/>
<path style="fill:#81A4E3;" d="M343.084,324.805l0.009-28.402l-0.009-40.335c-0.009-26.112-0.022-52.228,0.031-78.339
	c0.045-20.507-7.232-37.598-22.252-52.259c-16.741-16.343-38.501-26.787-68.49-32.87c-41.851-8.494-85.527-8.726-129.807-0.702
	c-21.398,3.873-39.123,10.591-54.191,20.53c-24.721,16.312-38.778,39.664-42.831,71.254c8.927-0.036,17.868-0.063,26.796,0.027
	c2.107-8.972,4.996-18.553,10.945-27.368c10.131-14.997,25.083-25.092,47.062-31.765c24.027-7.299,48.104-9.384,71.375-9.384
	c9.759,0,19.376,0.367,28.791,0.868c18.454,0.979,35.075,3.851,50.819,8.775c13.002,4.079,27.86,9.894,39.476,22.1
	c10.421,10.949,14.263,23.106,11.414,36.13c-3.399,15.511-15.328,23.593-25.338,28.903c-25.195,13.36-52.586,17.64-78.487,20.879
	c-9.008,1.127-18.043,2.017-27.078,2.903c-15.762,1.552-32.06,3.153-47.728,6.069c-30.468,5.685-52.688,12.841-72.051,23.204
	c-20.816,11.146-34.332,26.948-40.169,46.977c-5.949,20.4-3.162,43.846,7.443,62.721c10.515,18.709,27.892,31.166,54.692,39.203
	c39.91,11.973,81.162,15.015,122.606,9.03c35.656-5.144,66.272-15.024,93.596-30.204c1.404-0.774,5.636-3.122,10.457-1.36
	c4.741,1.731,6.369,6.016,7.067,7.841c1.194,3.135,2.491,6.23,3.788,9.326c1.216,2.907,2.433,5.815,3.574,8.744
	c5.703-0.139,12.036-0.228,18.571-0.049C343.057,386.022,343.07,355.416,343.084,324.805z M292.994,336.071
	c-9.066,8.131-20.194,14.903-36.09,21.97c-36.484,16.258-76.68,21.335-122.937,15.484c-13.785-1.74-29.878-4.513-44.718-11.893
	c-10.484-5.211-16.866-11.289-20.087-19.125c-5.385-13.114-1.704-26.179,9.844-34.945c11.495-8.722,25.284-13.338,42.455-17.582
	c23.24-5.743,47.715-8.082,71.384-10.341c5.001-0.479,10.005-0.957,15.001-1.463c30.276-3.073,59.845-6.843,88.193-18.24
	l-0.049,42.173c-0.054,8.977-0.107,17.958,0.161,26.921C296.237,332.055,295.414,333.898,292.994,336.071z"/>
<g>
	<path style="fill:#314E55;" d="M314.311,302.217l0.054-52.353c0.009-2.044,0.027-7.474-4.893-10.6
		c-3.346-2.129-7.295-2.138-11.701-0.058c-28.5,13.449-59.675,17.484-91.775,20.744c-4.96,0.501-9.929,0.975-14.89,1.449
		c-24.331,2.326-49.486,4.728-74.041,10.797c-15.614,3.86-33.577,8.968-49.133,20.776c-18.02,13.678-24.188,35.853-15.717,56.495
		c4.938,12.023,14.384,21.366,28.876,28.572c17.394,8.646,36.166,11.844,50.582,13.664c13.132,1.655,25.816,2.487,38.121,2.487
		c34.216,0,65.409-6.432,94.557-19.412c17.721-7.877,30.329-15.61,40.885-25.078l0.005-0.005c6.36-5.716,9.464-12.846,9.223-21.201
		C314.204,319.742,314.257,310.979,314.311,302.217z M292.994,336.071c-9.066,8.131-20.194,14.903-36.09,21.97
		c-36.484,16.258-76.68,21.335-122.937,15.484c-13.785-1.74-29.878-4.513-44.718-11.893c-10.484-5.211-16.866-11.289-20.087-19.125
		c-5.385-13.114-1.704-26.179,9.844-34.945c11.495-8.722,25.284-13.338,42.455-17.582c23.24-5.743,47.715-8.082,71.384-10.341
		c5.001-0.479,10.005-0.957,15.001-1.463c30.276-3.073,59.845-6.843,88.193-18.24l-0.049,42.173
		c-0.054,8.977-0.107,17.958,0.161,26.921C296.237,332.055,295.414,333.898,292.994,336.071z"/>
	<path style="fill:#314E55;" d="M472.412,366.231c-0.027,0-0.049,0-0.076,0c-21.863,0-39.673,17.448-39.713,38.926
		c-0.027,10.211,4.021,19.912,11.392,27.31c7.563,7.595,17.605,11.786,28.272,11.799c0.018,0,0.036,0,0.058,0
		c10.52,0,20.436-4.03,27.927-11.347c7.554-7.389,11.723-17.207,11.727-27.655C512.013,383.419,494.623,366.271,472.412,366.231z"/>
</g>
<path style="fill:#81A4E3;" d="M487.467,419.814c-4.048,3.954-9.415,6.132-15.127,6.132c-0.009,0-0.018,0-0.027,0
	c-5.77-0.009-11.208-2.285-15.319-6.409c-3.914-3.927-6.065-9.022-6.052-14.339c0.022-11.392,9.612-20.646,21.393-20.646
	c0.014,0,0.027,0,0.04,0c11.951,0.022,21.308,9.115,21.303,20.704C493.675,410.73,491.47,415.9,487.467,419.814z"/>
<path style="fill:#314E55;" d="M472.269,205.665c0.009,0,0.014,0,0.022,0c21.885,0,39.695-17.511,39.708-39.047
	c0.014-21.849-17.372-38.997-39.57-39.038c-0.027,0-0.049,0-0.076,0c-21.854,0-39.677,17.426-39.74,38.877
	c-0.027,10.216,4.043,19.944,11.468,27.395C451.56,201.354,461.834,205.661,472.269,205.665z"/>
<path style="fill:#81A4E3;" d="M472.354,145.901c0.014,0,0.027,0,0.04,0c11.942,0.022,21.29,9.12,21.286,20.709
	c-0.005,11.437-9.598,20.735-21.388,20.735c-0.005,0-0.009,0-0.014,0c-5.604-0.005-11.15-2.344-15.216-6.427
	c-3.967-3.976-6.141-9.093-6.128-14.407C450.97,155.137,460.573,145.901,472.354,145.901z"/>
<path style="fill:#314E55;" d="M472.506,246.917c-0.067,0-0.134,0-0.201,0c-10.65,0-20.655,4.106-28.187,11.58
	c-7.384,7.317-11.468,16.996-11.504,27.252c-0.071,21.205,18.043,39.217,39.556,39.333c0.071,0,0.143,0,0.215,0
	c10.497,0,20.418-4.11,27.963-11.584c7.474-7.407,11.611-17.153,11.651-27.445C512.08,264.213,494.735,247.024,472.506,246.917z"/>
<path style="fill:#81A4E3;" d="M487.454,300.482c-4.119,4.084-9.804,6.074-15.185,6.28c-11.401-0.063-21.37-9.849-21.335-20.95
	c0.018-5.354,2.178-10.435,6.083-14.308c4.101-4.066,9.755-5.904,15.399-6.266c11.969,0.058,21.308,9.169,21.263,20.744
	C493.657,291.375,491.448,296.528,487.454,300.482z"/>
<g>
</g>
<g>
</g>
<g>
</g>
<g>
</g>
<g>
</g>
<g>
</g>
<g>
</g>
<g>
</g>
<g>
</g>
<g>
</g>
<g>
</g>
<g>
</g>
<g>
</g>
<g>
</g>
<g>
</g>
</svg>
