<?xml version="1.0" encoding="iso-8859-1"?>
<!-- Generator: Adobe Illustrator 19.0.0, SVG Export Plug-In . SVG Version: 6.00 Build 0)  -->
<svg version="1.1" id="Layer_1" xmlns="http://www.w3.org/2000/svg" xmlns:xlink="http://www.w3.org/1999/xlink" x="0px" y="0px"
	 viewBox="0 0 512 512" style="enable-background:new 0 0 512 512;" xml:space="preserve">
<path style="fill:#314E55;" d="M251.228,265.333c-6.861-10.114-16.066-18.249-27.482-24.31c6.795-5.161,12.463-11.042,16.952-17.614
	c7.889-11.696,11.89-26.27,11.89-43.316c0-15.512-2.628-28.799-7.813-39.519c-5.365-11.033-13.031-20.01-22.823-26.715
	c-9.56-6.487-20.858-11.146-33.591-13.864c-12.415-2.718-25.853-4.034-41.09-4.034H0v320.08h151.237
	c14.2,0,28.202-1.809,41.597-5.379c13.902-3.684,26.403-9.413,37.18-17.056c11.208-8.002,20.162-18.315,26.597-30.626
	c6.525-12.387,9.835-27.17,9.835-43.922C266.446,298.298,261.327,280.22,251.228,265.333z M77.579,163.842h53.17
	c5.715,0,10.668,0.417,15.342,1.298c4.28,0.72,7.941,1.998,11.383,4.015c2.666,1.477,4.787,3.618,6.416,6.392
	c1.615,2.851,2.434,6.866,2.434,11.932c0,13.41-5.403,17.245-7.178,18.505l-0.009,0.009c-5.99,4.262-13.632,6.336-23.372,6.336
	H77.579V163.842z M171.773,332.125c-1.875,3.769-4.423,6.8-7.742,9.101c-3.196,2.33-7.117,4.006-11.985,5.123l-0.057,0.019
	c-4.83,1.146-10.289,1.723-16.227,1.723H77.579V280.21h59.486c11.942,0,21.464,2.784,28.216,8.201
	c6.25,5.123,9.423,14.366,9.423,27.473C174.704,322.788,173.724,328.233,171.773,332.125z"/>
<path style="fill:#81A4E3;" d="M235.176,276.223c-7.822-11.535-19.513-19.433-35.74-24.139l-24.49-7.093l23.017-10.966
	c11.8-5.625,20.777-12.86,26.687-21.507c5.658-8.39,8.542-19.309,8.542-32.426c0-12.557-1.975-23.003-5.867-31.052
	c-3.925-8.068-9.257-14.338-16.298-19.158c-7.443-5.047-16.45-8.732-26.725-10.919l-0.052-0.019
	c-11.047-2.415-23.14-3.589-36.981-3.589H19.395v281.29h131.843c12.52,0,24.84-1.591,36.621-4.726
	c11.662-3.097,22.056-7.841,30.91-14.12c8.684-6.193,15.645-14.224,20.669-23.827c5.057-9.603,7.614-21.346,7.614-34.916
	C247.051,302.01,243.168,288.004,235.176,276.223z M77.579,163.842h53.17c5.715,0,10.668,0.417,15.342,1.298
	c4.28,0.72,7.941,1.998,11.383,4.015c2.666,1.477,4.787,3.618,6.416,6.392c1.615,2.851,2.434,6.866,2.434,11.932
	c0,13.41-5.403,17.245-7.178,18.505l-0.009,0.009c-5.99,4.262-13.632,6.336-23.372,6.336H77.579V163.842z M171.773,332.125
	c-1.875,3.769-4.423,6.8-7.742,9.101c-3.196,2.33-7.117,4.006-11.985,5.123l-0.057,0.019c-4.83,1.146-10.289,1.723-16.227,1.723
	H77.579V280.21h59.486c11.942,0,21.464,2.784,28.216,8.201c6.25,5.123,9.423,14.366,9.423,27.473
	C174.704,322.788,173.724,328.233,171.773,332.125z"/>
<g>
	<path style="fill:#314E55;" d="M180.699,165.868c-3.457-5.9-8.102-10.493-13.604-13.552c-5.313-3.116-11.127-5.18-17.586-6.269
		c-5.687-1.08-11.824-1.601-18.761-1.601H58.184v87.276h77.579c13.713,0,25.361-3.343,34.613-9.925
		c10.18-7.235,15.342-18.779,15.342-34.32C185.718,179.032,184.056,171.806,180.699,165.868z M159.145,205.983l-0.009,0.009
		c-5.99,4.262-13.632,6.336-23.372,6.336H77.579v-48.487h53.17c5.715,0,10.668,0.417,15.342,1.298
		c4.28,0.72,7.941,1.998,11.383,4.015c2.666,1.477,4.787,3.618,6.416,6.392c1.615,2.851,2.434,6.866,2.434,11.932
		C166.323,200.888,160.921,204.724,159.145,205.983z"/>
	<path style="fill:#314E55;" d="M436.51,332.637c-1.359,4.394-5.54,9.072-12.07,13.523c-7.032,4.773-15.649,7.188-25.617,7.188
		c-14.073,0-24.774-3.39-31.81-10.076l-0.005-0.009c-5.417-5.133-9.371-14.091-10.943-24.196h154.931l0.611-9.044
		c1.184-17.359-0.317-34.206-4.446-50.068c-4.252-16.289-11.213-30.901-20.673-43.401c-9.726-12.908-22.226-23.268-37.128-30.768
		c-15.005-7.623-32.686-11.487-52.545-11.487c-17.714,0-34.173,3.144-48.937,9.357c-14.617,6.175-27.478,14.792-38.221,25.626
		c-10.54,10.616-18.888,23.609-24.831,38.638c-5.748,14.754-8.66,30.787-8.66,47.653c0,17.434,2.832,33.723,8.424,48.43
		c5.64,14.735,13.732,27.643,24.144,38.477c10.744,10.891,23.292,19.044,38.411,24.935c14.915,5.72,31.63,8.627,49.671,8.627
		c26.374,0,49.235-6.033,67.882-17.898c19.172-11.999,33.538-32.047,42.691-59.586l4.243-12.756h-73.01L436.51,332.637z
		 M357.686,258.855c1.212-4.517,3.277-8.637,6.227-12.491c3.073-3.902,7.145-7.264,12.089-9.963
		c4.801-2.604,11.203-3.921,19.035-3.921c11.814,0,21.161,3.286,26.303,9.243c4.536,5.265,7.78,11.923,9.707,19.849h-74.07
		C357.193,260.692,357.425,259.783,357.686,258.855z"/>
	<path style="fill:#314E55;" d="M177.498,273.344c-10.36-8.315-23.964-12.529-40.433-12.529H58.184v106.671h77.579
		c7.425,0,14.371-0.758,20.659-2.235c7.344-1.705,13.741-4.498,18.85-8.22c5.862-4.072,10.531-9.555,13.85-16.241
		c3.348-6.667,4.976-14.811,4.976-24.906C194.099,296.688,188.54,282.398,177.498,273.344z M171.773,332.125
		c-1.875,3.769-4.423,6.8-7.742,9.101c-3.196,2.33-7.117,4.006-11.985,5.123l-0.057,0.019c-4.83,1.146-10.289,1.723-16.227,1.723
		H77.579V280.21h59.486c11.942,0,21.464,2.784,28.216,8.201c6.25,5.123,9.423,14.366,9.423,27.473
		C174.704,322.788,173.724,328.233,171.773,332.125z"/>
</g>
<path style="fill:#81A4E3;" d="M435.34,362.202c-10.318,6.998-22.6,10.54-36.517,10.54c-19.215,0-34.414-5.19-45.172-15.417
	c-10.933-10.379-17.728-28.761-17.728-47.956v-9.697h156.678c0.09-12.065-1.321-23.742-4.209-34.822
	c-3.603-13.807-9.451-26.128-17.382-36.612c-7.926-10.531-18.149-18.978-30.399-25.143c-12.292-6.25-27.013-9.404-43.795-9.404
	c-15.114,0-29.045,2.633-41.403,7.832c-12.264,5.18-23.031,12.387-31.985,21.412c-8.803,8.874-15.526,19.366-20.545,32.066
	c-4.854,12.453-7.32,26.118-7.32,40.57c0,15.067,2.405,29.035,7.15,41.517c4.768,12.444,11.284,22.88,19.92,31.857
	c8.698,8.817,19.035,15.512,31.512,20.38c12.642,4.849,27.014,7.32,42.672,7.32c22.629,0,41.986-5.019,57.536-14.906
	c12.529-7.841,22.316-19.859,29.727-36.545h-32.028C448.542,351.321,442.945,357.022,435.34,362.202z M357.686,258.855
	c1.212-4.517,3.277-8.637,6.227-12.491c3.073-3.902,7.145-7.264,12.089-9.963c4.801-2.604,11.203-3.921,19.035-3.921
	c11.814,0,21.161,3.286,26.303,9.243c4.536,5.265,7.78,11.923,9.707,19.849h-74.07C357.193,260.692,357.425,259.783,357.686,258.855
	z"/>
<g>
	<path style="fill:#314E55;" d="M452.074,270.399c-1.525-16.828-6.918-30.731-16.047-41.347
		c-8.902-10.294-23.457-15.966-40.991-15.966c-11.094,0-20.607,2.112-28.301,6.279c-7.287,3.977-13.362,9.025-18.149,15.114
		c-4.531,5.928-7.77,12.434-9.612,19.272c-1.723,6.241-2.742,11.942-3.035,16.961l-0.592,10.256h117.685L452.074,270.399z
		 M356.975,261.573c0.218-0.881,0.45-1.79,0.71-2.718c1.212-4.517,3.277-8.637,6.227-12.491c3.073-3.902,7.145-7.264,12.089-9.963
		c4.801-2.604,11.203-3.921,19.035-3.921c11.814,0,21.161,3.286,26.303,9.243c4.536,5.265,7.78,11.923,9.707,19.849H356.975z"/>
	<rect x="320.014" y="115.355" style="fill:#314E55;" width="145.461" height="48.487"/>
</g>
<rect x="339.408" y="134.749" style="fill:#81A4E3;" width="106.671" height="9.697"/>
<g>
</g>
<g>
</g>
<g>
</g>
<g>
</g>
<g>
</g>
<g>
</g>
<g>
</g>
<g>
</g>
<g>
</g>
<g>
</g>
<g>
</g>
<g>
</g>
<g>
</g>
<g>
</g>
<g>
</g>
</svg>
