<?xml version="1.0" encoding="iso-8859-1"?>
<!-- Generator: Adobe Illustrator 19.0.0, SVG Export Plug-In . SVG Version: 6.00 Build 0)  -->
<svg version="1.1" id="Layer_1" xmlns="http://www.w3.org/2000/svg" xmlns:xlink="http://www.w3.org/1999/xlink" x="0px" y="0px"
	 viewBox="0 0 512 512" style="enable-background:new 0 0 512 512;" xml:space="preserve">
<path style="fill:#314E55;" d="M455.003,201.388l-248.826-76.562c-3.542-1.065-7.449-0.009-9.944,2.766
	c-2.495,2.795-3.14,6.776-1.645,10.196l47.851,110.058c0.925,2.131,2.598,3.86,4.701,4.85l64.571,30.384L71.243,418.616
	l100.447-95.881c1.888-1.813,2.962-4.309,2.962-6.925V38.273c0-4.318-2.888-8.094-7.056-9.234L62.324,0.328
	c-2.841-0.766-5.944-0.178-8.327,1.626c-2.365,1.813-3.757,4.626-3.757,7.608v406.735c0,3.832,2.28,7.29,5.804,8.795
	c1.215,0.523,2.495,0.776,3.766,0.776c0.495,0,0.962-0.2,1.45-0.277c-0.843,1.351-1.352,2.91-1.441,4.548
	c-0.168,3.271,1.336,6.402,4,8.299l100.488,71.777c1.654,1.187,3.607,1.785,5.561,1.785c1.682,0,3.374-0.449,4.879-1.336
	l282.322-167.479c2.906-1.729,4.692-4.85,4.692-8.234V210.537C461.76,206.332,459.022,202.621,455.003,201.388z"/>
<g>
	<polygon style="fill:#DBCF56;" points="69.38,22.095 155.513,45.581 155.513,311.716 69.38,393.933 	"/>
	<path style="fill:#DBCF56;" d="M442.62,329.502L170.354,491.018l-83.169-59.412l250.079-140.956
		c3.122-1.757,4.991-5.112,4.86-8.692c-0.131-3.57-2.243-6.776-5.486-8.309l-78.085-36.739l-38.113-87.674l222.181,68.366V329.502z"
		/>
</g>
<g>
</g>
<g>
</g>
<g>
</g>
<g>
</g>
<g>
</g>
<g>
</g>
<g>
</g>
<g>
</g>
<g>
</g>
<g>
</g>
<g>
</g>
<g>
</g>
<g>
</g>
<g>
</g>
<g>
</g>
</svg>
