<?xml version="1.0" encoding="iso-8859-1"?>
<!-- Generator: Adobe Illustrator 19.0.0, SVG Export Plug-In . SVG Version: 6.00 Build 0)  -->
<svg version="1.1" id="Layer_1" xmlns="http://www.w3.org/2000/svg" xmlns:xlink="http://www.w3.org/1999/xlink" x="0px" y="0px"
	 viewBox="0 0 512 512" style="enable-background:new 0 0 512 512;" xml:space="preserve">
<path style="fill:#314E55;" d="M437.333,149.333c41.167,0,74.667-33.5,74.667-74.667S478.5,0,437.333,0s-74.667,33.5-74.667,74.667
	S396.167,149.333,437.333,149.333z"/>
<path style="fill:#DBCF56;" d="M437.333,21.333c29.406,0,53.333,23.927,53.333,53.333S466.739,128,437.333,128
	S384,104.073,384,74.667S407.927,21.333,437.333,21.333z"/>
<path style="fill:#314E55;" d="M256,0c-41.167,0-74.667,33.5-74.667,74.667s33.5,74.667,74.667,74.667s74.667-33.5,74.667-74.667
	S297.167,0,256,0z"/>
<path style="fill:#DBCF56;" d="M256,128c-29.406,0-53.333-23.927-53.333-53.333S226.594,21.333,256,21.333
	s53.333,23.927,53.333,53.333S285.406,128,256,128z"/>
<path style="fill:#314E55;" d="M256,181.333c-41.167,0-74.667,33.5-74.667,74.667s33.5,74.667,74.667,74.667
	s74.667-33.5,74.667-74.667S297.167,181.333,256,181.333z"/>
<path style="fill:#DBCF56;" d="M256,309.333c-29.406,0-53.333-23.927-53.333-53.333s23.927-53.333,53.333-53.333
	s53.333,23.927,53.333,53.333S285.406,309.333,256,309.333z"/>
<path style="fill:#314E55;" d="M74.667,0C33.5,0,0,33.5,0,74.667s33.5,74.667,74.667,74.667s74.667-33.5,74.667-74.667
	S115.833,0,74.667,0z"/>
<path style="fill:#DBCF56;" d="M74.667,128c-29.406,0-53.333-23.927-53.333-53.333s23.927-53.333,53.333-53.333
	S128,45.261,128,74.667S104.073,128,74.667,128z"/>
<path style="fill:#314E55;" d="M437.333,181.333c-41.167,0-74.667,33.5-74.667,74.667s33.5,74.667,74.667,74.667
	S512,297.167,512,256S478.5,181.333,437.333,181.333z"/>
<path style="fill:#DBCF56;" d="M437.333,309.333C407.927,309.333,384,285.406,384,256s23.927-53.333,53.333-53.333
	s53.333,23.927,53.333,53.333S466.739,309.333,437.333,309.333z"/>
<path style="fill:#314E55;" d="M437.333,362.667c-41.167,0-74.667,33.5-74.667,74.667S396.167,512,437.333,512
	S512,478.5,512,437.333S478.5,362.667,437.333,362.667z"/>
<path style="fill:#DBCF56;" d="M437.333,490.667c-29.406,0-53.333-23.927-53.333-53.333S407.927,384,437.333,384
	s53.333,23.927,53.333,53.333S466.739,490.667,437.333,490.667z"/>
<g>
</g>
<g>
</g>
<g>
</g>
<g>
</g>
<g>
</g>
<g>
</g>
<g>
</g>
<g>
</g>
<g>
</g>
<g>
</g>
<g>
</g>
<g>
</g>
<g>
</g>
<g>
</g>
<g>
</g>
</svg>
