<?xml version="1.0" encoding="iso-8859-1"?>
<!-- Generator: Adobe Illustrator 19.0.0, SVG Export Plug-In . SVG Version: 6.00 Build 0)  -->
<svg version="1.1" id="Layer_1" xmlns="http://www.w3.org/2000/svg" xmlns:xlink="http://www.w3.org/1999/xlink" x="0px" y="0px"
	 viewBox="0 0 512 512" style="enable-background:new 0 0 512 512;" xml:space="preserve">
<path style="fill:#314E55;" d="M440.434,337.556c0.029-2.745,0.049-5.618,0.049-8.628c0-110.511-52.604-140.355-113.516-174.904
	l-4.525-2.569c-3.235-1.853-7.24-1.735-10.382,0.275c-3.137,2.02-4.902,5.608-4.578,9.324c3.515,40.461-3.956,69.481-22.206,86.276
	c-14.343,13.186-32.888,16.255-45.319,16.628c12.941-29.677,37.986-99.884,8.735-144.982
	c-31.613-48.756-21.53-106.541-21.427-107.119c0.765-4.196-1.191-8.412-4.887-10.53c-3.696-2.108-8.314-1.677-11.544,1.108
	c-1.74,1.5-43.265,37.765-89.335,116.953c-38.451,66.089-39.084,172.022-37.706,212.797c-47.638,19.422-73.756,46.04-73.756,75.393
	C10.036,466.136,118.077,512,256,512s245.964-45.863,245.964-104.423C501.964,381.076,480.18,356.36,440.434,337.556z
	 M258.858,440.44c-64.633,0-117.217-51.952-117.217-115.805c0-22.706,6.574-44.422,18.834-63.021
	c8.529,62.726,47.476,110.247,94.094,110.247c49.133,0,89.746-52.707,95.207-120.335c16.907,20.491,26.299,46.177,26.299,73.109
	C376.075,388.488,323.491,440.44,258.858,440.44z"/>
<path style="fill:#E65F58;" d="M426.257,353.164c-3.721-1.627-6.093-5.343-6.01-9.412c0.098-4.51,0.157-9.441,0.157-14.824
	c0-92.482-37.966-119.953-92.011-150.992c0.284,37.706-9.672,66.021-29.696,84.325c-31.044,28.363-74.109,21.108-75.913,20.775
	c-3.147-0.559-5.838-2.588-7.25-5.451c-1.407-2.872-1.368-6.245,0.108-9.079c0.476-0.902,46.917-91.256,16.206-138.61
	c-21.564-33.246-26.216-69.266-26.368-93.443c-16.035,17.794-40.692,48.442-66.628,93.031
	c-39.211,67.403-35.795,185.895-34.711,208.964c0.201,4.343-2.412,8.324-6.48,9.863c-42.927,16.216-67.545,37.815-67.545,59.266
	c0,40.736,90.766,84.344,225.886,84.344s225.886-43.608,225.886-84.344C481.886,388.488,461.611,368.655,426.257,353.164z
	 M258.858,440.44c-64.633,0-117.217-51.952-117.217-115.805c0-22.706,6.574-44.422,18.834-63.021
	c8.529,62.726,47.476,110.247,94.094,110.247c49.133,0,89.746-52.707,95.207-120.335c16.907,20.491,26.299,46.177,26.299,73.109
	C376.075,388.488,323.491,440.44,258.858,440.44z"/>
<path style="fill:#314E55;" d="M346.56,220.084c-3.064-2.52-7.324-3-10.863-1.226c-3.544,1.765-5.716,5.461-5.544,9.422
	c0.113,2.549,0.167,5.108,0.167,7.696c0,63.854-33.981,115.805-75.751,115.805s-75.751-52.05-75.751-116.031
	c0-4.049-2.436-7.706-6.176-9.265c-3.74-1.549-8.044-0.716-10.932,2.137c-25.888,25.657-40.148,59.756-40.148,96.011
	c0,74.923,61.589,135.884,137.296,135.884s137.296-60.962,137.296-135.884C396.154,284.114,378.075,246.006,346.56,220.084z
	 M258.858,440.44c-64.633,0-117.217-51.952-117.217-115.805c0-22.706,6.574-44.422,18.834-63.021
	c8.529,62.726,47.476,110.247,94.094,110.247c49.133,0,89.746-52.707,95.207-120.335c16.907,20.491,26.299,46.177,26.299,73.109
	C376.075,388.488,323.491,440.44,258.858,440.44z"/>
<g>
</g>
<g>
</g>
<g>
</g>
<g>
</g>
<g>
</g>
<g>
</g>
<g>
</g>
<g>
</g>
<g>
</g>
<g>
</g>
<g>
</g>
<g>
</g>
<g>
</g>
<g>
</g>
<g>
</g>
</svg>
