<?xml version="1.0" encoding="iso-8859-1"?>
<!-- Generator: Adobe Illustrator 19.0.0, SVG Export Plug-In . SVG Version: 6.00 Build 0)  -->
<svg version="1.1" id="Layer_1" xmlns="http://www.w3.org/2000/svg" xmlns:xlink="http://www.w3.org/1999/xlink" x="0px" y="0px"
	 viewBox="0 0 512 512" style="enable-background:new 0 0 512 512;" xml:space="preserve">
<path style="fill:#314E55;" d="M482.015,55.357H306.375c16.999-24.78,29.95-39.578,30.322-40c3.383-3.811,3.036-9.64-0.77-13.018
	c-3.811-3.396-9.64-3.054-13.022,0.766c-1.759,1.976-18.633,21.219-39.077,52.252H29.984c-5.095,0-9.225,4.126-9.225,9.225v378.23
	c0,5.099,4.131,9.225,9.225,9.225h260.197c5.327,17.91,12.522,36.362,22.21,54.99c1.644,3.162,4.86,4.973,8.194,4.973
	c1.432,0,2.887-0.333,4.248-1.036c4.518-2.351,6.279-7.928,3.928-12.441c-8.141-15.654-14.374-31.24-19.169-46.486h172.424
	c5.095,0,9.225-4.126,9.225-9.225V64.582C491.241,59.483,487.11,55.357,482.015,55.357z"/>
<g>
	<path style="fill:#81A4E3;" d="M39.21,433.587V73.807H272.17c-30.687,50.576-64.348,123.416-66.904,202.655
		c-0.081,2.495,0.856,4.919,2.595,6.712c1.734,1.802,4.126,2.811,6.626,2.811H285.5c-3.167,12.938-7.441,35.457-8.338,63.844
		c-8.456,0.472-17.06,0.732-25.775,0.732c-64.684,0-124.377-13.522-152.075-34.441c-4.072-3.081-9.847-2.27-12.919,1.802
		c-3.072,4.063-2.266,9.847,1.802,12.919c31.166,23.549,93.697,38.171,163.192,38.171c8.701,0,17.285-0.231,25.71-0.676
		c0.479,19.889,2.81,41.924,8.226,65.252L39.21,433.587L39.21,433.587z"/>
	<path style="fill:#81A4E3;" d="M472.79,433.587H304.439c-5.816-23.837-8.217-46.45-8.633-66.656
		c51.708-4.847,95.585-18.031,119.756-36.838c4.018-3.126,4.743-8.919,1.613-12.946c-3.126-4.018-8.928-4.757-12.946-1.613
		c-20.971,16.318-61.167,28.178-108.294,32.835c1.509-40.912,10.279-68.153,10.458-68.69c0.932-2.811,0.459-5.91-1.275-8.315
		c-1.734-2.396-4.513-3.829-7.477-3.829h-73.463c5.045-76.091,40.316-146.688,70.047-193.728H472.79V433.587z"/>
</g>
<g>
	<rect x="334.413" y="129.152" style="fill:#314E55;" width="18.45" height="65.487"/>
	<rect x="140.686" y="129.152" style="fill:#314E55;" width="18.45" height="65.487"/>
</g>
<g>
</g>
<g>
</g>
<g>
</g>
<g>
</g>
<g>
</g>
<g>
</g>
<g>
</g>
<g>
</g>
<g>
</g>
<g>
</g>
<g>
</g>
<g>
</g>
<g>
</g>
<g>
</g>
<g>
</g>
</svg>
