<?xml version="1.0" encoding="iso-8859-1"?>
<!-- Generator: Adobe Illustrator 19.0.0, SVG Export Plug-In . SVG Version: 6.00 Build 0)  -->
<svg version="1.1" id="Layer_1" xmlns="http://www.w3.org/2000/svg" xmlns:xlink="http://www.w3.org/1999/xlink" x="0px" y="0px"
	 viewBox="0 0 512 512" style="enable-background:new 0 0 512 512;" xml:space="preserve">
<path style="fill:#314E55;" d="M437.112,9.288C432.539,3.382,425.252,0,417.106,0H99.193c-16.091,0-29.19,13.137-29.19,29.294
	v467.168c0,3.058,0.467,6.03,1.4,8.841c1.105,3.372,3.973,5.878,7.478,6.535c0.591,0.105,1.191,0.162,1.782,0.162
	c2.887,0,5.668-1.286,7.545-3.572l151.855-185.169H357.66c4.439,0,8.326-3.001,9.441-7.307l30.752-118.397
	c0.762-2.915,0.124-6.03-1.724-8.412c-1.849-2.391-4.697-3.792-7.717-3.792H243.645c-13.452,0-24.388-10.937-24.388-24.388
	s10.937-24.388,24.388-24.388h162.496c4.439,0,8.326-3.001,9.441-7.307l25.493-98.163C443.143,23.169,441.694,15.214,437.112,9.288z
	"/>
<path style="fill:#73C9C9;" d="M422.194,26.208l-23.598,90.856H243.645c-24.207,0-43.899,19.692-43.899,43.899
	s19.692,43.899,43.899,43.899h132.154l-25.684,98.887H235.443c-2.925,0-5.687,1.315-7.545,3.572L89.514,476.065V29.294
	c0-5.306,4.43-9.784,9.679-9.784h317.914c2.096,0,3.715,0.61,4.573,1.715C422.546,22.35,422.737,24.121,422.194,26.208z"/>
<g>
</g>
<g>
</g>
<g>
</g>
<g>
</g>
<g>
</g>
<g>
</g>
<g>
</g>
<g>
</g>
<g>
</g>
<g>
</g>
<g>
</g>
<g>
</g>
<g>
</g>
<g>
</g>
<g>
</g>
</svg>
