<?xml version="1.0" encoding="iso-8859-1"?>
<!-- Generator: Adobe Illustrator 19.0.0, SVG Export Plug-In . SVG Version: 6.00 Build 0)  -->
<svg version="1.1" id="Layer_1" xmlns="http://www.w3.org/2000/svg" xmlns:xlink="http://www.w3.org/1999/xlink" x="0px" y="0px"
	 viewBox="0 0 512 512" style="enable-background:new 0 0 512 512;" xml:space="preserve">
<path style="fill:#314E55;" d="M481.859,172.433c-5.53-7.612-8.052-12.085-7.263-20.219c1.647-17.12-0.699-34.354-2.962-51.016
	l-0.15-1.098c-3.03-22.337-8.864-43.649-17.343-63.35l-3.017-7.009l-13.732,2.926c-19.057,4.006-38.768,8.152-56.736,18.522
	c-11.931,6.891-23.802,14.24-35.279,21.339c-7.685,4.759-15.365,9.513-23.095,14.154c-0.422,0.254-1.252,0.454-1.488,0.454
	c0,0,0,0-0.005,0c-41.544-7.258-84.703-7.326-128.293-0.218c-0.535,0.095-2.295-0.204-3.693-1.034
	c-4.79-2.871-9.463-5.952-14.135-9.032c-5.416-3.575-10.837-7.14-16.413-10.407c-26.588-15.61-55.965-30.666-90.609-35.089
	l-6.773-0.866l-3.615,7.834c-0.681,1.434-1.252,2.663-1.733,3.947c-9.944,26.796-15.936,54.89-17.873,84.404
	c-0.676,10.23-1.375,20.808,0.131,31.374c0.499,3.498,0.086,4.205-1.284,5.92c-12.511,15.601-21.462,31.918-27.359,49.868
	c-9.912,30.158-11.708,63.591-5.657,105.203c5.017,34.812,13.55,60.211,27.663,82.344c29.663,46.525,75.458,72.736,136.118,77.903
	c30.312,2.581,61.073,2.971,91.235,2.971c6.482,0,12.942-0.018,19.361-0.036c8.465-0.027,16.939-0.05,25.381-0.032
	c38.836,0.023,69.806-5.035,97.968-16.059c50.132-19.615,83.465-56.147,99.065-108.583c8.696-29.214,12.588-60.288,11.563-92.361
	C510.696,229.456,500.612,198.25,481.859,172.433z"/>
<path style="fill:#D8D8D8;" d="M482.466,352.251c-14.081,47.319-42.873,78.91-88.028,96.579
	c-25.916,10.152-54.536,14.957-91.158,14.78c-8.478-0.018-16.97,0.005-25.467,0.032c-35.874,0.1-72.954,0.204-108.968-2.871
	c-55.357-4.713-95.273-27.404-122.029-69.375c-12.625-19.801-20.318-42.932-24.941-75.018c-5.702-39.203-4.183-69.039,4.922-96.738
	c5.189-15.805,13.106-30.212,24.206-44.053c4.854-6.061,6.351-11.899,5.176-20.16c-1.234-8.651-0.599-18.245,0.077-28.438
	c1.706-26.08,7.068-51.696,15.923-76.152c28.475,5.035,53.629,18.105,76.678,31.637c5.298,3.107,10.438,6.501,15.582,9.889
	c4.899,3.23,9.799,6.455,14.839,9.472c5.017,2.989,11.078,4.269,16.227,3.421c41.508-6.777,82.589-6.718,122.137,0.19
	c4.554,0.767,9.984-0.308,14.194-2.826c7.812-4.691,15.564-9.49,23.317-14.285c11.536-7.14,23.072-14.28,34.798-21.053
	c15.043-8.683,32.018-12.38,49.995-16.163c6.269,16.168,10.679,33.451,13.128,51.483l0.15,1.098
	c2.118,15.614,4.314,31.764,2.871,46.734c-1.429,14.807,4.264,24.025,10.733,32.92c16.753,23.072,25.404,50.036,26.438,82.426
	C494.229,295.859,490.596,324.951,482.466,352.251z"/>
<path style="fill:#314E55;" d="M363.028,231.415c-0.458,0-0.925,0.005-1.388,0.009c-8.606,0.15-17.216,0.499-25.825,0.848
	c-7.839,0.318-15.678,0.635-23.512,0.794l-13.609,0.286c-23.63,0.494-48.108,0.998-72.01,0.903
	c-10.91-0.045-21.82-0.458-32.725-0.866c-14.843-0.563-30.171-1.152-45.391-0.767c-21.112,0.513-38.881,7.258-52.813,20.06h-0.005
	c-23.14,21.262-32.707,49.469-29.241,86.232c5.031,53.357,26.57,80.639,74.342,94.157c40.16,11.364,80.498,12.38,114.48,11.903
	l11.314,0.059c3.82,0.032,7.635,0.063,11.454,0.063c4.709,0,9.422-0.045,14.126-0.195c33.397-1.066,62.67-6.061,89.489-15.269
	c29.446-10.107,49.043-29.409,58.243-57.367c7.022-21.371,9.086-41.612,6.305-61.89C441.734,277.378,412.96,231.415,363.028,231.415
	z"/>
<path style="fill:#FFFFFF;" d="M422.305,366.459c-7.39,22.45-22.641,37.366-46.625,45.6c-25.041,8.596-52.531,13.264-84.045,14.271
	c-8.279,0.263-16.558,0.181-24.837,0.127l-11.604-0.063c-32.753,0.467-71.421-0.485-109.281-11.205
	c-40.106-11.346-56.614-32.494-60.905-78.016c-2.881-30.584,4.745-53.747,23.312-70.808c10.524-9.663,24.215-14.766,40.696-15.17
	c14.639-0.331,29.691,0.218,44.243,0.762c11.114,0.417,22.233,0.835,33.342,0.88c24.229,0.109,48.743-0.408,72.482-0.907
	l13.595-0.281c7.966-0.168,15.927-0.49,23.889-0.812c8.465-0.34,16.93-0.685,25.395-0.83c0.336-0.009,0.671-0.009,1.007-0.009
	c38.369,0,61.382,37.371,64.884,62.901C430.239,330.313,428.425,347.837,422.305,366.459z"/>
<path style="fill:#314E55;" d="M172.333,277.868c-25.612,0-46.452,25.004-46.452,55.743s20.84,55.743,46.452,55.743
	s46.452-25.004,46.452-55.743S197.945,277.868,172.333,277.868z"/>
<path style="fill:#D8D8D8;" d="M172.333,370.773c-15.369,0-27.871-16.671-27.871-37.162c0-20.491,12.502-37.162,27.871-37.162
	s27.871,16.671,27.871,37.162C200.204,354.102,187.702,370.773,172.333,370.773z"/>
<path style="fill:#314E55;" d="M348.852,277.868c-25.612,0-46.452,25.004-46.452,55.743s20.84,55.743,46.452,55.743
	c25.612,0,46.452-25.004,46.452-55.743S374.464,277.868,348.852,277.868z"/>
<path style="fill:#D8D8D8;" d="M348.852,370.773c-15.369,0-27.871-16.671-27.871-37.162c0-20.491,12.502-37.162,27.871-37.162
	s27.871,16.671,27.871,37.162C376.723,354.102,364.221,370.773,348.852,370.773z"/>
<g>
</g>
<g>
</g>
<g>
</g>
<g>
</g>
<g>
</g>
<g>
</g>
<g>
</g>
<g>
</g>
<g>
</g>
<g>
</g>
<g>
</g>
<g>
</g>
<g>
</g>
<g>
</g>
<g>
</g>
</svg>
