<?xml version="1.0" encoding="iso-8859-1"?>
<!-- Generator: Adobe Illustrator 19.0.0, SVG Export Plug-In . SVG Version: 6.00 Build 0)  -->
<svg version="1.1" id="Layer_1" xmlns="http://www.w3.org/2000/svg" xmlns:xlink="http://www.w3.org/1999/xlink" x="0px" y="0px"
	 viewBox="0 0 512 512" style="enable-background:new 0 0 512 512;" xml:space="preserve">
<path style="fill:#314E55;" d="M325.68,105.918l28.369-37.123c2.307-3.026,2.708-7.102,1.017-10.518
	c-1.691-3.412-5.161-5.572-8.974-5.572H230.72c-15.866,0-33.1,1.867-51.488,5.616c-19.131,4.463-37.704,14.038-55.818,28.994
	c-25.788,24.937-38.858,53.296-38.858,84.285c0,26.018,9.443,49.078,27.665,68.111c17.958,21.145,44.107,32.079,77.843,32.504
	c1.339,0,2.718-0.02,4.115-0.059c-0.86,3.441-1.281,7.263-1.281,11.555c0,10.382,2.434,19.512,6.833,26.418
	c0.694,1.334,1.408,2.659,2.151,3.964c-10.225,0.88-21.77,2.263-34.605,4.159c-21.604,3.725-42.514,11.301-62.309,22.616
	c-18.29,10.914-31.204,23.965-38.301,38.662c-7.215,14.448-10.871,27.958-10.871,40.158c0,25.045,11.447,46.688,33.716,64.089
	c21.663,18.324,54.264,27.821,97.13,28.222c50.471-0.792,89.906-13.265,117.229-37.079c26.834-23.456,40.442-50.989,40.442-82.012
	c-0.391-21.682-5.543-39.664-15.524-53.727c-9.58-12.567-20.891-24.224-33.618-34.645l-19.18-15.704
	c-2.532-2.556-5.113-5.484-8.006-9.101c-1.183-1.315-2.747-3.607-2.747-8.241c0-4.042,1.056-7.444,3.539-10.861
	c2.61-4.003,5.416-7.576,7.723-10.025c6.129-5.347,11.907-10.602,17.713-16.125c5.132-5.411,10.02-11.354,14.575-17.709
	c9.922-14.023,15.142-32.577,15.504-55.305l0.01-3.749c0.039-8.602,0.059-13.344-2.776-22.738
	c-3.91-10.704-7.605-18.974-13.295-24.874l-0.264-0.259h9.756C320.841,109.848,323.784,108.396,325.68,105.918z M201.12,210.898
	c-5.337-4.169-9.766-9.36-13.099-15.279c-7.566-13.979-11.398-27.455-11.398-40.285c-0.205-8.593,1.945-16.178,6.579-23.163
	c5.24-5.997,11.31-8.881,18.525-9.072c6.129,0.195,11.369,1.926,15.729,5.059c4.917,3.842,8.945,8.935,12.034,15.235
	c7.263,14.409,10.939,28.814,10.939,42.812c0,3.275-0.274,7.415-0.704,11.599c-0.655,3.636-2.151,7.312-4.448,10.949
	c-4.966,4.785-11.017,7.273-18.466,7.591C210.876,216.304,205.744,214.53,201.12,210.898z M250.624,437.882
	c-8.563,6.946-21.692,10.587-38.75,10.827c-19.708-0.235-35.212-4.507-46.287-12.835c-10.626-7.6-15.797-16.829-15.797-28.212
	c0-5.675,1.095-10.45,3.441-14.517c2.082-3.925,4.634-7.244,7.253-9.585c3.343-2.723,6.598-4.814,9.385-6.095
	c3.715-1.569,6.598-2.767,7.957-3.314c8.612-2.571,17.068-4.458,24.664-5.543c8.124-0.753,11.789-0.875,13.295-0.875
	c0.616,0,0.87,0.02,0.938,0.025c2.561,0.332,4.986,0.098,7.097,0.235c13.881,9.795,24.204,18.124,30.412,24.449
	c5.318,6.036,7.899,12.957,7.899,21.154C262.129,423.575,258.366,431.518,250.624,437.882z"/>
<path style="fill:#E65F58;" d="M282.482,320.032l-19.58-16.032c-0.254-0.215-0.508-0.44-0.743-0.674
	c-3.157-3.167-6.344-6.76-9.463-10.685c-4.839-5.376-7.478-12.645-7.478-21.15c0-8.334,2.385-15.817,7.097-22.239
	c2.982-4.609,6.589-9.184,10.401-13.138c6.54-5.753,12.102-10.822,17.352-15.788c4.125-4.37,8.427-9.6,12.405-15.162
	c7.527-10.626,11.506-25.397,11.799-43.858l0.01-3.676c0.039-7.957,0.049-10.357-1.75-16.345
	c-1.329-3.592-4.878-13.305-8.407-16.985l-3.05-2.918c-3.578-3.461-11.955-11.565-14.204-13.031
	c-3.715-2.414-5.504-7.048-4.243-11.296c1.261-4.252,5.073-7.229,9.502-7.229h30.646l13.07-17.102H230.72
	c-14.527,0-30.412,1.735-47.216,5.152c-15.827,3.695-31.653,11.912-46.766,24.361c-21.448,20.788-32.162,43.653-32.162,69.363
	c0,20.978,7.361,38.878,22.503,54.714c14.644,17.205,35.153,25.529,63.111,25.881c5.171,0,11.037-0.357,17.303-1.061
	c0.371-0.044,0.743-0.064,1.114-0.064c3.05,0,5.953,1.393,7.869,3.817c2.141,2.723,2.718,6.359,1.535,9.614
	c-1.075,2.962-2.239,6.212-3.461,9.751c-1.163,2.767-1.632,5.797-1.632,9.458c0,6.637,1.359,12.019,4.155,16.457
	c3.402,6.457,6.833,11.872,10.597,16.814c2.278,2.987,2.698,6.994,1.075,10.382c-1.613,3.392-4.995,5.587-8.749,5.694
	c-13.06,0.371-29.737,2.038-49.562,4.961c-19.062,3.29-37.773,10.078-55.369,20.138c-14.712,8.778-25.006,18.974-30.431,30.202
	c-5.865,11.759-8.818,22.263-8.818,31.33c0,18.828,8.612,34.713,26.326,48.555c18.3,15.475,46.61,23.378,84.441,23.735
	c45.359-0.714,80.472-11.53,104.12-32.142c22.601-19.752,33.589-41.59,33.589-66.748c-0.313-17.405-4.223-31.609-11.623-42.045
	C304.233,339.994,294.007,329.466,282.482,320.032z M216.81,216.343c-5.934-0.039-11.066-1.813-15.69-5.445
	c-5.337-4.169-9.766-9.36-13.099-15.279c-7.566-13.979-11.398-27.455-11.398-40.285c-0.205-8.593,1.945-16.178,6.579-23.163
	c5.24-5.997,11.31-8.881,18.525-9.072c6.129,0.195,11.369,1.926,15.729,5.059c4.917,3.842,8.945,8.935,12.034,15.235
	c7.263,14.409,10.939,28.814,10.939,42.812c0,3.275-0.274,7.415-0.704,11.599c-0.655,3.636-2.151,7.312-4.448,10.949
	C230.31,213.537,224.259,216.025,216.81,216.343z M250.624,437.882c-8.563,6.946-21.692,10.587-38.75,10.827
	c-19.708-0.235-35.212-4.507-46.287-12.835c-10.626-7.6-15.797-16.829-15.797-28.212c0-5.675,1.095-10.45,3.441-14.517
	c2.082-3.925,4.634-7.244,7.253-9.585c3.343-2.723,6.598-4.814,9.385-6.095c3.715-1.569,6.598-2.767,7.957-3.314
	c8.612-2.571,17.068-4.458,24.664-5.543c8.124-0.753,11.789-0.875,13.295-0.875c0.616,0,0.87,0.02,0.938,0.025
	c2.561,0.332,4.986,0.098,7.097,0.235c13.881,9.795,24.204,18.124,30.412,24.449c5.318,6.036,7.899,12.957,7.899,21.154
	C262.129,423.575,258.366,431.518,250.624,437.882z"/>
<g>
	<path style="fill:#314E55;" d="M268.894,378.828c-7.85-8.04-19.571-17.459-35.808-28.794c-1.378-0.968-2.982-1.564-4.653-1.745
		c-2.854-0.308-6.159-0.459-9.961-0.474c-2.307-0.186-6.628-0.181-18.31,0.914c-9.052,1.281-18.495,3.382-28.76,6.476
		c-2.209,0.841-5.308,2.126-9.6,3.935c-4.594,2.112-9.287,5.098-14.282,9.165c-4.751,4.223-8.788,9.429-11.799,15.147
		c-3.949,6.823-5.953,14.971-5.953,24.209c0,18.06,8.133,33.032,23.979,44.352c14.351,10.802,33.823,16.428,58.145,16.716
		c21.936-0.303,39.22-5.455,51.361-15.313c0.02-0.01,0.029-0.025,0.049-0.034c12.503-10.264,18.847-23.652,18.847-39.786
		C282.15,400.49,277.809,388.921,268.894,378.828z M250.624,437.882c-8.563,6.946-21.692,10.587-38.75,10.827
		c-19.708-0.235-35.212-4.507-46.287-12.835c-10.626-7.6-15.797-16.829-15.797-28.212c0-5.675,1.095-10.45,3.441-14.517
		c2.082-3.925,4.634-7.244,7.253-9.585c3.343-2.723,6.598-4.814,9.385-6.095c3.715-1.569,6.598-2.767,7.957-3.314
		c8.612-2.571,17.068-4.458,24.664-5.543c8.124-0.753,11.789-0.875,13.295-0.875c0.616,0,0.87,0.02,0.938,0.025
		c2.561,0.332,4.986,0.098,7.097,0.235c13.881,9.795,24.204,18.124,30.412,24.449c5.318,6.036,7.899,12.957,7.899,21.154
		C262.129,423.575,258.366,431.518,250.624,437.882z"/>
	<path style="fill:#314E55;" d="M247.417,134.482c-4.379-8.94-10.313-16.374-17.938-22.327c-7.899-5.694-17.019-8.744-27.675-9.067
		c-13.666,0.328-25.182,5.89-34.215,16.531c-0.225,0.269-0.44,0.552-0.645,0.846c-7.166,10.533-10.646,22.42-10.343,35.104
		c0,15.959,4.643,32.636,13.891,49.723c4.712,8.383,10.871,15.573,18.28,21.364c8.202,6.442,17.704,9.707,28.222,9.707
		c0.127,0,0.254,0,0.371-0.005c13.07-0.489,24.136-5.293,32.895-14.277c0.43-0.445,0.821-0.929,1.173-1.442
		c4.106-6.183,6.794-12.664,8.094-19.967c0.606-5.606,0.919-10.47,0.919-14.468C260.448,169.049,256.049,151.619,247.417,134.482z
		 M239.724,197.804c-0.655,3.636-2.151,7.312-4.448,10.949c-4.966,4.785-11.017,7.273-18.466,7.591
		c-5.934-0.039-11.066-1.813-15.69-5.445c-5.337-4.169-9.766-9.36-13.099-15.279c-7.566-13.979-11.398-27.455-11.398-40.285
		c-0.205-8.593,1.945-16.178,6.579-23.163c5.24-5.997,11.31-8.881,18.525-9.072c6.129,0.195,11.369,1.926,15.729,5.059
		c4.917,3.842,8.945,8.935,12.034,15.235c7.263,14.409,10.939,28.814,10.939,42.812C240.427,189.48,240.154,193.62,239.724,197.804z
		"/>
	<polygon style="fill:#314E55;" points="456.204,30.031 426.173,30.031 426.173,0 406.153,0 406.153,30.031 376.122,30.031 
		376.122,50.051 406.153,50.051 406.153,80.081 426.173,80.081 426.173,50.051 456.204,50.051 	"/>
</g>
<g>
</g>
<g>
</g>
<g>
</g>
<g>
</g>
<g>
</g>
<g>
</g>
<g>
</g>
<g>
</g>
<g>
</g>
<g>
</g>
<g>
</g>
<g>
</g>
<g>
</g>
<g>
</g>
<g>
</g>
</svg>
