<?xml version="1.0" encoding="iso-8859-1"?>
<!-- Generator: Adobe Illustrator 19.0.0, SVG Export Plug-In . SVG Version: 6.00 Build 0)  -->
<svg version="1.1" id="Layer_1" xmlns="http://www.w3.org/2000/svg" xmlns:xlink="http://www.w3.org/1999/xlink" x="0px" y="0px"
	 viewBox="0 0 512 512" style="enable-background:new 0 0 512 512;" xml:space="preserve">
<path style="fill:#314E55;" d="M406.069,103.223c0-3.172-1.703-6.095-4.457-7.673c-2.754-1.56-6.142-1.543-8.866,0.078
	l-127.918,75.695V8.827c0-3.06-1.586-5.897-4.185-7.509c-2.608-1.612-5.853-1.75-8.591-0.388L110.81,71.551
	c-2.991,1.5-4.879,4.552-4.879,7.897v167.724c0,2.243,0.853,4.367,2.334,5.977c-1.456,1.602-2.334,3.681-2.334,5.911v155.837
	c0,3.172,1.703,6.095,4.457,7.673c1.353,0.767,2.862,1.155,4.371,1.155c1.556,0,3.112-0.414,4.496-1.233l127.918-75.703v156.384
	c0,2.983,1.504,5.759,3.996,7.388c1.457,0.957,3.142,1.44,4.832,1.44c1.203,0,2.405-0.241,3.539-0.741l141.242-61.793
	c3.211-1.405,5.289-4.578,5.289-8.086V264.827c0-1.004-0.226-1.961-0.548-2.882c0.322-0.921,0.548-1.879,0.548-2.885V103.223z
	 M252.052,327.551c-0.72,0.361-1.367,0.82-1.948,1.343l-127.571-75.489l137.006-59.94c1.636-0.716,2.967-1.897,3.89-3.342
	l120.662,71.409L252.052,327.551z"/>
<g>
	<polygon style="fill:#5ECB66;" points="388.414,118.706 388.414,243.577 282.905,181.137 	"/>
	<polygon style="fill:#5ECB66;" points="123.586,84.904 247.172,23.111 247.172,179.603 123.586,233.672 	"/>
	<polygon style="fill:#5ECB66;" points="123.586,399.413 123.586,274.542 229.095,336.974 	"/>
	<polygon style="fill:#5ECB66;" points="388.414,435.603 264.828,489.672 264.828,340.905 388.414,279.111 	"/>
</g>
<g>
</g>
<g>
</g>
<g>
</g>
<g>
</g>
<g>
</g>
<g>
</g>
<g>
</g>
<g>
</g>
<g>
</g>
<g>
</g>
<g>
</g>
<g>
</g>
<g>
</g>
<g>
</g>
<g>
</g>
</svg>
