<?xml version="1.0" encoding="iso-8859-1"?>
<!-- Generator: Adobe Illustrator 19.0.0, SVG Export Plug-In . SVG Version: 6.00 Build 0)  -->
<svg version="1.1" id="Layer_1" xmlns="http://www.w3.org/2000/svg" xmlns:xlink="http://www.w3.org/1999/xlink" x="0px" y="0px"
	 viewBox="0 0 512 512" style="enable-background:new 0 0 512 512;" xml:space="preserve">
<path style="fill:#314E55;" d="M123.429,54.857C54.214,54.857,0,86.982,0,128v320c0,5.053,4.089,9.143,9.143,9.143h1.161
	c4.179,0,7.821-2.83,8.857-6.884c6.866-26.902,52.67-47.973,104.268-47.973s97.402,21.072,104.268,47.973
	c1.036,4.054,4.679,6.884,8.857,6.884h1.161c5.053,0,9.143-4.089,9.143-9.143V128C246.857,86.982,192.643,54.857,123.429,54.857z"/>
<path style="fill:#F28544;" d="M228.571,418.393C206.804,397.482,167.777,384,123.429,384s-83.375,13.482-105.143,34.393V128
	c0-29.732,48.152-54.857,105.143-54.857S228.571,98.268,228.571,128V418.393z"/>
<path style="fill:#314E55;" d="M388.571,54.857c-69.214,0-123.429,32.125-123.429,73.143v320c0,5.053,4.089,9.143,9.143,9.143h1.161
	c4.179,0,7.821-2.83,8.857-6.884c6.866-26.902,52.67-47.973,104.268-47.973s97.402,21.072,104.268,47.973
	c1.036,4.054,4.679,6.884,8.857,6.884h1.161c5.053,0,9.143-4.089,9.143-9.143V128C512,86.982,457.786,54.857,388.571,54.857z"/>
<path style="fill:#F28544;" d="M493.714,418.393C471.947,397.482,432.92,384,388.571,384s-83.375,13.482-105.143,34.393V128
	c0-29.732,48.152-54.857,105.143-54.857S493.714,98.268,493.714,128V418.393z"/>
<g>
</g>
<g>
</g>
<g>
</g>
<g>
</g>
<g>
</g>
<g>
</g>
<g>
</g>
<g>
</g>
<g>
</g>
<g>
</g>
<g>
</g>
<g>
</g>
<g>
</g>
<g>
</g>
<g>
</g>
</svg>
