<?xml version="1.0" encoding="iso-8859-1"?>
<!-- Generator: Adobe Illustrator 19.0.0, SVG Export Plug-In . SVG Version: 6.00 Build 0)  -->
<svg version="1.1" id="Layer_1" xmlns="http://www.w3.org/2000/svg" xmlns:xlink="http://www.w3.org/1999/xlink" x="0px" y="0px"
	 viewBox="0 0 512 512" style="enable-background:new 0 0 512 512;" xml:space="preserve">
<path style="fill:#314E55;" d="M417.176,205.435c0.009-0.528,0.009-1.056,0.009-1.583c0-67.963-55.296-123.259-123.259-123.259
	c-46.231,0-87.87,25.454-109.065,65.759c-10.019-5.769-21.454-8.87-33.157-8.87c-36.593,0-66.37,29.778-66.37,66.37
	c0,1.185,0.028,2.37,0.093,3.556C35.417,220.157,0,265.157,0,317.63c0,62.741,51.037,113.778,113.778,113.778h293.926
	c1.241,0,2.435-0.259,3.519-0.731C468.861,424.157,512,376.018,512,317.63C512,262.158,471.028,214.555,417.176,205.435z"/>
<path style="fill:#81A4E3;" d="M406.852,412.055c-0.657,0.055-1.287,0.194-1.898,0.389H113.778
	c-52.278,0-94.815-42.537-94.815-94.815c0-46.259,33.028-85.556,78.537-93.426c2.509-0.435,4.741-1.861,6.185-3.963
	c1.445-2.102,1.991-4.695,1.5-7.195c-0.593-3.027-0.889-6.12-0.889-9.194c0-26.139,21.269-47.407,47.407-47.407
	c11.296,0,22.231,4.037,30.787,11.361c2.315,1.963,5.407,2.713,8.389,2.019c2.954-0.713,5.389-2.806,6.546-5.611
	c16.157-39.278,54.037-64.658,96.5-64.658c57.509,0,104.296,46.787,104.296,104.296c0,3.046-0.13,6.065-0.389,9.037
	c-0.222,2.509,0.565,5,2.185,6.926c1.62,1.935,3.935,3.139,6.445,3.352c48.546,4.176,86.574,45.676,86.574,94.463
	C493.037,367.037,455.982,407.63,406.852,412.055z"/>
<g>
</g>
<g>
</g>
<g>
</g>
<g>
</g>
<g>
</g>
<g>
</g>
<g>
</g>
<g>
</g>
<g>
</g>
<g>
</g>
<g>
</g>
<g>
</g>
<g>
</g>
<g>
</g>
<g>
</g>
</svg>
