<?xml version="1.0" encoding="iso-8859-1"?>
<!-- Generator: Adobe Illustrator 19.0.0, SVG Export Plug-In . SVG Version: 6.00 Build 0)  -->
<svg version="1.1" id="Layer_1" xmlns="http://www.w3.org/2000/svg" xmlns:xlink="http://www.w3.org/1999/xlink" x="0px" y="0px"
	 viewBox="0 0 512 512" style="enable-background:new 0 0 512 512;" xml:space="preserve">
<path style="fill:#314E55;" d="M403.198,5.333H108.802C48.813,5.333,0,54.286,0,114.463v72.203V208v189.542
	c0,60.172,48.813,109.125,108.802,109.125h294.396c59.99,0,108.802-48.953,108.802-109.125V208v-21.333v-72.203
	C512,54.286,463.187,5.333,403.198,5.333z"/>
<path style="fill:#E9E7D1;" d="M332.522,186.667c-22.413-13.451-48.533-21.333-76.522-21.333s-54.108,7.882-76.522,21.333H21.333
	v-72.203c0-48.411,39.239-87.797,87.469-87.797h294.396c48.229,0,87.469,39.385,87.469,87.797v72.203H332.522z"/>
<path style="fill:#314E55;" d="M430.938,58.667h-51.208C364.438,58.667,352,71.104,352,86.396v51.208
	c0,15.292,12.438,27.729,27.729,27.729h51.208c15.292,0,27.729-12.438,27.729-27.729V86.396
	C458.667,71.104,446.229,58.667,430.938,58.667z"/>
<path style="fill:#C59981;" d="M437.333,137.604c0,3.526-2.865,6.396-6.396,6.396h-51.208c-3.531,0-6.396-2.87-6.396-6.396V86.396
	c0-3.526,2.865-6.396,6.396-6.396h51.208c3.531,0,6.396,2.87,6.396,6.396V137.604z"/>
<path style="fill:#E9E7D1;" d="M490.667,397.542c0,48.406-39.239,87.792-87.469,87.792H108.802
	c-48.229,0-87.469-39.385-87.469-87.792V208h130.354c-27.735,27.128-45.021,64.897-45.021,106.667
	C106.667,397.01,173.656,464,256,464s149.333-66.99,149.333-149.333c0-41.77-17.286-79.538-45.021-106.667h130.354V397.542z"/>
<path style="fill:#C59981;" d="M384,314.667c0,70.578-57.417,128-128,128s-128-57.422-128-128s57.417-128,128-128
	S384,244.089,384,314.667z"/>
<path style="fill:#314E55;" d="M160,314.667c0,52.932,43.062,96,96,96s96-43.068,96-96s-43.062-96-96-96S160,261.734,160,314.667z"
	/>
<path style="fill:#C59981;" d="M330.667,314.667c0,41.172-33.5,74.667-74.667,74.667s-74.667-33.495-74.667-74.667
	S214.833,240,256,240S330.667,273.495,330.667,314.667z"/>
<g>
</g>
<g>
</g>
<g>
</g>
<g>
</g>
<g>
</g>
<g>
</g>
<g>
</g>
<g>
</g>
<g>
</g>
<g>
</g>
<g>
</g>
<g>
</g>
<g>
</g>
<g>
</g>
<g>
</g>
</svg>
