<?xml version="1.0" encoding="iso-8859-1"?>
<!-- Generator: Adobe Illustrator 19.0.0, SVG Export Plug-In . SVG Version: 6.00 Build 0)  -->
<svg version="1.1" id="Layer_1" xmlns="http://www.w3.org/2000/svg" xmlns:xlink="http://www.w3.org/1999/xlink" x="0px" y="0px"
	 viewBox="0 0 512 512" style="enable-background:new 0 0 512 512;" xml:space="preserve">
<path style="fill:#314E55;" d="M60.064,5.48C25.262,5.48,0,29.479,0,62.541c0,33.04,24.761,57.024,58.868,57.024
	c17.69,0,32.931-5.733,44.083-16.586c10.694-10.412,16.591-24.772,16.58-40.699C118.747,28.837,94.291,5.48,60.064,5.48z"/>
<path style="fill:#81A4E3;" d="M87.415,87.009c-6.908,6.723-16.787,10.276-28.547,10.276c-21.541,0-36.587-14.284-36.587-34.743
	c0-20.801,15.187-34.781,37.784-34.781c22.096,0,36.685,13.757,37.185,34.786C97.25,72.148,93.758,80.835,87.415,87.009z"/>
<rect x="10.684" y="138.387" style="fill:#314E55;" width="100.132" height="368.134"/>
<rect x="32.964" y="160.668" style="fill:#81A4E3;" width="55.571" height="323.572"/>
<path style="fill:#314E55;" d="M374.856,138.386c-46.433,0-74.86,16.025-91.332,31.098l-3.133-31.098H167.106v368.127h110.947
	V313.031c0-8.334,3.372-25.637,5.494-30.206c13.403-28.868,31.485-28.868,58.868-28.868c31.539,0,58.182,29.575,58.182,64.579
	v187.977H512V298.518C512,188.496,440.904,138.386,374.856,138.386z"/>
<path style="fill:#81A4E3;" d="M489.719,484.232h-66.842V318.536c0-47.085-36.848-86.86-80.463-86.86
	c-27.982,0-59.695,0-79.081,41.771c-4.004,8.633-7.561,29.325-7.561,39.584v171.202h-66.385V160.667h70.857l4.547,45.056h18.255
	l3.264-5.266c7.431-11.962,30.93-39.791,88.546-39.791c55.321,0,114.863,43.136,114.863,137.851L489.719,484.232L489.719,484.232z"
	/>
<g>
</g>
<g>
</g>
<g>
</g>
<g>
</g>
<g>
</g>
<g>
</g>
<g>
</g>
<g>
</g>
<g>
</g>
<g>
</g>
<g>
</g>
<g>
</g>
<g>
</g>
<g>
</g>
<g>
</g>
</svg>
