<?xml version="1.0" encoding="iso-8859-1"?>
<!-- Generator: Adobe Illustrator 19.0.0, SVG Export Plug-In . SVG Version: 6.00 Build 0)  -->
<svg version="1.1" id="Layer_1" xmlns="http://www.w3.org/2000/svg" xmlns:xlink="http://www.w3.org/1999/xlink" x="0px" y="0px"
	 viewBox="0 0 512 512" style="enable-background:new 0 0 512 512;" xml:space="preserve">
<path style="fill:#314E55;" d="M511.537,356.088L410.268,44.477c-1.268-3.908-4.907-6.551-9.019-6.551H111.537
	c-4.102,0-7.731,2.634-9.009,6.533L0.472,356.069C0.157,357.019,0,358.014,0,359.018v105.574c0,5.236,4.241,9.481,9.481,9.481
	h493.037c5.241,0,9.481-4.245,9.481-9.481V359.018C512,358.023,511.843,357.032,511.537,356.088z"/>
<polygon style="fill:#73C9C9;" points="493.037,455.111 18.963,455.111 18.963,360.532 118.407,56.889 394.361,56.889 
	493.037,360.519 "/>
<path style="fill:#314E55;" d="M364.713,113.227c-2.972-0.884-6.232-0.236-8.667,1.736l-99.759,81.139l-99.75-81.167
	c-2.426-1.968-5.685-2.62-8.667-1.736c-3,0.884-5.37,3.195-6.333,6.171L82.88,300.477c-0.935,2.884-0.435,6.051,1.352,8.505
	c1.787,2.449,4.629,3.907,7.666,3.907h328.787c3.037,0,5.88-1.454,7.667-3.903c1.787-2.454,2.287-5.616,1.352-8.5l-58.657-181.088
	C370.083,116.421,367.713,114.111,364.713,113.227z"/>
<path style="fill:#FFFFFF;" d="M104.935,293.917l50.37-155.532l95,77.296c3.482,2.833,8.481,2.833,11.963,0l95-77.273l50.38,155.518
	L104.935,293.917z"/>
<g>
</g>
<g>
</g>
<g>
</g>
<g>
</g>
<g>
</g>
<g>
</g>
<g>
</g>
<g>
</g>
<g>
</g>
<g>
</g>
<g>
</g>
<g>
</g>
<g>
</g>
<g>
</g>
<g>
</g>
</svg>
