<?xml version="1.0" encoding="iso-8859-1"?>
<!-- Generator: Adobe Illustrator 19.0.0, SVG Export Plug-In . SVG Version: 6.00 Build 0)  -->
<svg version="1.1" id="Layer_1" xmlns="http://www.w3.org/2000/svg" xmlns:xlink="http://www.w3.org/1999/xlink" x="0px" y="0px"
	 viewBox="0 0 512 512" style="enable-background:new 0 0 512 512;" xml:space="preserve">
<path style="fill:#314E55;" d="M341.589,161.619l-28.932-2.661c-11.058-1.046-21.898,2.363-30.484,9.523
	c-8.731,7.278-14.099,17.571-15.118,28.973l-15.081,169.192l8.604,1.317c31.842,4.879,62.938,10.985,92.422,18.15l10.469,2.544
	l16.118-180.901C381.664,184.44,364.618,163.746,341.589,161.619z"/>
<path style="fill:#81A4E3;" d="M346.907,365.613c-24.157-5.599-49.282-10.505-74.923-14.624l13.538-151.888
	c0.575-6.464,3.603-12.28,8.523-16.385c4.771-3.979,10.795-5.843,16.915-5.3l28.927,2.661c12.882,1.195,22.405,12.868,21.233,26.031
	L346.907,365.613z"/>
<path style="fill:#314E55;" d="M211.056,195.493l-28.927-2.661c-11.026-1.046-21.898,2.363-30.484,9.523
	c-8.731,7.278-14.099,17.571-15.118,28.973l-11.003,123.495l9.627,0.475c17.164,0.855,34.581,2.087,51.758,3.666
	c13.85,1.276,27.864,2.802,41.651,4.54l9.537,1.204l10.972-123.079C251.145,218.306,234.094,197.607,211.056,195.493z"/>
<path style="fill:#81A4E3;" d="M221.335,343.946c-10.886-1.29-21.857-2.444-32.725-3.44c-14.235-1.313-28.629-2.385-42.914-3.205
	l9.297-104.326c0.575-6.464,3.603-12.28,8.523-16.385c4.775-3.979,10.768-5.862,16.915-5.3l28.927,2.661h0.005
	c12.886,1.186,22.414,12.864,21.237,26.031L221.335,343.946z"/>
<path style="fill:#314E55;" d="M82.346,232.971l-28.927-2.661c-11.089-1.05-21.912,2.367-30.489,9.523
	c-8.727,7.283-14.095,17.571-15.109,28.973L0,356.538l10.777-0.683c30.177-1.906,61.847-2.467,94.187-1.679l8.69,0.217l6.703-75.294
	C122.427,255.779,105.376,235.085,82.346,232.971z"/>
<path style="fill:#81A4E3;" d="M96.727,335.459c-26.049-0.421-51.649-0.023-76.345,1.272l5.907-66.283
	c0.575-6.459,3.598-12.275,8.518-16.381c4.218-3.517,9.401-5.395,14.787-5.395c0.706,0,1.417,0.032,2.127,0.095l28.927,2.661h0.005
	c12.877,1.186,22.405,12.864,21.237,26.026L96.727,335.459z"/>
<path style="fill:#314E55;" d="M473.828,84.636l-28.932-2.661c-11.022-1.068-21.898,2.358-30.484,9.519
	c-8.731,7.283-14.104,17.571-15.122,28.977l-24.175,271.269l7.437,2.064c33.282,9.243,63.843,19.798,90.833,31.372l11.75,5.042
	l26.691-299.449C513.918,107.448,496.872,86.75,473.828,84.636z"/>
<path style="fill:#81A4E3;" d="M468.926,403.24c-22.64-9.139-47.445-17.589-73.977-25.202l22.808-255.92
	c0.579-6.464,3.607-12.28,8.528-16.385c4.775-3.979,10.813-5.848,16.915-5.3l28.927,2.661h0.005
	c12.886,1.186,22.41,12.855,21.228,26.021L468.926,403.24z"/>
<g>
</g>
<g>
</g>
<g>
</g>
<g>
</g>
<g>
</g>
<g>
</g>
<g>
</g>
<g>
</g>
<g>
</g>
<g>
</g>
<g>
</g>
<g>
</g>
<g>
</g>
<g>
</g>
<g>
</g>
</svg>
