<?xml version="1.0" encoding="iso-8859-1"?>
<!-- Generator: Adobe Illustrator 19.0.0, SVG Export Plug-In . SVG Version: 6.00 Build 0)  -->
<svg version="1.1" id="Layer_1" xmlns="http://www.w3.org/2000/svg" xmlns:xlink="http://www.w3.org/1999/xlink" x="0px" y="0px"
	 viewBox="0 0 512 512" style="enable-background:new 0 0 512 512;" xml:space="preserve">
<path style="fill:#314E55;" d="M497.912,2.697c-2.362-2.069-5.495-3.016-8.622-2.601L270.37,29.399
	c-5.41,0.723-9.447,5.34-9.447,10.798V231.84c0,6.016,4.878,10.894,10.894,10.894h218.92c6.016,0,10.894-4.878,10.894-10.894V10.894
	C501.63,7.75,500.274,4.766,497.912,2.697z"/>
<polygon style="fill:#73C9C9;" points="479.843,220.947 282.71,220.947 282.71,49.729 479.843,23.34 "/>
<path style="fill:#314E55;" d="M228.242,265.106c0,0-0.016,0-0.021,0L22.29,265.532c-6.011,0.011-10.872,4.888-10.872,10.894V439.84
	c0,5.484,4.08,10.112,9.516,10.809l205.931,26.213c0.463,0.059,0.92,0.085,1.378,0.085c2.633,0,5.202-0.958,7.202-2.718
	c2.346-2.069,3.692-5.048,3.692-8.176V276c0-2.894-1.149-5.665-3.197-7.713C233.896,266.25,231.125,265.106,228.242,265.106z"/>
<polygon style="fill:#73C9C9;" points="217.348,453.686 33.205,430.245 33.205,287.298 217.348,286.915 "/>
<path style="fill:#314E55;" d="M226.854,34.723L19.875,61.362c-5.436,0.697-9.505,5.325-9.505,10.803V231.84
	c0,6.016,4.878,10.894,10.894,10.894h206.979c6.016,0,10.894-4.878,10.894-10.894V45.527c0-3.133-1.346-6.112-3.697-8.181
	S229.944,34.314,226.854,34.723z"/>
<polygon style="fill:#73C9C9;" points="217.348,220.947 32.157,220.947 32.157,81.745 217.348,57.909 "/>
<path style="fill:#314E55;" d="M490.753,265.532l-218.92-0.309h-0.016c-2.888,0-5.654,1.144-7.697,3.186
	c-2.048,2.043-3.197,4.814-3.197,7.707V471.5c0,5.452,4.032,10.064,9.436,10.798l218.92,29.606c0.484,0.064,0.973,0.096,1.458,0.096
	c2.622,0,5.17-0.947,7.17-2.691c2.367-2.069,3.723-5.058,3.723-8.202V276.426C501.63,270.415,496.763,265.543,490.753,265.532z"/>
<polygon style="fill:#73C9C9;" points="479.843,488.638 282.71,461.979 282.71,287.027 479.843,287.303 "/>
<g>
</g>
<g>
</g>
<g>
</g>
<g>
</g>
<g>
</g>
<g>
</g>
<g>
</g>
<g>
</g>
<g>
</g>
<g>
</g>
<g>
</g>
<g>
</g>
<g>
</g>
<g>
</g>
<g>
</g>
</svg>
