<?xml version="1.0" encoding="iso-8859-1"?>
<!-- Generator: Adobe Illustrator 19.0.0, SVG Export Plug-In . SVG Version: 6.00 Build 0)  -->
<svg version="1.1" id="Layer_1" xmlns="http://www.w3.org/2000/svg" xmlns:xlink="http://www.w3.org/1999/xlink" x="0px" y="0px"
	 viewBox="0 0 512 512" style="enable-background:new 0 0 512 512;" xml:space="preserve">
<path style="fill:#314E55;" d="M411.593,0H100.407C45.044,0,0,45.049,0,100.412v311.177C0,466.951,45.044,512,100.407,512h311.186
	C466.956,512,512,466.951,512,411.588V100.412C512,45.049,466.956,0,411.593,0z"/>
<path style="fill:#D8D8D8;" d="M491.922,411.588c0,44.294-36.034,80.333-80.329,80.333H100.407
	c-44.294,0-80.329-36.039-80.329-80.333V100.412c0-44.294,36.034-80.333,80.329-80.333h311.186
	c44.294,0,80.328,36.039,80.328,80.333V411.588z"/>
<path style="fill:#314E55;" d="M371.451,100.392H140.549c-5.544,0-10.039,4.49-10.039,10.039v80.314
	c0,5.549,4.495,10.039,10.039,10.039h230.902c5.544,0,10.039-4.49,10.039-10.039v-80.314
	C381.49,104.882,376.995,100.392,371.451,100.392z"/>
<rect x="150.588" y="120.471" style="fill:#E4AD40;" width="210.824" height="60.235"/>
<path style="fill:#314E55;" d="M371.451,210.824H140.549c-5.544,0-10.039,4.49-10.039,10.039v180.706
	c0,5.549,4.495,10.039,10.039,10.039h230.902c5.544,0,10.039-4.49,10.039-10.039V220.863
	C381.49,215.314,376.995,210.824,371.451,210.824z"/>
<rect x="150.588" y="230.902" style="fill:#E65F58;" width="210.824" height="160.627"/>
<g>
</g>
<g>
</g>
<g>
</g>
<g>
</g>
<g>
</g>
<g>
</g>
<g>
</g>
<g>
</g>
<g>
</g>
<g>
</g>
<g>
</g>
<g>
</g>
<g>
</g>
<g>
</g>
<g>
</g>
</svg>
