<?xml version="1.0" encoding="iso-8859-1"?>
<!-- Generator: Adobe Illustrator 19.0.0, SVG Export Plug-In . SVG Version: 6.00 Build 0)  -->
<svg version="1.1" id="Layer_1" xmlns="http://www.w3.org/2000/svg" xmlns:xlink="http://www.w3.org/1999/xlink" x="0px" y="0px"
	 viewBox="0 0 512 512" style="enable-background:new 0 0 512 512;" xml:space="preserve">
<path style="fill:#314E55;" d="M423.57,451.802c-15.951-5.653-26.739-11.851-34.973-20.094c-2.358-2.367-4.546-5.184-6.644-8.033
	c1.875-1.532,3.742-3.041,5.591-4.537c8.833-7.136,17.165-13.87,24.854-21.746c51.156-52.334,73.67-116.297,66.927-190.119v-0.005
	C470.582,111.69,403.244,31.232,311.774,7.056C213.33-18.986,107.098,28.861,59.158,120.781
	c-15.87,30.432-24.837,62.806-26.65,96.221c-0.045,0.907-0.259,1.795-0.447,2.693l-0.554,19.442l1.143,10.418
	c0.714,6.35,1.438,12.7,2.322,19.032c13.093,94.149,89.683,174.316,182.117,190.619c28.57,5.033,57.148,4.568,85.432-1.451
	c8.27,14.325,21.755,33.665,44.627,43.632c7.43,3.237,15.129,5.086,22.586,6.868c3.045,0.732,6.1,1.46,9.083,2.286
	c1.447,0.397,2.911,0.692,4.385,0.978L401.511,512l32.303-4.867l0.009-15.933c0.027-9.257,0.045-18.411-0.187-27.578
	C433.439,456.995,427.187,453.066,423.57,451.802z M357.259,280.576c-1.116,21.05-8.181,41.738-21.023,61.623
	c-30.231-27.462-66.159-40.666-106.277-39.019l-8.797,0.335v59.836l7.484,1.384c16.165,2.992,29.034,10.98,39.769,24.846
	c-11.056,1.652-21.997,0.746-33.098-2.706c-26.203-8.136-46.226-25.993-61.221-54.59c-11.11-21.188-16.736-44.391-16.71-68.964
	c0.009-7.229-0.089-14.472-0.179-21.711c-0.223-16.669-0.447-33.91,0.688-50.575c2.867-42.211,19.085-75.309,48.226-98.368
	c16.004-12.673,34.134-18.938,52.165-18.938c21.353,0,42.573,8.779,59.997,26.096c23.81,23.667,36.938,52.245,39.001,84.941
	C359.143,214.314,359.135,245.652,357.259,280.576z"/>
<path style="fill:#E65F58;" d="M375.656,444.63c-3.956-3.961-7.198-8.399-10.056-12.32c-1.143-1.563-2.251-3.086-3.358-4.501
	l-5.412-6.921l6.698-5.689c4.224-3.577,8.413-6.966,12.521-10.288c8.395-6.783,16.325-13.191,23.265-20.304
	c47.244-48.329,68.035-107.429,61.792-175.673c-8.038-87.951-69.937-161.974-154.012-184.194
	C216.84,0.854,119.405,44.843,75.376,129.239C60.72,157.34,52.442,187.2,50.772,217.989c-0.089,1.8-0.429,3.595-0.795,5.385
	l-0.179,0.924v14.312l1.027,8.882c0.697,6.198,1.402,12.396,2.26,18.576c12.03,86.513,82.342,160.161,167.185,175.124
	c26.917,4.751,53.826,4.18,79.949-1.674c7.627-1.71,13.459,0.862,17.326,7.658c11.101,19.612,22.488,31.155,36.92,37.447
	c5.948,2.59,12.548,4.171,19.532,5.845c3.251,0.777,6.493,1.558,9.699,2.438c1,0.277,2,0.464,3.001,0.661l0.723,0.143h12.726
	l15.388-2.554c0.018-7.667,0.045-15.258-0.089-22.832C403.315,463.903,388.151,457.142,375.656,444.63z M336.236,342.198
	c-30.231-27.462-66.159-40.666-106.277-39.019l-8.797,0.335v59.836l7.484,1.384c16.165,2.992,29.034,10.98,39.769,24.846
	c-11.056,1.652-21.997,0.746-33.098-2.706c-26.203-8.136-46.226-25.993-61.221-54.59c-11.11-21.188-16.736-44.391-16.71-68.964
	c0.009-7.229-0.089-14.472-0.179-21.711c-0.223-16.669-0.447-33.91,0.688-50.575c2.867-42.211,19.085-75.309,48.226-98.368
	c16.004-12.673,34.134-18.938,52.165-18.938c21.353,0,42.573,8.779,59.997,26.096c23.81,23.667,36.938,52.245,39.001,84.941
	c1.858,29.548,1.849,60.886-0.027,95.81C356.143,301.626,349.078,322.314,336.236,342.198z"/>
<path style="fill:#314E55;" d="M375.54,183.619c-2.358-37.3-17.281-69.857-44.359-96.77c-38.411-38.193-94.506-41.693-136.418-8.524
	c-33.339,26.395-51.888,63.9-55.121,111.47c-1.179,17.406-0.947,35.022-0.723,52.058c0.089,7.154,0.187,14.307,0.179,21.452
	c-0.027,27.569,6.296,53.634,18.799,77.475c17.371,33.12,40.921,53.915,72,63.565c9.35,2.898,18.585,4.349,27.837,4.349
	c9.404,0,18.817-1.496,28.391-4.488l11.003-3.447l-5.859-9.931c-13.262-22.466-30.267-36.389-51.817-42.359v-27.096
	c35.259,0.71,65.311,14.263,91.63,41.265l7.511,7.703l6.395-8.654c18.781-25.426,29.061-52.388,30.543-80.136
	C377.434,245.916,377.443,213.885,375.54,183.619z M357.259,280.576c-1.116,21.05-8.181,41.738-21.023,61.623
	c-30.231-27.462-66.159-40.666-106.277-39.019l-8.797,0.335v59.836l7.484,1.384c16.165,2.992,29.034,10.98,39.769,24.846
	c-11.056,1.652-21.997,0.746-33.098-2.706c-26.203-8.136-46.226-25.993-61.221-54.59c-11.11-21.188-16.736-44.391-16.71-68.964
	c0.009-7.229-0.089-14.472-0.179-21.711c-0.223-16.669-0.447-33.91,0.688-50.575c2.867-42.211,19.085-75.309,48.226-98.368
	c16.004-12.673,34.134-18.938,52.165-18.938c21.353,0,42.573,8.779,59.997,26.096c23.81,23.667,36.938,52.245,39.001,84.941
	C359.143,214.314,359.135,245.652,357.259,280.576z"/>
<g>
</g>
<g>
</g>
<g>
</g>
<g>
</g>
<g>
</g>
<g>
</g>
<g>
</g>
<g>
</g>
<g>
</g>
<g>
</g>
<g>
</g>
<g>
</g>
<g>
</g>
<g>
</g>
<g>
</g>
</svg>
