<?xml version="1.0" encoding="iso-8859-1"?>
<!-- Generator: Adobe Illustrator 19.0.0, SVG Export Plug-In . SVG Version: 6.00 Build 0)  -->
<svg version="1.1" id="Layer_1" xmlns="http://www.w3.org/2000/svg" xmlns:xlink="http://www.w3.org/1999/xlink" x="0px" y="0px"
	 viewBox="0 0 512 512" style="enable-background:new 0 0 512 512;" xml:space="preserve">
<path style="fill:#314E55;" d="M392.523,318.226c-16.561,0-32.417,5.271-46.261,15.322l-132.471-74.6l126.914-76.047
	c15.287,12.585,33.753,19.436,52.762,19.436c49.425,0,89.638-45.377,89.638-101.156C483.105,45.388,442.888,0,393.458,0
	c-47.556,0-86.626,42.122-89.444,95.066l-135.995,81.806c-14.758-11.508-32.391-17.765-50.42-17.765
	c-48.912,0-88.703,44.915-88.703,100.12c0,55.184,39.791,100.079,88.703,100.079c18.049,0,35.718-6.272,50.476-17.806l138.6,75.753
	C307.69,469.69,345.81,512,392.523,512c47.358,0,85.889-43.463,85.889-96.89C478.413,361.689,439.881,318.226,392.523,318.226z"/>
<path style="fill:#E4AD40;" d="M392.523,491.198c-35.88,0-65.067-34.133-65.067-76.088c0-0.63,0.041-1.244,0.076-1.854l0.31-8.141
	L165.205,316.23l-5.49,5.089c-12.118,11.244-26.683,17.186-42.117,17.186c-37.44,0-67.901-35.565-67.901-79.277
	c0-43.737,30.461-79.318,67.901-79.318c15.5,0,30.116,5.993,42.28,17.338l5.734,5.348l159.032-95.666l0.01-5.871
	c0.061-44.255,30.928-80.257,68.805-80.257c37.963,0,68.846,36.058,68.846,80.379c0,44.306-30.878,80.354-68.836,80.354
	c-16.109,0-31.817-6.719-44.23-18.923l-5.739-5.637l-158.077,94.726v15.144l163.069,91.831l5.536-4.764
	c11.305-9.741,24.616-14.885,38.496-14.885c35.89,0,65.087,34.128,65.087,76.083S428.414,491.198,392.523,491.198z"/>
<g>
</g>
<g>
</g>
<g>
</g>
<g>
</g>
<g>
</g>
<g>
</g>
<g>
</g>
<g>
</g>
<g>
</g>
<g>
</g>
<g>
</g>
<g>
</g>
<g>
</g>
<g>
</g>
<g>
</g>
</svg>
