<?xml version="1.0" encoding="iso-8859-1"?>
<!-- Generator: Adobe Illustrator 19.0.0, SVG Export Plug-In . SVG Version: 6.00 Build 0)  -->
<svg version="1.1" id="Layer_1" xmlns="http://www.w3.org/2000/svg" xmlns:xlink="http://www.w3.org/1999/xlink" x="0px" y="0px"
	 viewBox="0 0 512 512" style="enable-background:new 0 0 512 512;" xml:space="preserve">
<path style="fill:#314E55;" d="M353.378,319.999c10.653-11.069,16.272-24.961,15.806-39.105c-0.429-13.294-6.249-25.715-16.4-34.97
	c-21.453-19.566-52.809-17.739-74.564,4.335l-5.473,5.569c-11.32,11.526-23.015,23.444-35.249,34.084
	c-25.582,22.252-70.443,21.489-96.007-1.64c-16.738-15.139-26.313-34.55-26.98-54.664c-0.639-19.593,7.309-38.945,22.375-54.491
	c22.293-22.988,45.655-45.783,68.259-67.835c7.538-7.355,15.075-14.71,22.595-22.092c14.573-14.303,19.662-31.74,14.719-50.42
	c-5.208-19.625-18.812-32.366-39.287-36.83c-0.539-0.128-1.051-0.393-1.572-0.612L198.257,0h-9.731l-2.01,0.219
	c-17.652,3.888-30.178,14.637-40.1,24.637c-11.905,11.987-23.911,23.878-35.916,35.77c-16.601,16.437-33.202,32.869-49.529,49.566
	c-27.793,28.396-44.029,62.517-48.305,101.745c-0.311,2.17-1.243,8.767-1.234,17.291c0.009,9.05,1.188,20.607,1.498,22.549
	c11.503,72.942,50.416,121.649,115.651,144.76c22.202,7.871,44.002,11.782,65.153,11.782c43.609,0,84.468-16.638,120.429-49.484
	C328.206,346.002,341.774,332.06,353.378,319.999z"/>
<path style="fill:#81A4E3;" d="M134.831,378.903c-58.273-20.649-93.065-64.399-103.417-130.009
	c-0.183-1.279-1.261-11.677-1.27-19.685c-0.009-7.2,0.786-12.81,1.042-14.655l0.128-0.936c3.764-34.614,18.246-65.011,43.033-90.342
	c16.254-16.624,32.782-32.988,49.31-49.351c12.051-11.928,24.102-23.856,36.044-35.884c8.205-8.269,17.497-16.304,29.895-19.328
	h5.08c1.453,0.608,2.924,1.16,4.468,1.503c13.595,2.965,21.845,10.603,25.226,23.348c3.216,12.133,0.027,22.691-9.731,32.275
	l-22.558,22.056c-22.695,22.133-46.158,45.025-68.625,68.2c-18.639,19.223-28.451,43.417-27.638,68.127
	c0.822,25.231,12.59,49.356,33.12,67.93c32.709,29.566,88.031,30.425,120.84,1.878c12.791-11.124,24.751-23.307,36.318-35.094
	l5.445-5.541c14.682-14.879,34.682-16.377,48.634-3.646c6.387,5.824,10.041,13.55,10.315,21.754
	c0.292,9.054-3.472,18.118-10.598,25.523c-11.923,12.394-24.714,25.537-38.355,37.994
	C252.884,389.465,196.813,400.858,134.831,378.903z"/>
<path style="fill:#314E55;" d="M499.07,260.223c-11.512-72.942-50.425-121.649-115.651-144.76
	C315.434,91.37,251.24,104.39,197.837,153.166c-14.18,12.951-27.675,26.839-39.214,38.835
	c-10.662,11.074-16.272,24.966-15.815,39.114c0.439,13.294,6.259,25.71,16.409,34.961c21.453,19.571,52.8,17.734,74.554-4.331
	l5.683-5.779c11.247-11.457,22.878-23.303,35.039-33.878c25.573-22.243,70.443-21.489,96.016,1.64
	c16.738,15.139,26.313,34.559,26.971,54.673c0.639,19.589-7.309,38.94-22.375,54.486c-22.193,22.892-45.464,45.596-67.967,67.556
	c-7.638,7.446-15.276,14.893-22.878,22.366c-14.582,14.312-19.671,31.75-14.719,50.425c5.208,19.625,18.812,32.362,39.287,36.825
	c0.53,0.128,1.032,0.388,1.544,0.608l3.362,1.334h10.763l0.996-0.219c17.625-3.888,30.151-14.632,40.082-24.632
	c11.969-12.06,24.047-24.016,36.126-35.975c16.528-16.368,33.065-32.736,49.328-49.365c27.784-28.396,44.02-62.517,48.305-101.745
	c0.311-2.17,1.242-8.766,1.233-17.3C500.55,273.659,499.38,262.147,499.07,260.223z"/>
<path style="fill:#81A4E3;" d="M480.815,297.446l-0.128,0.932c-3.773,34.619-18.255,65.016-43.033,90.347
	c-16.199,16.555-32.654,32.855-49.118,49.15c-12.115,11.996-24.23,23.993-36.245,36.09c-8.205,8.264-17.497,16.3-29.886,19.324
	h-5.08c-1.453-0.608-2.924-1.16-4.468-1.503c-13.595-2.96-21.845-10.598-25.226-23.348c-3.216-12.129-0.036-22.686,9.731-32.28
	c7.602-7.455,15.221-14.888,22.841-22.325c22.595-22.047,45.957-44.842,68.332-67.921c18.639-19.223,28.451-43.417,27.647-68.122
	c-0.822-25.231-12.59-49.36-33.12-67.94c-32.7-29.571-88.04-30.434-120.85-1.877c-12.718,11.06-24.614,23.17-36.108,34.884
	l-5.656,5.752c-14.673,14.865-34.664,16.382-48.625,3.646c-6.387-5.824-10.05-13.545-10.315-21.745
	c-0.292-9.059,3.472-18.127,10.598-25.532c11.339-11.791,24.586-25.418,38.355-37.994c48.661-44.436,104.732-55.834,166.706-33.883
	c58.264,20.649,93.056,64.399,103.417,130.009c0.183,1.27,1.252,11.635,1.27,19.685C481.865,289.99,481.07,295.6,480.815,297.446z"
	/>
<g>
</g>
<g>
</g>
<g>
</g>
<g>
</g>
<g>
</g>
<g>
</g>
<g>
</g>
<g>
</g>
<g>
</g>
<g>
</g>
<g>
</g>
<g>
</g>
<g>
</g>
<g>
</g>
<g>
</g>
</svg>
