<?xml version="1.0" encoding="iso-8859-1"?>
<!-- Generator: Adobe Illustrator 19.0.0, SVG Export Plug-In . SVG Version: 6.00 Build 0)  -->
<svg version="1.1" id="Layer_1" xmlns="http://www.w3.org/2000/svg" xmlns:xlink="http://www.w3.org/1999/xlink" x="0px" y="0px"
	 viewBox="0 0 512 512" style="enable-background:new 0 0 512 512;" xml:space="preserve">
<path style="fill:#314E55;" d="M371.185,108.97c8.799,3.853,18.547,5.807,28.572,5.807c6.917,0,13.96-0.927,20.916-2.793
	c17.057-4.56,31.746-14.275,41.367-27.346c10.179-13.844,13.563-29.753,9.528-44.801c-4.03-15.048-14.915-27.137-30.653-34.026
	c-14.866-6.536-32.441-7.585-49.487-3.014c-17.057,4.56-31.746,14.275-41.367,27.346c-10.179,13.844-13.563,29.753-9.528,44.801
	C344.562,89.992,355.448,102.081,371.185,108.97z"/>
<path style="fill:#5ECB66;" d="M368.271,43.547c6.591-8.954,16.886-15.666,29.002-18.912c5.056-1.358,10.14-2.031,15.086-2.031
	c6.911,0,13.552,1.314,19.486,3.919c9.312,4.074,15.666,10.886,17.885,19.165c2.219,8.28,0.122,17.355-5.901,25.547
	c-6.591,8.954-16.886,15.666-28.997,18.912c-0.006,0-0.006,0-0.006,0c-12.122,3.246-24.388,2.572-34.572-1.888
	c-9.312-4.074-15.666-10.886-17.885-19.165C360.151,60.814,362.248,51.738,368.271,43.547z"/>
<path style="fill:#314E55;" d="M111.169,108.97c8.799,3.853,18.547,5.807,28.572,5.807c6.917,0,13.96-0.927,20.915-2.793
	c17.057-4.56,31.746-14.275,41.367-27.346c10.179-13.844,13.563-29.753,9.528-44.801c-4.03-15.048-14.915-27.136-30.653-34.025
	c-14.866-6.536-32.441-7.585-49.487-3.014c-17.057,4.56-31.746,14.275-41.367,27.346c-10.179,13.844-13.563,29.753-9.528,44.801
	C84.546,89.992,95.431,102.081,111.169,108.97z"/>
<path style="fill:#5ECB66;" d="M108.254,43.547c6.591-8.954,16.886-15.666,29.002-18.912c5.056-1.358,10.14-2.031,15.086-2.031
	c6.911,0,13.552,1.314,19.486,3.919c9.312,4.074,15.666,10.886,17.885,19.165c2.219,8.28,0.122,17.355-5.901,25.547
	c-6.591,8.954-16.886,15.666-28.997,18.912c-0.006,0-0.006,0-0.006,0c-12.128,3.246-24.393,2.572-34.572-1.888
	c-9.312-4.074-15.666-10.886-17.885-19.165C100.134,60.814,102.232,51.738,108.254,43.547z"/>
<path style="fill:#314E55;" d="M477.032,231.184c-2.142-2.672-5.382-4.217-8.804-4.217c-380.431,0-412.922,5.376-415.378,5.995
	c-3.853,0.96-6.922,3.875-8.076,7.684c-0.596,1.965-57.85,196.856,79.792,256.704C147.088,507.142,171.249,512,196.2,512
	c33.601,0,68.62-8.832,102.872-26.342c87.934-44.955,156.979-138.829,180.202-244.969
	C480.002,237.345,479.18,233.845,477.032,231.184z"/>
<path style="fill:#5ECB66;" d="M288.777,465.532c-53.544,27.368-108.668,31.321-155.191,11.084
	c-49.46-21.506-75.934-65.998-78.688-132.261c-1.628-39.248,5.912-75.095,9.594-89.944c20.579-1.402,99.819-4.725,389.401-4.835
	C429.383,343.583,367.056,425.501,288.777,465.532z"/>
<g>
</g>
<g>
</g>
<g>
</g>
<g>
</g>
<g>
</g>
<g>
</g>
<g>
</g>
<g>
</g>
<g>
</g>
<g>
</g>
<g>
</g>
<g>
</g>
<g>
</g>
<g>
</g>
<g>
</g>
</svg>
