<?xml version="1.0" encoding="iso-8859-1"?>
<!-- Generator: Adobe Illustrator 19.0.0, SVG Export Plug-In . SVG Version: 6.00 Build 0)  -->
<svg version="1.1" id="Layer_1" xmlns="http://www.w3.org/2000/svg" xmlns:xlink="http://www.w3.org/1999/xlink" x="0px" y="0px"
	 viewBox="0 0 512 512" style="enable-background:new 0 0 512 512;" xml:space="preserve">
<path style="fill:#314E55;" d="M256,0C114.839,0,0,114.839,0,256s114.839,256,256,256s256-114.839,256-256S397.161,0,256,0z"/>
<path style="fill:#5ECB66;" d="M256,493.714C124.924,493.714,18.286,387.08,18.286,256S124.924,18.286,256,18.286
	S493.714,124.92,493.714,256S387.076,493.714,256,493.714z"/>
<path style="fill:#314E55;" d="M433.348,179.196c-18.714-11.125-38.741-20.545-59.522-27.982
	c-72.554-25.964-152.736-29.402-238.308-10.232c-24.205,5.411-38.509,10.357-43.536,12.223
	c-14.942,5.563-22.576,22.25-17.018,37.196c5.563,14.947,22.241,22.598,37.187,17.027l0.018-0.009
	c1.42-0.527,4.442-1.554,8.897-2.911c8.451-2.571,17.563-4.955,27.08-7.089c73.71-16.491,145-13.625,206.187,8.259
	c17.281,6.187,33.92,14,49.451,23.232c4.621,2.75,9.705,4.053,14.728,4.053c9.875,0,19.513-5.045,24.915-14.134
	C451.571,205.125,447.049,187.339,433.348,179.196z"/>
<path style="fill:#FFFFFF;" d="M427.71,209.491c-3,5.036-9.54,6.688-14.585,3.705c-16.536-9.83-34.241-18.152-52.63-24.732
	c-37.005-13.241-77.411-19.893-119.714-19.893c-31.379,0-63.804,3.661-96.629,11.009c-9.964,2.232-19.518,4.732-28.411,7.437
	c-4.987,1.518-8.362,2.67-9.955,3.268c-5.487,2.053-11.643-0.768-13.683-6.259c-2.045-5.5,0.763-11.634,6.263-13.679
	c4.674-1.741,18.04-6.357,41.143-11.527c82.156-18.402,158.924-15.161,228.156,9.607c19.674,7.045,38.629,15.955,56.339,26.482
	C429.04,197.911,430.701,204.446,427.71,209.491z"/>
<path style="fill:#314E55;" d="M402.263,248.679c-94.04-40.312-182.603-50.679-256.076-30.018
	c-16.571,4.661-26.031,9.134-30.201,11.393c-14.018,7.589-19.245,25.179-11.656,39.205c7.603,14.027,25.17,19.241,39.205,11.661
	c0.451-0.232,1.594-0.759,3.433-1.518c4.339-1.795,9.348-3.5,14.88-5.053c60.616-17.053,135.88-7.536,217.629,27.5
	c3.661,1.571,7.522,2.357,11.388,2.357c3.634,0,7.272-0.696,10.75-2.089c7.17-2.866,12.799-8.357,15.839-15.464
	C423.737,271.991,416.92,254.955,402.263,248.679z"/>
<path style="fill:#FFFFFF;" d="M400.652,279.455c-1.12,2.607-3.192,4.634-5.83,5.688c-2.638,1.053-5.536,1.009-8.138-0.098
	c-57.625-24.696-112.446-37.214-161.857-37.214c-24.022,0-46.768,2.964-67.933,8.911c-6.223,1.75-11.92,3.696-16.906,5.759
	c-2.893,1.196-4.616,2.045-5.165,2.339c-2.5,1.357-5.384,1.652-8.085,0.839c-2.728-0.813-4.973-2.634-6.326-5.125
	c-2.79-5.161-0.866-11.634,4.281-14.42c2.817-1.527,11.022-5.536,26.446-9.866c69.406-19.527,153.759-9.429,243.92,29.214
	C400.451,267.795,402.96,274.062,400.652,279.455z"/>
<path style="fill:#314E55;" d="M373.571,321.357c-65.357-37.33-140.473-47.777-217.214-30.152
	c-11.455,2.634-22.12,5.759-29.254,8.571c-7.192,2.822-12.853,8.277-15.938,15.357c-3.089,7.089-3.232,14.947-0.406,22.134
	c5.83,14.839,22.638,22.178,37.491,16.348l0.058-0.018c0.665-0.268,2.272-0.83,4.755-1.616c4.911-1.563,10.379-3.045,16.25-4.393
	c62.326-14.321,123.045-6.018,175.558,24c4.513,2.58,9.433,3.804,14.29,3.804c10.049,0,19.835-5.241,25.174-14.571
	C392.25,346.973,387.42,329.268,373.571,321.357z"/>
<path style="fill:#FFFFFF;" d="M368.46,351.75c-2.915,5.08-9.424,6.875-14.518,3.964c-38.603-22.062-81.25-33.25-125.696-33.25
	c-20.696,0-41.781,2.42-63.031,7.304c-6.357,1.464-12.312,3.072-17.679,4.786c-3.098,0.973-5.12,1.705-5.991,2.053
	c-5.451,2.116-11.625-0.58-13.768-6.018c-1.04-2.652-0.987-5.545,0.147-8.143c1.138-2.607,3.219-4.616,5.866-5.652
	c3-1.178,11.598-4.304,26.661-7.768c72.17-16.58,142.732-6.822,204.049,28.205c2.464,1.411,4.237,3.696,4.982,6.438
	C370.232,346.42,369.871,349.286,368.46,351.75z"/>
<g>
</g>
<g>
</g>
<g>
</g>
<g>
</g>
<g>
</g>
<g>
</g>
<g>
</g>
<g>
</g>
<g>
</g>
<g>
</g>
<g>
</g>
<g>
</g>
<g>
</g>
<g>
</g>
<g>
</g>
</svg>
