<?xml version="1.0" encoding="iso-8859-1"?>
<!-- Generator: Adobe Illustrator 19.0.0, SVG Export Plug-In . SVG Version: 6.00 Build 0)  -->
<svg version="1.1" id="Layer_1" xmlns="http://www.w3.org/2000/svg" xmlns:xlink="http://www.w3.org/1999/xlink" x="0px" y="0px"
	 viewBox="0 0 512 512" style="enable-background:new 0 0 512 512;" xml:space="preserve">
<path style="fill:#314E55;" d="M493.623,241.556C505,229.015,512,212.433,512,194.207c0-38.94-31.681-70.621-70.621-70.621
	c-32.315,0-59.565,21.844-67.925,51.523l-37.053,98.807c-8.483,0.508-16.623,2.833-24.018,6.893l-180.701-74.058
	c-4.68-32.411-32.539-56.682-65.475-56.682C29.698,150.069,0,179.767,0,216.276s29.698,66.207,66.207,66.207
	c13.189,0,25.703-3.99,36.58-11.242l181.776,74.502c0.052,0.299-0.017,0.589,0.067,0.887c6.94,24.603,29.646,41.784,55.233,41.784
	c31.638,0,57.379-25.741,57.379-57.379c0-1.549-0.111-3.071-0.233-4.589l94.276-81.42
	C492.404,244.058,493.116,242.843,493.623,241.556z"/>
<path style="fill:#FFFFFF;" d="M441.379,141.241c29.207,0,52.966,23.759,52.966,52.966s-23.759,52.966-52.966,52.966
	s-52.966-23.759-52.966-52.966c0-4.69,0.672-9.216,1.822-13.549l2.031-5.416c0.169-0.452,0.127-0.913,0.219-1.371
	C400.476,154.731,419.376,141.241,441.379,141.241z"/>
<path style="fill:#314E55;" d="M441.379,229.517c19.474,0,35.31-15.836,35.31-35.31s-15.836-35.31-35.31-35.31
	c-19.474,0-35.31,15.836-35.31,35.31S421.905,229.517,441.379,229.517z"/>
<g>
	<path style="fill:#D8D8D8;" d="M441.379,176.552c9.733,0,17.655,7.922,17.655,17.655c0,9.733-7.922,17.655-17.655,17.655
		c-9.733,0-17.655-7.922-17.655-17.655S431.646,176.552,441.379,176.552z"/>
	<path style="fill:#D8D8D8;" d="M55.095,232.612c-9-3.69-13.328-14.026-9.647-23.026c3.707-9,14.043-13.336,23.043-9.647
		l237.621,97.382c1.681,1.645,3.822,2.497,6.088,2.495l25.524,10.46c4.371,1.793,7.776,5.173,9.595,9.526s1.836,9.146,0.043,13.517
		c-3.681,9.009-13.983,13.345-23.026,9.638L55.095,232.612z"/>
</g>
<g>
	<path style="fill:#FFFFFF;" d="M66.207,264.828c-26.767,0-48.552-21.784-48.552-48.552s21.784-48.552,48.552-48.552
		c20.246,0,37.725,12.581,44.927,30.605l-35.953-14.734c-18.009-7.371-38.672,1.284-46.069,19.293
		c-7.371,18.009,1.276,38.672,19.285,46.06l32.886,13.478C76.466,263.997,71.403,264.828,66.207,264.828z"/>
	<path style="fill:#FFFFFF;" d="M339.862,370.759c-12.304,0-23.554-5.823-30.942-15.033l8.726,3.576
		c4.319,1.767,8.853,2.647,13.388,2.647c4.621,0,9.241-0.914,13.638-2.759c8.698-3.638,15.457-10.448,19.026-19.172
		c7.388-18.017-1.259-38.681-19.276-46.078l-6.128-2.511c0.526-0.021,1.039-0.118,1.567-0.118c21.905,0,39.724,17.819,39.724,39.724
		S361.767,370.759,339.862,370.759z"/>
	<path style="fill:#FFFFFF;" d="M354.614,275.649l20.981-55.949c10.251,26.354,35.824,45.114,65.756,45.126l-49.273,42.554
		C385.033,291.894,371.322,280.106,354.614,275.649z"/>
</g>
<g>
</g>
<g>
</g>
<g>
</g>
<g>
</g>
<g>
</g>
<g>
</g>
<g>
</g>
<g>
</g>
<g>
</g>
<g>
</g>
<g>
</g>
<g>
</g>
<g>
</g>
<g>
</g>
<g>
</g>
</svg>
