<?xml version="1.0" encoding="iso-8859-1"?>
<!-- Generator: Adobe Illustrator 19.0.0, SVG Export Plug-In . SVG Version: 6.00 Build 0)  -->
<svg version="1.1" id="Layer_1" xmlns="http://www.w3.org/2000/svg" xmlns:xlink="http://www.w3.org/1999/xlink" x="0px" y="0px"
	 viewBox="0 0 512 512" style="enable-background:new 0 0 512 512;" xml:space="preserve">
<path style="fill:#314E55;" d="M497.17,273.045c-11.493-25.825-28.181-47.652-46.993-61.436
	c-20.361-14.944-41.038-18.942-58.171-11.308c-34.062,15.157-41.233,70.87-16.317,126.824
	c11.493,25.825,28.181,47.652,46.993,61.436c13.618,9.99,27.365,15.092,40.11,15.092c6.317,0,12.384-1.252,18.07-3.785h-0.009
	C514.915,384.712,522.086,328.999,497.17,273.045z"/>
<path style="fill:#E4AD40;" d="M473.135,382.523c-0.009,0-0.009,0-0.009,0c-10.649,4.74-24.582,1.456-39.21-9.276
	c-16.187-11.864-30.704-30.992-40.88-53.839c-19.888-44.693-16.827-91.287,6.697-101.76c3.182-1.419,6.651-2.115,10.352-2.115
	c8.682,0,18.599,3.868,28.858,11.391c16.187,11.864,30.704,30.992,40.88,53.839C499.711,325.456,496.65,372.05,473.135,382.523z"/>
<path style="fill:#314E55;" d="M456.883,429.581c-35.648,6.725-83.884-35.899-109.774-96.908
	c-19.461-45.843-23.32-93.513-10.074-124.394c1.438-3.339,0.835-7.208-1.54-9.963c-2.384-2.746-6.132-3.877-9.629-2.968
	c-63.533,16.892-107.91,77.54-107.91,147.482c0,83.801,63.913,151.981,142.482,151.981c40.036,0,78.467-18.126,105.414-49.72
	c2.616-3.07,3.015-7.439,0.993-10.927C464.842,430.685,460.882,428.895,456.883,429.581z"/>
<path style="fill:#E4AD40;" d="M360.439,475.814c-68.087,0-123.485-59.655-123.485-132.983c0-54.767,30.751-102.966,76.64-123.114
	c-7.486,34.09-1.855,78.254,16.02,120.377c24.981,58.857,66.891,100.146,106.407,107.873
	C414.528,465.851,387.896,475.814,360.439,475.814z"/>
<path style="fill:#314E55;" d="M207.66,405.519c-11.28-25.806-23.023-83.012-23.144-83.588c-0.733-3.599-3.478-6.447-7.041-7.319
	c-3.562-0.881-7.319,0.38-9.638,3.228c-10.853,13.367-64.488,81.649-53.876,113.485c10.473,31.437,99.181,49.164,126.119,53.848
	c0.538,0.093,1.085,0.139,1.623,0.139c3.274,0,6.363-1.697,8.107-4.555c2.032-3.33,1.818-7.56-0.529-10.668
	C248.967,469.663,217.428,427.828,207.66,405.519z"/>
<path style="fill:#E4AD40;" d="M131.976,425.314c-4.517-13.58,16.975-50.388,38.338-79.553
	c4.601,19.842,12.207,49.683,19.944,67.364c6.122,13.998,19.248,33.904,29.554,48.654
	C177.104,452.224,136.002,437.373,131.976,425.314z"/>
<path style="fill:#314E55;" d="M164.248,219.782c62.104,0,100.331-27.207,102.038-28.45c4.165-3.024,5.158-8.822,2.245-13.061
	c-3.599-5.232-89.051-128.132-174.114-129.885c-29.981-0.51-55.982,13.552-77.401,42.123c-21.781,29.044-18.71,51.705-12.291,65.601
	c18.97,41.094,87.901,59.618,146.082,63.254C155.408,219.652,159.888,219.782,164.248,219.782z"/>
<path style="fill:#E4AD40;" d="M21.97,148.151c-6.178-13.385-2.727-28.942,10.241-46.251c17.421-23.228,37.17-34.535,60.332-34.535
	c0.482,0,0.974,0,1.466,0.019c63.681,1.299,132.622,86.463,152.936,113.513c-14.684,7.941-48.459,22.402-94.951,19.508
	C86.773,196.331,34.52,175.33,21.97,148.151z"/>
<path style="fill:#314E55;" d="M289.189,171.165c0.473,0,0.946-0.037,1.419-0.102c2.384-0.362,58.811-9.23,81.834-49.08
	c10.946-18.97,17.086-39.368,17.291-57.438c0.223-20.046-6.809-35.222-19.795-42.717c-25.352-14.619-64.006,6.391-87.994,47.912
	c-23.005,39.851-2.468,93.161-1.586,95.406C281.805,168.818,285.339,171.165,289.189,171.165z"/>
<path style="fill:#E4AD40;" d="M298.4,79.238c16.159-27.986,38.598-43.014,53.607-43.014c3.191,0,6.048,0.677,8.432,2.059
	c6.688,3.859,10.445,13.358,10.296,26.048c-0.167,14.86-5.399,31.966-14.749,48.153c-13.952,24.155-45.676,34.517-60.416,38.144
	C291.341,136.046,284.448,103.393,298.4,79.238z"/>
<g>
</g>
<g>
</g>
<g>
</g>
<g>
</g>
<g>
</g>
<g>
</g>
<g>
</g>
<g>
</g>
<g>
</g>
<g>
</g>
<g>
</g>
<g>
</g>
<g>
</g>
<g>
</g>
<g>
</g>
</svg>
