<?xml version="1.0" encoding="iso-8859-1"?>
<!-- Generator: Adobe Illustrator 19.0.0, SVG Export Plug-In . SVG Version: 6.00 Build 0)  -->
<svg version="1.1" id="Layer_1" xmlns="http://www.w3.org/2000/svg" xmlns:xlink="http://www.w3.org/1999/xlink" x="0px" y="0px"
	 viewBox="0 0 512 512" style="enable-background:new 0 0 512 512;" xml:space="preserve">
<path style="fill:#314E55;" d="M304.762,0h-97.523C105.093,0,21.991,83.088,21.991,185.21v87.849
	c0,76.051,46.733,144.399,117.005,172.241v56.95c0,3.856,2.271,7.351,5.799,8.912c1.266,0.562,2.614,0.838,3.952,0.838
	c2.371,0,4.718-0.867,6.546-2.523l56.536-51.209h92.933c102.146,0,185.248-83.088,185.248-185.21V185.21
	C490.009,83.088,406.907,0,304.762,0z"/>
<path style="fill:#D26CBA;" d="M470.509,273.058c0,91.372-74.352,165.709-165.747,165.709h-96.695c-2.419,0-4.751,0.895-6.546,2.523
	l-43.025,38.973v-41.725c0-4.132-2.604-7.817-6.503-9.189C85.902,405.984,41.492,343.177,41.492,273.058V185.21
	c0-91.372,74.352-165.709,165.747-165.709h97.523c91.395,0,165.747,74.337,165.747,165.709V273.058z"/>
<path style="fill:#314E55;" d="M384.859,297.32l-59.931-38.925c-6.556-4.256-14.349-5.703-21.991-4.123
	c-7.646,1.609-14.211,6.123-18.477,12.702l-2.818,4.332c-25.938-8.57-54.536-19.52-71.657-69.081l7.089-6.161h0.005
	c12.164-10.579,13.445-29.089,2.861-41.277l-46.881-53.932c-3.533-4.066-9.693-4.485-13.759-0.962l-29.432,25.585
	c-25.823,22.443-13.754,55.646-9.788,66.558c0.176,0.486,0.391,0.952,0.643,1.409c1.024,1.838,25.471,45.457,64.944,85.668
	c39.635,40.373,111.196,77.66,113.391,78.746c8.174,5.304,17.368,7.846,26.461,7.846c15.968,0,31.632-7.827,40.968-22.186
	l21.239-32.708C390.658,306.29,389.373,300.253,384.859,297.32z"/>
<path style="fill:#D8D8D8;" d="M350.133,332.894c-8.789,13.531-26.937,17.377-41.277,8.132c-0.714-0.371-71.8-37.392-109.273-75.565
	c-35.021-35.678-58.274-75.308-61.449-80.841c-7.727-21.653-6.361-34.964,4.523-44.42l22.081-19.187l40.482,46.572
	c3.594,4.132,3.18,10.179-0.938,13.759l-11.964,10.398c-2.914,2.533-4.061,6.542-2.923,10.226
	c20.4,66.282,60.064,79.298,89.025,88.81l4.218,1.39c4.218,1.428,8.846-0.2,11.259-3.933l6.918-10.645
	c1.428-2.199,3.609-3.694,6.142-4.228c2.542-0.543,5.142-0.038,7.346,1.39l51.756,33.612L350.133,332.894z"/>
<g>
	<path style="fill:#314E55;" d="M278.253,158.415c-5.189-1.495-10.579,1.523-12.05,6.713c-1.471,5.18,1.533,10.569,6.708,12.045
		c14.53,4.132,26.099,15.73,30.199,30.27c1.209,4.294,5.123,7.103,9.379,7.103c0.876,0,1.766-0.114,2.652-0.362
		c5.18-1.466,8.198-6.846,6.737-12.036C315.959,181.144,299.239,164.385,278.253,158.415z"/>
	<path style="fill:#314E55;" d="M352.457,216.641c0.876,0,1.766-0.114,2.652-0.362c5.185-1.466,8.198-6.856,6.737-12.036
		c-11.503-40.782-43.967-73.318-84.721-84.916c-5.18-1.495-10.574,1.543-12.045,6.713c-1.471,5.18,1.533,10.569,6.713,12.045
		c34.288,9.75,61.606,37.135,71.285,71.452C344.292,213.833,348.2,216.641,352.457,216.641z"/>
	<path style="fill:#314E55;" d="M272.925,73.928c-5.189-1.495-10.579,1.523-12.05,6.713c-1.471,5.18,1.533,10.569,6.708,12.045
		c58.107,16.53,104.388,62.92,120.785,121.061c1.209,4.294,5.123,7.103,9.379,7.103c0.876,0,1.766-0.114,2.652-0.362
		c5.18-1.466,8.198-6.856,6.737-12.036C388.916,143.847,337.488,92.305,272.925,73.928z"/>
</g>
<g>
</g>
<g>
</g>
<g>
</g>
<g>
</g>
<g>
</g>
<g>
</g>
<g>
</g>
<g>
</g>
<g>
</g>
<g>
</g>
<g>
</g>
<g>
</g>
<g>
</g>
<g>
</g>
<g>
</g>
</svg>
