<?xml version="1.0" encoding="iso-8859-1"?>
<!-- Generator: Adobe Illustrator 19.0.0, SVG Export Plug-In . SVG Version: 6.00 Build 0)  -->
<svg version="1.1" id="Layer_1" xmlns="http://www.w3.org/2000/svg" xmlns:xlink="http://www.w3.org/1999/xlink" x="0px" y="0px"
	 viewBox="0 0 511.999 511.999" style="enable-background:new 0 0 511.999 511.999;" xml:space="preserve">
<path style="fill:#314E55;" d="M228.419,477.254c-14.543,0-64.024-11.79-100.325-160.747c-0.205-0.865-18.979-79.698-46.483-134.624
	c-0.184-0.374-2.758-5.373-8.018-6.125c-3.587-0.517-13.785,0.384-31.787,19.701c-2.042,2.19-5.132,3.602-7.921,3.331
	c-2.999-0.072-5.818-1.423-7.752-3.715L2.471,167.038c-3.459-4.099-3.265-10.147,0.445-14.016
	c3.147-3.28,77.313-80.251,124.283-101.768c4.718-2.727,32.253-17.331,59.961-4.339c25.626,12.025,42.129,43.167,49.047,92.562
	c10.505,83.735,30.615,158.685,44.232,165.326c3.05-0.409,27.402-6.964,68.149-109.315c0.563-2.753,3.065-17.244-4.687-24.761
	c-7.86-7.63-25.933-7.89-50.874-0.757c-3.546,1.003-7.384,0.087-10.065-2.446c-2.691-2.533-3.848-6.299-3.045-9.906
	c0.276-1.264,29.484-126.202,149.494-122.804c1.786,0.041,44.119,1.499,67.714,36.766c20.924,31.27,19.767,77.769-3.433,138.211
	c-5.47,11.084-126.033,250.111-261.563,267.156C231.49,477.07,230.22,477.254,228.419,477.254z"/>
<path style="fill:#73C9C9;" d="M72.063,154.691c1.699,0,3.377,0.133,5.03,0.399c16.011,2.574,22.699,16.18,23.411,17.72
	c28.466,56.835,47.189,135.489,47.972,138.81c35.65,146.281,80.01,144.817,80.383,144.633
	c125.081-15.75,244.477-252.506,245.669-254.895c19.926-52.035,21.855-93.202,5.179-118.122
	c-17.623-26.343-50.495-27.463-50.822-27.473c-77.907-1.945-111.393,59.347-123.142,89.779c23.989-4.088,41.729-0.65,52.874,10.26
	c17.377,17.014,10.444,44.324,10.142,45.475c-0.107,0.409-0.241,0.809-0.399,1.203c-28.328,71.347-54.768,112.186-78.588,121.381
	c-8.208,3.183-13.969,1.668-16.344,0.727c-8.939-3.5-38.531-27.023-57.996-182.351c-5.772-41.192-18.631-67.642-37.17-76.341
	c-19.332-9.073-40.496,3.454-40.701,3.577c-0.389,0.241-0.793,0.455-1.208,0.645c-35.696,16.104-92.485,71.383-111.71,90.7
	l10.183,12.061C48.09,160.785,60.565,154.691,72.063,154.691z"/>
<g>
	<path style="fill:#314E55;" d="M281.862,305.413c0.01,0.005,0.02,0.01,0.02,0.01S281.872,305.418,281.862,305.413z"/>
	<path style="fill:#314E55;" d="M281.836,305.403c0,0,0.015,0.005,0.02,0.01C281.851,305.408,281.841,305.408,281.836,305.403z"/>
	<path style="fill:#314E55;" d="M281.816,305.393l0.005,0.005L281.816,305.393z"/>
</g>
<g>
</g>
<g>
</g>
<g>
</g>
<g>
</g>
<g>
</g>
<g>
</g>
<g>
</g>
<g>
</g>
<g>
</g>
<g>
</g>
<g>
</g>
<g>
</g>
<g>
</g>
<g>
</g>
<g>
</g>
</svg>
